<svg xmlns="http://www.w3.org/2000/svg" id="canvas" viewBox="211.762 241.625 846.013 153.236"><path d="M 234.17,261.32 C 232.95 262.64, 232.19 264.73, 230.72 268.89 C 229.24 273.06, 228.51 275.90, 226.79 282.14 C 225.06 288.37, 223.85 292.43, 222.08 300.06 C 220.32 307.70, 219.27 311.99, 217.96 320.31 C 216.65 328.63, 216.17 333.45, 215.54 341.65 C 214.91 349.85, 214.62 354.24, 214.83 361.32 C 215.03 368.40, 215.15 371.80, 216.56 377.04 C 217.97 382.28, 218.97 384.58, 221.87 387.53 C 224.77 390.47, 226.90 391.39, 231.05 391.77 C 235.20 392.15, 237.75 391.33, 242.60 389.44 C 247.45 387.55, 250.24 385.82, 255.28 382.32 C 260.32 378.81, 263.13 376.46, 267.81 371.92 C 272.48 367.39, 275.04 364.18, 278.65 359.64 C 282.27 355.10, 283.87 352.74, 285.89 349.24 C 287.90 345.75, 288.54 343.78, 288.72 342.17 C 288.91 340.55, 288.03 340.15, 286.83 341.17 C 285.63 342.19, 284.94 344.02, 282.73 347.26 C 280.52 350.50, 279.25 352.93, 275.78 357.37 C 272.31 361.80, 269.89 365.04, 265.38 369.42 C 260.86 373.80, 258.05 376.02, 253.20 379.28 C 248.35 382.54, 245.52 384.02, 241.15 385.71 C 236.78 387.41, 234.67 387.90, 231.34 387.75 C 228.01 387.59, 226.83 387.23, 224.49 384.92 C 222.15 382.60, 221.01 380.92, 219.63 376.18 C 218.25 371.44, 217.90 368.09, 217.59 361.22 C 217.28 354.35, 217.49 349.94, 218.08 341.84 C 218.66 333.74, 219.14 328.94, 220.52 320.72 C 221.89 312.51, 223.02 308.28, 224.95 300.76 C 226.87 293.24, 228.24 289.24, 230.15 283.13 C 232.06 277.01, 233.16 274.33, 234.49 270.17 C 235.83 266.01, 236.89 264.08, 236.82 262.31 C 236.76 260.54, 235.39 260.00, 234.17 261.32" style="stroke: black; fill: black;"/><path d="M 221.72,325.94 C 223.21 326.60, 225.42 326.77, 228.75 326.29 C 232.09 325.81, 234.33 324.99, 238.41 323.55 C 242.49 322.12, 247.29 320.82, 249.15 319.12 C 251.02 317.43, 250.24 315.26, 247.75 315.08 C 245.26 314.90, 240.76 317.07, 236.72 318.22 C 232.68 319.37, 230.62 319.88, 227.54 320.83 C 224.46 321.78, 222.49 321.94, 221.32 322.97 C 220.16 323.99, 220.24 325.27, 221.72 325.94" style="stroke: black; fill: black;"/><path d="M 226.78,298.50 C 228.38 298.92, 230.38 298.63, 234.12 297.83 C 237.87 297.02, 240.54 295.98, 245.51 294.46 C 250.48 292.94, 253.65 292.00, 258.97 290.24 C 264.30 288.49, 267.14 287.47, 272.12 285.67 C 277.09 283.86, 279.62 282.99, 283.86 281.23 C 288.09 279.46, 290.39 278.48, 293.28 276.84 C 296.17 275.21, 297.50 274.19, 298.31 273.03 C 299.11 271.87, 298.72 271.10, 297.31 271.05 C 295.91 270.99, 294.32 271.51, 291.29 272.77 C 288.26 274.02, 286.26 275.46, 282.16 277.31 C 278.06 279.16, 275.67 280.21, 270.78 282.02 C 265.90 283.83, 263.04 284.72, 257.73 286.35 C 252.43 287.98, 249.22 288.79, 244.26 290.16 C 239.29 291.52, 236.53 292.06, 232.91 293.17 C 229.29 294.28, 227.37 294.64, 226.15 295.71 C 224.92 296.77, 225.19 298.07, 226.78 298.50" style="stroke: black; fill: black;"/><path d="M 295.37,245.38 C 294.52 246.45, 294.05 247.66, 293.78 250.91 C 293.51 254.16, 293.90 256.27, 294.03 261.63 C 294.16 266.99, 294.25 270.44, 294.43 277.71 C 294.61 284.99, 294.61 289.43, 294.92 297.99 C 295.24 306.55, 295.38 311.68, 296.01 320.51 C 296.64 329.34, 297.05 334.35, 298.07 342.14 C 299.10 349.93, 299.61 353.94, 301.14 359.46 C 302.68 364.98, 303.27 367.52, 305.75 369.74 C 308.23 371.97, 310.62 372.19, 313.53 370.60 C 316.44 369.02, 317.70 366.80, 320.29 361.82 C 322.89 356.85, 324.07 353.20, 326.51 345.74 C 328.95 338.27, 330.17 333.27, 332.49 324.49 C 334.81 315.71, 336.18 310.58, 338.10 301.83 C 340.03 293.08, 340.86 288.11, 342.10 280.74 C 343.34 273.37, 344.05 269.80, 344.30 264.99 C 344.55 260.17, 344.49 258.22, 343.35 256.66 C 342.21 255.10, 340.25 255.00, 338.58 257.19 C 336.91 259.38, 336.41 261.88, 335.01 267.60 C 333.60 273.32, 332.76 277.46, 331.57 285.77 C 330.37 294.08, 329.75 299.64, 329.01 309.15 C 328.28 318.66, 327.91 324.24, 327.89 333.31 C 327.87 342.37, 328.03 347.25, 328.90 354.48 C 329.78 361.70, 330.28 364.93, 332.26 369.44 C 334.24 373.95, 335.71 375.78, 338.79 377.03 C 341.88 378.27, 344.15 377.74, 347.69 375.67 C 351.23 373.60, 352.92 371.35, 356.51 366.68 C 360.10 362.01, 362.15 358.44, 365.63 352.31 C 369.12 346.17, 370.91 342.01, 373.95 336.00 C 376.99 329.99, 378.79 326.49, 380.84 322.27 C 382.88 318.04, 383.80 316.29, 384.18 314.88 C 384.57 313.48, 383.25 313.44, 382.77 315.24 C 382.30 317.04, 382.12 319.40, 381.79 323.89 C 381.46 328.39, 381.21 332.09, 381.12 337.71 C 381.04 343.33, 381.04 346.87, 381.37 351.98 C 381.70 357.09, 381.52 359.98, 382.76 363.25 C 383.99 366.53, 385.22 367.72, 387.54 368.36 C 389.87 369.01, 391.93 368.02, 394.37 366.46 C 396.80 364.90, 398.36 363.21, 399.71 360.56 C 401.06 357.92, 401.50 355.06, 401.11 353.25 C 400.72 351.44, 399.42 350.87, 397.76 351.51 C 396.11 352.16, 394.33 354.30, 392.82 356.47 C 391.31 358.63, 391.13 360.54, 390.22 362.34 C 389.31 364.13, 388.83 365.51, 388.29 365.43 C 387.75 365.34, 388.00 364.65, 387.53 361.90 C 387.06 359.16, 386.25 356.51, 385.95 351.69 C 385.65 346.88, 385.83 343.35, 386.02 337.83 C 386.22 332.32, 386.87 328.72, 386.94 324.12 C 387.01 319.51, 387.33 317.01, 386.37 314.80 C 385.40 312.59, 383.92 311.94, 382.10 313.07 C 380.28 314.20, 379.50 316.18, 377.26 320.46 C 375.02 324.74, 373.81 328.45, 370.88 334.47 C 367.95 340.49, 366.09 344.60, 362.61 350.56 C 359.13 356.53, 356.88 359.98, 353.46 364.31 C 350.04 368.64, 348.17 370.38, 345.52 372.22 C 342.86 374.06, 342.26 374.34, 340.19 373.53 C 338.13 372.71, 336.92 372.03, 335.18 368.15 C 333.44 364.27, 332.50 361.10, 331.52 354.14 C 330.53 347.17, 330.28 342.27, 330.28 333.31 C 330.27 324.36, 330.63 318.77, 331.49 309.36 C 332.36 299.95, 333.15 294.42, 334.61 286.26 C 336.06 278.10, 337.27 274.04, 338.77 268.57 C 340.26 263.10, 341.58 261.16, 342.08 258.91 C 342.59 256.66, 341.55 256.17, 341.31 257.34 C 341.07 258.51, 341.24 260.16, 340.87 264.76 C 340.50 269.36, 340.48 273.02, 339.44 280.33 C 338.41 287.64, 337.61 292.61, 335.72 301.31 C 333.83 310.00, 332.42 315.12, 329.99 323.81 C 327.56 332.49, 326.16 337.47, 323.56 344.73 C 320.96 351.98, 319.43 355.56, 316.99 360.07 C 314.55 364.58, 313.10 365.86, 311.38 367.28 C 309.66 368.69, 309.84 368.87, 308.39 367.13 C 306.95 365.39, 305.70 363.66, 304.16 358.59 C 302.61 353.52, 301.81 349.43, 300.68 341.78 C 299.54 334.13, 299.10 329.11, 298.48 320.33 C 297.86 311.56, 297.75 306.44, 297.58 297.92 C 297.42 289.39, 297.54 284.95, 297.66 277.70 C 297.79 270.45, 297.96 267.00, 298.21 261.67 C 298.45 256.35, 298.95 254.32, 298.91 251.09 C 298.87 247.87, 298.72 246.69, 298.02 245.54 C 297.31 244.40, 296.22 244.30, 295.37 245.38" style="stroke: black; fill: black;"/><path d="M 397.79,280.64 C 397.43 279.76, 397.62 279.42, 397.64 279.48 C 397.65 279.53, 398.02 280.04, 397.88 280.92 C 397.74 281.80, 396.84 282.93, 396.93 283.88 C 397.02 284.84, 397.83 285.69, 398.32 285.69 C 398.82 285.69, 399.54 284.90, 399.43 283.89 C 399.32 282.88, 398.15 281.53, 397.79 280.64" style="stroke: black; fill: black;"/><path d="M 408.71,329.37 C 407.79 330.28, 407.25 331.53, 407.01 333.81 C 406.76 336.09, 406.93 337.84, 407.48 340.78 C 408.02 343.71, 408.50 345.57, 409.74 348.47 C 410.99 351.37, 411.90 353.17, 413.70 355.29 C 415.49 357.41, 416.61 358.21, 418.73 359.08 C 420.85 359.95, 422.02 360.20, 424.28 359.63 C 426.55 359.07, 428.10 358.36, 430.06 356.27 C 432.02 354.17, 432.61 352.25, 434.09 349.17 C 435.57 346.08, 436.31 343.97, 437.47 340.85 C 438.63 337.73, 439.60 335.78, 439.88 333.58 C 440.16 331.38, 439.40 330.05, 438.87 329.85 C 438.35 329.64, 437.44 330.39, 437.26 332.55 C 437.08 334.71, 437.54 336.88, 437.98 340.65 C 438.41 344.42, 438.68 347.14, 439.42 351.40 C 440.17 355.65, 440.46 358.40, 441.72 361.92 C 442.99 365.43, 443.71 367.00, 445.75 368.97 C 447.78 370.93, 449.23 371.54, 451.91 371.74 C 454.58 371.93, 456.48 371.67, 459.12 369.94 C 461.76 368.20, 462.82 366.25, 465.10 363.06 C 467.39 359.86, 468.44 357.61, 470.55 353.97 C 472.65 350.33, 474.17 347.87, 475.63 344.83 C 477.09 341.79, 477.60 340.26, 477.84 338.77 C 478.07 337.29, 477.42 336.87, 476.82 337.41 C 476.22 337.95, 475.14 338.99, 474.84 341.48 C 474.54 343.97, 474.66 346.39, 475.31 349.85 C 475.96 353.32, 476.60 355.55, 478.09 358.79 C 479.59 362.02, 480.45 363.81, 482.77 366.03 C 485.09 368.25, 486.78 369.30, 489.69 369.87 C 492.60 370.45, 494.53 370.19, 497.33 368.91 C 500.13 367.62, 501.59 366.18, 503.70 363.45 C 505.80 360.72, 506.78 358.81, 507.85 355.26 C 508.93 351.72, 509.19 349.46, 509.09 345.73 C 508.98 342.01, 508.74 339.84, 507.33 336.62 C 505.92 333.40, 504.72 331.60, 502.03 329.62 C 499.34 327.65, 497.21 327.04, 493.88 326.73 C 490.56 326.42, 488.42 326.84, 485.40 328.07 C 482.39 329.30, 480.80 330.50, 478.81 332.89 C 476.83 335.29, 475.93 337.09, 475.47 340.04 C 475.02 342.99, 475.18 344.95, 476.54 347.65 C 477.89 350.36, 479.32 351.95, 482.26 353.56 C 485.20 355.16, 487.36 355.42, 491.25 355.68 C 495.13 355.93, 497.36 355.73, 501.71 354.85 C 506.06 353.97, 508.55 353.01, 512.99 351.27 C 517.43 349.54, 519.84 348.15, 523.90 346.17 C 527.95 344.19, 530.01 342.99, 533.27 341.38 C 536.52 339.78, 538.22 339.13, 540.18 338.15 C 542.13 337.17, 542.45 336.43, 543.03 336.48 C 543.62 336.53, 543.21 336.86, 543.10 338.42 C 543.00 339.99, 542.70 341.38, 542.51 344.32 C 542.32 347.26, 542.47 349.60, 542.16 353.12 C 541.85 356.65, 540.85 359.03, 540.97 361.95 C 541.10 364.86, 541.77 366.53, 542.79 367.68 C 543.81 368.83, 544.92 368.93, 546.08 367.70 C 547.24 366.46, 547.73 364.77, 548.57 361.49 C 549.41 358.21, 549.45 355.58, 550.27 351.29 C 551.09 347.00, 551.53 344.26, 552.67 340.03 C 553.81 335.81, 554.74 333.46, 555.99 330.16 C 557.23 326.86, 557.91 325.68, 558.91 323.54 C 559.91 321.40, 560.88 320.58, 560.98 319.47 C 561.08 318.35, 560.66 317.68, 559.41 317.96 C 558.17 318.24, 556.43 318.82, 554.75 320.88 C 553.06 322.93, 552.40 324.69, 551.00 328.23 C 549.60 331.78, 549.06 334.27, 547.73 338.60 C 546.40 342.94, 545.55 345.58, 544.35 349.90 C 543.15 354.22, 542.13 356.76, 541.72 360.22 C 541.31 363.68, 541.51 365.62, 542.29 367.20 C 543.08 368.77, 544.35 368.97, 545.66 368.08 C 546.96 367.20, 548.09 365.65, 548.82 362.76 C 549.55 359.87, 549.08 357.33, 549.30 353.64 C 549.52 349.95, 550.11 347.64, 549.91 344.31 C 549.71 340.98, 549.46 339.24, 548.31 337.00 C 547.16 334.75, 546.18 333.90, 544.16 333.09 C 542.15 332.28, 540.91 332.21, 538.25 332.94 C 535.58 333.66, 534.14 334.91, 530.84 336.71 C 527.54 338.52, 525.68 339.92, 521.77 341.95 C 517.86 343.98, 515.49 345.30, 511.30 346.87 C 507.11 348.44, 504.71 349.21, 500.81 349.80 C 496.92 350.39, 494.92 350.25, 491.83 349.81 C 488.75 349.37, 487.40 348.59, 485.39 347.60 C 483.38 346.60, 482.55 346.12, 481.78 344.85 C 481.01 343.57, 481.12 342.73, 481.53 341.21 C 481.94 339.70, 482.54 338.64, 483.83 337.27 C 485.12 335.90, 486.07 335.18, 488.00 334.38 C 489.92 333.58, 491.37 333.24, 493.46 333.28 C 495.55 333.31, 496.82 333.41, 498.44 334.57 C 500.06 335.72, 500.68 336.77, 501.56 339.03 C 502.44 341.29, 502.82 343.01, 502.85 345.86 C 502.87 348.71, 502.61 350.58, 501.69 353.28 C 500.76 355.99, 499.67 357.32, 498.21 359.37 C 496.76 361.41, 495.88 362.48, 494.41 363.51 C 492.94 364.54, 492.24 364.87, 490.85 364.52 C 489.46 364.16, 488.70 363.40, 487.45 361.73 C 486.20 360.07, 485.45 358.85, 484.60 356.19 C 483.75 353.54, 483.70 351.58, 483.20 348.47 C 482.69 345.36, 482.97 343.11, 482.09 340.64 C 481.22 338.17, 480.33 337.02, 478.80 336.13 C 477.28 335.24, 476.24 335.05, 474.47 336.17 C 472.69 337.29, 471.74 338.76, 469.93 341.74 C 468.12 344.72, 467.39 347.53, 465.43 351.07 C 463.46 354.60, 462.17 356.67, 460.12 359.41 C 458.06 362.15, 456.79 363.22, 455.15 364.77 C 453.51 366.32, 453.05 366.99, 451.93 367.16 C 450.81 367.34, 450.46 367.04, 449.54 365.64 C 448.62 364.23, 448.14 363.18, 447.32 360.14 C 446.51 357.10, 446.01 354.51, 445.46 350.45 C 444.91 346.40, 445.07 343.69, 444.58 339.85 C 444.09 336.02, 444.20 333.62, 443.02 331.27 C 441.84 328.93, 440.49 328.19, 438.69 328.12 C 436.89 328.05, 435.64 328.93, 434.03 330.92 C 432.41 332.91, 431.95 335.03, 430.61 338.05 C 429.26 341.07, 428.57 343.22, 427.31 346.01 C 426.06 348.79, 425.28 350.16, 424.32 351.99 C 423.36 353.82, 423.14 354.56, 422.51 355.14 C 421.89 355.71, 421.80 355.60, 421.20 354.87 C 420.61 354.14, 420.31 353.35, 419.53 351.50 C 418.75 349.65, 418.08 348.16, 417.29 345.63 C 416.49 343.11, 416.29 341.41, 415.55 338.87 C 414.80 336.34, 414.36 334.88, 413.57 332.96 C 412.78 331.04, 412.56 329.99, 411.59 329.27 C 410.61 328.55, 409.63 328.46, 408.71 329.37" style="stroke: black; fill: black;"/><path d="M 682.77,253.24 C 681.80 253.64, 681.08 253.87, 680.18 255.99 C 679.27 258.11, 679.02 259.62, 678.24 263.85 C 677.46 268.07, 677.20 270.93, 676.27 277.12 C 675.35 283.32, 674.78 287.22, 673.61 294.83 C 672.44 302.43, 671.67 306.99, 670.42 315.16 C 669.17 323.33, 668.39 327.87, 667.37 335.68 C 666.34 343.50, 665.80 347.64, 665.28 354.25 C 664.77 360.87, 664.40 363.92, 664.78 368.76 C 665.15 373.59, 665.29 375.67, 667.16 378.41 C 669.03 381.16, 670.87 382.15, 674.11 382.48 C 677.35 382.81, 679.36 381.85, 683.35 380.08 C 687.34 378.31, 689.59 376.56, 694.07 373.62 C 698.56 370.69, 701.11 368.53, 705.77 365.41 C 710.44 362.30, 713.03 360.41, 717.41 358.03 C 721.78 355.66, 724.15 354.71, 727.65 353.54 C 731.15 352.37, 732.75 352.21, 734.89 352.17 C 737.04 352.13, 737.48 352.18, 738.37 353.33 C 739.26 354.49, 739.02 355.64, 739.35 357.95 C 739.68 360.26, 739.79 361.96, 740.01 364.87 C 740.23 367.77, 740.01 369.75, 740.45 372.47 C 740.89 375.19, 741.33 376.69, 742.20 378.45 C 743.06 380.22, 743.88 380.70, 744.77 381.30 C 745.65 381.90, 746.17 381.60, 746.62 381.46 C 747.07 381.32, 746.89 380.90, 747.03 380.61 C 747.17 380.32, 747.07 380.67, 747.30 380.00 C 747.54 379.34, 748.02 378.95, 748.21 377.27 C 748.40 375.59, 748.40 374.27, 748.24 371.61 C 748.09 368.95, 747.94 367.07, 747.44 363.97 C 746.93 360.87, 746.87 358.92, 745.72 356.11 C 744.57 353.30, 743.83 351.73, 741.68 349.93 C 739.53 348.13, 738.09 347.26, 734.98 347.12 C 731.87 346.99, 730.03 347.79, 726.12 349.27 C 722.21 350.74, 719.96 351.95, 715.45 354.51 C 710.94 357.07, 708.31 358.98, 703.56 362.06 C 698.81 365.13, 696.15 367.17, 691.71 369.89 C 687.26 372.60, 684.83 374.06, 681.35 375.65 C 677.88 377.23, 676.46 377.74, 674.33 377.82 C 672.20 377.90, 671.93 377.93, 670.72 376.05 C 669.51 374.17, 668.80 372.74, 668.30 368.42 C 667.79 364.10, 667.86 360.92, 668.20 354.45 C 668.53 347.97, 669.01 343.79, 669.98 336.02 C 670.95 328.25, 671.73 323.71, 673.05 315.57 C 674.37 307.44, 675.18 302.88, 676.59 295.33 C 677.99 287.78, 678.69 283.89, 680.06 277.83 C 681.42 271.77, 682.31 269.08, 683.41 265.02 C 684.51 260.96, 685.24 259.73, 685.56 257.51 C 685.88 255.30, 685.57 254.82, 685.01 253.97 C 684.45 253.11, 683.73 252.83, 682.77 253.24" style="stroke: black; fill: black;"/><path d="M 741.68,300.96 C 742.63 301.17, 742.97 301.56, 742.97 301.53 C 742.98 301.50, 742.45 301.46, 741.72 300.83 C 740.99 300.20, 740.24 298.83, 739.32 298.38 C 738.40 297.93, 737.35 298.17, 737.13 298.59 C 736.91 299.00, 737.33 299.99, 738.24 300.47 C 739.15 300.94, 740.73 300.75, 741.68 300.96" style="stroke: black; fill: black;"/><path d="M 756.86,338.13 C 756.21 338.75, 756.42 339.27, 756.33 339.95 C 756.25 340.63, 756.35 340.57, 756.42 341.55 C 756.48 342.53, 756.43 343.12, 756.67 344.86 C 756.91 346.60, 757.12 347.75, 757.62 350.26 C 758.12 352.77, 758.55 354.34, 759.17 357.40 C 759.80 360.45, 759.70 362.70, 760.75 365.53 C 761.80 368.35, 762.67 369.84, 764.42 371.53 C 766.17 373.22, 767.32 373.83, 769.52 374.00 C 771.72 374.17, 773.16 373.96, 775.40 372.39 C 777.64 370.81, 778.72 369.12, 780.73 366.13 C 782.74 363.15, 783.60 360.86, 785.45 357.48 C 787.29 354.09, 788.59 351.99, 789.94 349.20 C 791.29 346.41, 791.79 344.89, 792.20 343.54 C 792.61 342.20, 792.20 341.81, 791.98 342.47 C 791.77 343.14, 791.06 344.32, 791.13 346.86 C 791.20 349.40, 791.70 351.57, 792.34 355.18 C 792.97 358.79, 793.29 361.27, 794.29 364.90 C 795.28 368.53, 795.62 370.61, 797.30 373.35 C 798.98 376.09, 800.24 377.18, 802.69 378.59 C 805.13 380.01, 806.59 380.58, 809.53 380.43 C 812.47 380.28, 814.37 379.61, 817.40 377.85 C 820.44 376.10, 821.86 374.44, 824.71 371.65 C 827.56 368.87, 828.98 367.02, 831.66 363.92 C 834.34 360.82, 836.18 358.93, 838.12 356.17 C 840.06 353.41, 840.95 351.94, 841.38 350.13 C 841.81 348.33, 841.24 347.33, 840.27 347.13 C 839.31 346.92, 837.94 347.20, 836.55 349.11 C 835.16 351.02, 834.44 353.08, 833.34 356.67 C 832.23 360.26, 831.78 362.92, 831.02 367.06 C 830.26 371.20, 829.62 373.65, 829.53 377.39 C 829.43 381.14, 829.36 383.27, 830.54 385.79 C 831.73 388.32, 833.08 389.49, 835.46 390.03 C 837.83 390.57, 839.86 390.53, 842.41 388.50 C 844.97 386.46, 845.93 384.26, 848.21 379.85 C 850.48 375.44, 851.73 372.55, 853.79 366.44 C 855.86 360.34, 856.91 356.46, 858.53 349.33 C 860.14 342.19, 860.88 337.97, 861.86 330.76 C 862.84 323.56, 863.19 319.68, 863.42 313.30 C 863.65 306.91, 863.42 303.78, 863.02 298.82 C 862.63 293.86, 862.62 291.54, 861.44 288.51 C 860.26 285.48, 859.04 284.45, 857.12 283.68 C 855.19 282.91, 853.58 283.17, 851.82 284.66 C 850.06 286.15, 849.03 287.68, 848.32 291.12 C 847.60 294.56, 847.93 296.95, 848.27 301.85 C 848.60 306.74, 849.06 309.78, 850.00 315.60 C 850.95 321.42, 851.53 324.82, 852.98 330.93 C 854.43 337.04, 855.22 340.41, 857.25 346.17 C 859.28 351.93, 860.50 355.00, 863.13 359.73 C 865.76 364.45, 867.25 366.59, 870.40 369.79 C 873.54 372.99, 875.26 374.33, 878.86 375.74 C 882.46 377.15, 884.66 377.45, 888.39 376.85 C 892.13 376.25, 894.11 375.14, 897.52 372.76 C 900.93 370.37, 902.56 368.53, 905.43 364.92 C 908.31 361.30, 909.69 358.88, 911.88 354.69 C 914.08 350.50, 915.19 347.92, 916.39 343.97 C 917.59 340.02, 918.25 337.92, 917.87 334.93 C 917.49 331.94, 916.43 330.48, 914.49 329.01 C 912.56 327.54, 910.85 327.04, 908.18 327.58 C 905.51 328.12, 903.65 329.20, 901.15 331.70 C 898.65 334.21, 897.53 336.32, 895.68 340.12 C 893.82 343.92, 892.94 346.36, 891.88 350.69 C 890.83 355.02, 890.42 357.66, 890.39 361.78 C 890.36 365.89, 890.42 368.23, 891.71 371.27 C 893.01 374.32, 894.38 375.60, 896.86 376.98 C 899.35 378.37, 901.21 378.82, 904.14 378.20 C 907.07 377.58, 908.77 376.41, 911.50 373.88 C 914.23 371.34, 915.47 369.28, 917.79 365.52 C 920.11 361.76, 921.23 359.13, 923.09 355.08 C 924.95 351.03, 926.07 348.66, 927.08 345.28 C 928.10 341.90, 928.34 340.03, 928.18 338.16 C 928.01 336.29, 927.14 335.69, 926.26 335.92 C 925.38 336.15, 924.29 337.08, 923.78 339.32 C 923.27 341.56, 923.30 343.54, 923.72 347.13 C 924.15 350.72, 924.71 353.35, 925.90 357.25 C 927.09 361.16, 927.81 363.45, 929.67 366.64 C 931.52 369.83, 932.61 371.42, 935.19 373.19 C 937.77 374.96, 939.51 375.57, 942.56 375.48 C 945.61 375.39, 947.55 374.91, 950.44 372.74 C 953.33 370.58, 954.54 368.73, 957.02 364.64 C 959.50 360.55, 960.73 357.94, 962.83 352.29 C 964.93 346.64, 965.90 343.22, 967.52 336.40 C 969.13 329.59, 969.84 325.39, 970.91 318.20 C 971.98 311.00, 972.32 306.91, 972.85 300.44 C 973.37 293.96, 973.63 290.68, 973.53 285.83 C 973.44 280.97, 973.55 278.49, 972.39 276.17 C 971.23 273.85, 969.43 273.42, 967.75 274.23 C 966.07 275.04, 964.96 276.60, 963.99 280.24 C 963.02 283.87, 963.13 286.71, 962.90 292.42 C 962.68 298.13, 962.68 302.11, 962.85 308.79 C 963.03 315.47, 963.28 319.48, 963.78 325.82 C 964.28 332.16, 964.58 335.39, 965.34 340.49 C 966.10 345.59, 966.30 347.86, 967.57 351.31 C 968.84 354.76, 969.67 356.14, 971.71 357.74 C 973.74 359.33, 975.21 359.54, 977.75 359.28 C 980.29 359.01, 981.97 358.32, 984.40 356.42 C 986.84 354.52, 987.91 352.43, 989.92 349.78 C 991.93 347.12, 993.20 345.39, 994.47 343.14 C 995.74 340.89, 995.95 339.47, 996.27 338.52 C 996.58 337.56, 996.23 337.37, 996.05 338.35 C 995.87 339.33, 995.12 340.75, 995.37 343.41 C 995.61 346.07, 996.29 348.27, 997.28 351.65 C 998.27 355.03, 998.69 357.25, 1000.32 360.32 C 1001.94 363.39, 1002.85 365.27, 1005.40 367.00 C 1007.96 368.72, 1010.00 369.45, 1013.11 368.95 C 1016.22 368.44, 1017.91 367.41, 1020.95 364.49 C 1023.99 361.56, 1025.35 359.33, 1028.29 354.30 C 1031.24 349.28, 1032.88 346.02, 1035.68 339.37 C 1038.48 332.71, 1039.98 328.48, 1042.30 321.04 C 1044.61 313.60, 1045.67 309.25, 1047.24 302.17 C 1048.82 295.10, 1049.48 291.37, 1050.16 285.67 C 1050.84 279.98, 1051.29 277.35, 1050.64 273.68 C 1049.99 270.01, 1049.01 268.49, 1046.91 267.34 C 1044.80 266.19, 1042.61 266.02, 1040.11 267.93 C 1037.61 269.84, 1036.48 272.13, 1034.41 276.89 C 1032.34 281.64, 1031.24 284.88, 1029.74 291.71 C 1028.23 298.55, 1027.46 302.97, 1026.88 311.07 C 1026.31 319.16, 1026.22 324.08, 1026.88 332.17 C 1027.53 340.26, 1028.06 344.61, 1030.16 351.53 C 1032.26 358.45, 1034.13 361.78, 1037.37 366.76 C 1040.61 371.75, 1043.20 373.80, 1046.36 376.47 C 1049.52 379.14, 1051.57 379.74, 1053.17 380.12 C 1054.76 380.50, 1055.22 379.60, 1054.32 378.35 C 1053.42 377.10, 1051.52 376.54, 1048.66 373.88 C 1045.79 371.21, 1043.17 369.64, 1039.99 365.01 C 1036.82 360.38, 1034.86 357.33, 1032.77 350.72 C 1030.68 344.11, 1030.14 339.85, 1029.53 331.96 C 1028.93 324.08, 1029.03 319.18, 1029.75 311.30 C 1030.47 303.41, 1031.39 299.04, 1033.12 292.53 C 1034.86 286.03, 1036.36 282.96, 1038.44 278.76 C 1040.52 274.56, 1042.15 273.33, 1043.54 271.53 C 1044.93 269.73, 1044.79 269.21, 1045.38 269.76 C 1045.98 270.30, 1046.20 271.14, 1046.49 274.26 C 1046.79 277.37, 1047.26 279.89, 1046.84 285.35 C 1046.42 290.81, 1045.86 294.59, 1044.40 301.56 C 1042.93 308.52, 1041.87 312.87, 1039.53 320.17 C 1037.19 327.47, 1035.62 331.66, 1032.70 338.06 C 1029.78 344.47, 1027.95 347.64, 1024.92 352.20 C 1021.89 356.76, 1020.08 358.53, 1017.53 360.85 C 1014.99 363.17, 1013.91 363.43, 1012.18 363.81 C 1010.44 364.19, 1009.97 363.98, 1008.86 362.74 C 1007.75 361.49, 1007.49 360.16, 1006.64 357.56 C 1005.79 354.96, 1005.36 352.93, 1004.62 349.73 C 1003.89 346.53, 1004.02 344.31, 1002.98 341.58 C 1001.93 338.86, 1001.14 337.46, 999.39 336.11 C 997.65 334.75, 996.49 334.37, 994.25 334.81 C 992.01 335.24, 990.31 336.18, 988.20 338.28 C 986.10 340.38, 985.50 342.71, 983.72 345.32 C 981.95 347.93, 980.76 349.39, 979.34 351.31 C 977.92 353.24, 977.59 354.28, 976.61 354.94 C 975.63 355.61, 975.39 355.68, 974.44 354.64 C 973.49 353.60, 972.95 352.69, 971.86 349.73 C 970.78 346.78, 969.95 344.70, 969.02 339.86 C 968.09 335.03, 967.71 331.77, 967.22 325.55 C 966.72 319.33, 966.50 315.31, 966.54 308.75 C 966.58 302.18, 966.88 298.22, 967.41 292.72 C 967.93 287.22, 968.78 284.62, 969.16 281.23 C 969.55 277.84, 969.43 276.57, 969.33 275.77 C 969.22 274.97, 968.56 275.19, 968.62 277.23 C 968.69 279.26, 969.44 281.35, 969.65 285.95 C 969.86 290.55, 970.02 293.86, 969.67 300.22 C 969.32 306.58, 968.97 310.67, 967.92 317.75 C 966.86 324.83, 966.11 329.00, 964.39 335.63 C 962.67 342.25, 961.57 345.60, 959.31 350.89 C 957.05 356.18, 955.55 358.61, 953.09 362.07 C 950.63 365.53, 949.17 366.58, 947.02 368.20 C 944.87 369.83, 944.04 370.09, 942.35 370.19 C 940.65 370.30, 940.04 370.00, 938.57 368.72 C 937.10 367.43, 936.28 366.38, 934.99 363.76 C 933.71 361.14, 932.90 359.11, 932.13 355.61 C 931.37 352.11, 931.56 349.59, 931.17 346.25 C 930.77 342.91, 930.96 341.08, 930.15 338.90 C 929.35 336.72, 928.44 335.75, 927.16 335.35 C 925.88 334.95, 924.91 335.28, 923.75 336.90 C 922.59 338.52, 922.48 340.24, 921.37 343.44 C 920.27 346.64, 919.88 349.09, 918.23 352.91 C 916.58 356.73, 915.32 359.24, 913.12 362.54 C 910.93 365.84, 909.37 367.36, 907.26 369.42 C 905.15 371.49, 904.18 372.18, 902.59 372.87 C 901.00 373.56, 900.38 373.62, 899.32 372.88 C 898.25 372.14, 897.96 371.39, 897.26 369.17 C 896.56 366.95, 895.85 365.20, 895.81 361.77 C 895.77 358.34, 896.02 355.79, 897.04 352.01 C 898.05 348.23, 899.07 346.00, 900.88 342.87 C 902.69 339.75, 904.25 338.45, 906.09 336.39 C 907.92 334.34, 908.85 333.48, 910.04 332.60 C 911.23 331.71, 911.59 331.43, 912.05 331.95 C 912.52 332.47, 912.50 333.08, 912.36 335.19 C 912.23 337.31, 912.33 339.05, 911.37 342.52 C 910.42 345.98, 909.54 348.62, 907.60 352.50 C 905.66 356.38, 904.27 358.68, 901.68 361.92 C 899.09 365.16, 897.48 366.68, 894.65 368.69 C 891.83 370.70, 890.38 371.42, 887.54 371.98 C 884.70 372.53, 883.32 372.48, 880.46 371.46 C 877.61 370.45, 876.09 369.61, 873.25 366.90 C 870.41 364.20, 868.84 362.31, 866.28 357.93 C 863.73 353.56, 862.45 350.59, 860.47 345.03 C 858.49 339.48, 857.70 336.15, 856.39 330.15 C 855.09 324.16, 854.57 320.75, 853.95 315.06 C 853.32 309.38, 853.15 306.31, 853.28 301.74 C 853.41 297.17, 854.21 295.12, 854.60 292.20 C 854.98 289.28, 855.01 288.32, 855.20 287.12 C 855.40 285.92, 855.26 285.61, 855.58 286.21 C 855.90 286.80, 856.07 287.49, 856.82 290.09 C 857.57 292.70, 858.64 294.62, 859.34 299.24 C 860.04 303.87, 860.39 306.99, 860.31 313.22 C 860.22 319.44, 859.90 323.29, 858.93 330.36 C 857.96 337.44, 857.21 341.64, 855.48 348.60 C 853.75 355.56, 852.58 359.39, 850.29 365.16 C 848.00 370.93, 846.43 373.69, 844.04 377.47 C 841.65 381.26, 839.93 382.29, 838.34 384.10 C 836.74 385.91, 836.61 386.49, 836.06 386.53 C 835.50 386.56, 835.65 386.05, 835.55 384.30 C 835.46 382.54, 835.27 380.93, 835.58 377.74 C 835.88 374.55, 836.16 372.13, 837.08 368.35 C 838.00 364.57, 839.09 362.24, 840.19 358.84 C 841.30 355.44, 842.42 353.70, 842.61 351.35 C 842.80 348.99, 842.14 347.85, 841.13 347.05 C 840.11 346.25, 839.15 346.30, 837.52 347.35 C 835.89 348.41, 835.01 349.74, 832.96 352.32 C 830.92 354.90, 829.77 357.25, 827.31 360.26 C 824.85 363.27, 823.31 364.96, 820.66 367.37 C 818.01 369.77, 816.42 370.80, 814.06 372.27 C 811.70 373.74, 810.59 374.32, 808.87 374.72 C 807.14 375.11, 806.63 375.12, 805.44 374.24 C 804.26 373.36, 803.93 372.49, 802.96 370.31 C 801.98 368.12, 801.29 366.58, 800.58 363.34 C 799.87 360.10, 799.87 357.69, 799.40 354.10 C 798.93 350.50, 799.25 348.14, 798.22 345.38 C 797.18 342.62, 796.06 341.29, 794.22 340.29 C 792.38 339.28, 791.04 339.25, 789.00 340.36 C 786.97 341.47, 785.90 343.03, 784.05 345.82 C 782.20 348.62, 781.60 351.06, 779.76 354.33 C 777.91 357.60, 776.59 359.52, 774.82 362.19 C 773.06 364.87, 771.99 366.13, 770.93 367.72 C 769.87 369.31, 769.92 369.97, 769.53 370.13 C 769.13 370.30, 769.19 369.89, 768.96 368.56 C 768.74 367.22, 768.78 365.98, 768.39 363.46 C 767.99 360.94, 767.47 358.90, 766.98 355.94 C 766.49 352.98, 766.40 351.23, 765.92 348.65 C 765.43 346.08, 765.14 344.95, 764.56 343.07 C 763.98 341.18, 763.68 340.37, 763.00 339.24 C 762.33 338.12, 761.89 337.90, 761.20 337.43 C 760.51 336.95, 760.42 336.72, 759.55 336.86 C 758.69 337.01, 757.50 337.52, 756.86 338.13" style="stroke: black; fill: black;"/></svg>