<svg xmlns="http://www.w3.org/2000/svg" id="canvas" viewBox="223.298 240.101 1035.432 146.918"><path d="M 250.69,263.61 C 249.52 264.96, 248.96 266.97, 247.42 271.31 C 245.88 275.66, 244.98 278.71, 243.00 285.33 C 241.02 291.95, 239.67 296.54, 237.53 304.41 C 235.38 312.28, 234.12 316.86, 232.27 324.67 C 230.42 332.48, 229.44 336.56, 228.27 343.48 C 227.09 350.40, 226.57 353.74, 226.40 359.27 C 226.22 364.81, 226.14 367.12, 227.40 371.15 C 228.65 375.19, 229.75 376.99, 232.69 379.46 C 235.63 381.92, 237.86 382.67, 242.09 383.49 C 246.33 384.31, 248.76 384.05, 253.86 383.56 C 258.96 383.08, 261.91 382.38, 267.59 381.08 C 273.26 379.78, 276.55 378.81, 282.23 377.05 C 287.92 375.30, 290.92 374.25, 296.02 372.32 C 301.13 370.39, 303.65 369.43, 307.74 367.41 C 311.84 365.39, 313.87 364.46, 316.50 362.21 C 319.14 359.96, 319.86 358.37, 320.92 356.16 C 321.97 353.96, 321.88 352.80, 321.76 351.20 C 321.64 349.59, 321.01 348.66, 320.30 348.12 C 319.59 347.58, 318.72 347.97, 318.21 348.51 C 317.71 349.05, 318.13 349.78, 317.77 350.83 C 317.40 351.88, 317.32 352.23, 316.39 353.74 C 315.45 355.25, 315.20 356.38, 313.08 358.38 C 310.96 360.38, 309.47 361.63, 305.79 363.72 C 302.11 365.82, 299.60 366.88, 294.68 368.85 C 289.75 370.83, 286.75 371.89, 281.17 373.58 C 275.59 375.28, 272.30 376.19, 266.77 377.35 C 261.23 378.51, 258.28 379.03, 253.51 379.38 C 248.74 379.73, 246.55 379.74, 242.93 379.08 C 239.31 378.42, 237.79 377.91, 235.41 376.08 C 233.02 374.26, 232.16 373.32, 231.00 369.97 C 229.84 366.62, 229.60 364.53, 229.60 359.33 C 229.61 354.12, 229.97 350.73, 231.02 343.92 C 232.08 337.12, 233.02 333.04, 234.89 325.30 C 236.75 317.55, 238.08 313.00, 240.35 305.21 C 242.61 297.41, 244.08 292.87, 246.22 286.33 C 248.35 279.80, 249.60 276.89, 251.01 272.53 C 252.43 268.17, 253.36 266.31, 253.30 264.53 C 253.24 262.74, 251.87 262.25, 250.69 263.61" style="stroke: black; fill: black;"/><path d="M 241.36,313.31 C 242.39 313.98, 243.46 314.33, 245.92 314.07 C 248.38 313.81, 249.95 313.13, 253.64 312.01 C 257.34 310.89, 259.78 309.99, 264.38 308.48 C 268.99 306.97, 271.80 306.06, 276.67 304.47 C 281.54 302.87, 284.23 301.98, 288.73 300.50 C 293.23 299.03, 295.47 298.26, 299.18 297.08 C 302.88 295.90, 304.77 295.60, 307.24 294.61 C 309.72 293.61, 310.36 293.01, 311.56 292.09 C 312.75 291.17, 312.87 290.65, 313.22 289.99 C 313.57 289.33, 313.41 289.16, 313.30 288.81 C 313.19 288.45, 312.96 288.39, 312.68 288.22 C 312.40 288.05, 312.50 287.99, 311.90 287.94 C 311.30 287.90, 311.04 287.76, 309.69 288.00 C 308.34 288.24, 307.57 288.25, 305.14 289.15 C 302.70 290.05, 301.07 291.04, 297.51 292.49 C 293.95 293.94, 291.77 294.85, 287.34 296.41 C 282.91 297.97, 280.23 298.85, 275.37 300.31 C 270.50 301.77, 267.66 302.53, 263.00 303.72 C 258.34 304.90, 255.78 305.33, 252.07 306.22 C 248.37 307.11, 246.73 307.26, 244.47 308.16 C 242.22 309.05, 241.42 309.66, 240.80 310.69 C 240.18 311.72, 240.34 312.63, 241.36 313.31" style="stroke: black; fill: black;"/><path d="M 311.02,266.29 C 311.70 267.09, 312.34 267.22, 314.08 267.65 C 315.81 268.07, 316.99 268.42, 319.69 268.43 C 322.39 268.43, 324.24 267.89, 327.57 267.67 C 330.89 267.46, 332.91 267.36, 336.33 267.36 C 339.76 267.35, 341.59 267.74, 344.68 267.65 C 347.78 267.56, 350.31 267.66, 351.80 266.91 C 353.28 266.17, 353.44 264.97, 352.11 263.92 C 350.78 262.88, 348.27 262.28, 345.16 261.69 C 342.04 261.11, 340.06 261.23, 336.53 261.01 C 333.01 260.78, 330.95 260.74, 327.53 260.57 C 324.10 260.39, 322.19 259.93, 319.41 260.13 C 316.62 260.32, 315.34 260.84, 313.59 261.54 C 311.85 262.24, 311.20 262.70, 310.69 263.65 C 310.17 264.60, 310.34 265.49, 311.02 266.29" style="stroke: black; fill: black;"/><path d="M 368.32,248.66 C 367.42 250.20, 367.33 252.26, 366.55 256.79 C 365.77 261.32, 365.47 264.47, 364.42 271.30 C 363.36 278.13, 362.56 282.83, 361.28 290.94 C 359.99 299.06, 359.24 303.84, 358.00 311.89 C 356.76 319.94, 356.04 324.24, 355.06 331.20 C 354.07 338.16, 353.49 341.54, 353.07 346.69 C 352.65 351.85, 352.54 353.98, 352.97 356.97 C 353.41 359.96, 354.48 360.78, 355.25 361.64 C 356.03 362.49, 356.53 362.25, 356.85 361.25 C 357.17 360.25, 356.93 359.50, 356.86 356.63 C 356.78 353.76, 356.28 351.91, 356.48 346.90 C 356.68 341.89, 357.02 338.49, 357.85 331.57 C 358.68 324.65, 359.38 320.33, 360.64 312.30 C 361.90 304.27, 362.72 299.51, 364.14 291.42 C 365.55 283.33, 366.49 278.66, 367.72 271.86 C 368.95 265.05, 369.62 261.94, 370.29 257.39 C 370.95 252.83, 371.44 250.83, 371.05 249.08 C 370.65 247.34, 369.22 247.12, 368.32 248.66" style="stroke: black; fill: black;"/><path d="M 400.27,243.66 C 399.40 244.49, 398.89 245.09, 398.29 248.14 C 397.69 251.19, 397.86 253.35, 397.28 258.90 C 396.69 264.44, 396.32 268.35, 395.39 275.87 C 394.45 283.38, 393.73 288.17, 392.60 296.49 C 391.47 304.80, 390.70 309.58, 389.72 317.44 C 388.74 325.30, 388.20 329.30, 387.68 335.78 C 387.16 342.25, 386.84 345.17, 387.13 349.82 C 387.43 354.47, 387.53 356.49, 389.15 359.03 C 390.78 361.57, 392.46 362.39, 395.25 362.51 C 398.04 362.63, 399.83 361.87, 403.11 359.64 C 406.38 357.40, 408.05 355.21, 411.61 351.32 C 415.16 347.44, 417.19 344.62, 420.87 340.22 C 424.56 335.82, 426.64 333.07, 430.04 329.32 C 433.44 325.57, 435.42 323.74, 437.87 321.48 C 440.32 319.21, 441.15 318.51, 442.28 318.00 C 443.41 317.49, 443.30 317.77, 443.52 318.94 C 443.75 320.10, 443.27 321.39, 443.40 323.83 C 443.53 326.28, 443.77 328.16, 444.16 331.17 C 444.56 334.19, 444.59 336.09, 445.39 338.89 C 446.18 341.70, 446.82 343.32, 448.13 345.18 C 449.45 347.05, 450.81 347.87, 451.98 348.21 C 453.14 348.55, 453.70 347.90, 453.95 346.88 C 454.20 345.86, 453.43 345.00, 453.22 343.11 C 453.01 341.22, 453.15 340.05, 452.90 337.44 C 452.65 334.83, 452.42 333.10, 451.96 330.06 C 451.49 327.03, 451.58 325.00, 450.58 322.27 C 449.58 319.53, 448.77 318.00, 446.95 316.40 C 445.12 314.80, 443.90 313.98, 441.45 314.27 C 439.00 314.56, 437.59 315.40, 434.68 317.86 C 431.77 320.31, 430.30 322.62, 426.91 326.55 C 423.51 330.49, 421.45 333.22, 417.72 337.53 C 413.98 341.85, 411.77 344.54, 408.23 348.11 C 404.69 351.68, 402.65 353.33, 400.02 355.41 C 397.38 357.48, 396.52 358.17, 395.06 358.49 C 393.60 358.80, 393.57 358.78, 392.71 356.99 C 391.85 355.20, 391.17 353.74, 390.75 349.53 C 390.33 345.33, 390.29 342.32, 390.61 335.97 C 390.93 329.62, 391.42 325.58, 392.36 317.76 C 393.30 309.94, 394.07 305.16, 395.32 296.88 C 396.57 288.59, 397.39 283.81, 398.61 276.33 C 399.82 268.85, 400.44 264.97, 401.41 259.48 C 402.37 253.98, 403.19 251.95, 403.44 248.85 C 403.69 245.75, 403.31 245.01, 402.68 243.97 C 402.04 242.93, 401.15 242.82, 400.27 243.66" style="stroke: black; fill: black;"/><path d="M 463.62,272.16 C 464.21 272.53, 464.36 272.34, 463.86 271.85 C 463.36 271.36, 461.72 270.09, 461.13 269.72 C 460.53 269.36, 460.38 269.55, 460.88 270.04 C 461.38 270.53, 463.02 271.80, 463.62 272.16" style="stroke: black; fill: black;"/><path d="M 487.17,315.00 C 486.32 316.14, 486.02 317.71, 485.86 320.42 C 485.69 323.12, 486.20 325.01, 486.35 328.53 C 486.50 332.04, 486.44 334.54, 486.63 337.98 C 486.82 341.41, 486.56 343.28, 487.29 345.70 C 488.03 348.12, 488.80 349.15, 490.31 350.07 C 491.82 350.99, 492.96 351.17, 494.86 350.30 C 496.76 349.42, 497.81 348.30, 499.81 345.69 C 501.81 343.08, 502.51 340.65, 504.84 337.25 C 507.16 333.85, 508.70 331.66, 511.44 328.69 C 514.18 325.73, 515.96 324.28, 518.53 322.43 C 521.10 320.57, 522.42 320.02, 524.31 319.43 C 526.19 318.84, 526.82 318.83, 527.97 319.47 C 529.11 320.11, 529.36 320.85, 530.03 322.63 C 530.71 324.42, 530.85 325.71, 531.35 328.39 C 531.84 331.06, 532.17 332.87, 532.49 336.00 C 532.81 339.12, 532.51 341.08, 532.95 344.00 C 533.39 346.93, 533.87 348.59, 534.71 350.64 C 535.55 352.69, 536.24 353.63, 537.16 354.27 C 538.07 354.90, 538.71 354.71, 539.30 353.81 C 539.89 352.91, 539.94 351.87, 540.11 349.77 C 540.28 347.66, 540.30 346.18, 540.15 343.28 C 540.01 340.38, 539.75 338.56, 539.39 335.27 C 539.04 331.98, 539.16 329.97, 538.37 326.83 C 537.58 323.70, 537.09 321.97, 535.44 319.60 C 533.79 317.23, 532.60 316.09, 530.12 314.99 C 527.63 313.89, 525.97 313.52, 523.01 314.11 C 520.06 314.70, 518.44 315.76, 515.34 317.93 C 512.24 320.10, 510.62 321.83, 507.53 324.95 C 504.45 328.07, 502.65 330.21, 499.91 333.53 C 497.16 336.85, 495.47 338.84, 493.81 341.55 C 492.14 344.26, 491.88 345.70, 491.57 347.08 C 491.26 348.45, 491.85 348.85, 492.27 348.44 C 492.68 348.04, 493.36 347.22, 493.64 345.06 C 493.91 342.91, 493.75 341.05, 493.64 337.67 C 493.53 334.29, 493.33 331.71, 493.09 328.15 C 492.85 324.59, 493.05 322.57, 492.45 319.89 C 491.85 317.20, 491.15 315.69, 490.09 314.71 C 489.04 313.73, 488.02 313.85, 487.17 315.00" style="stroke: black; fill: black;"/><path d="M 585.79,320.60 C 585.18 319.57, 584.26 318.52, 582.06 318.14 C 579.86 317.76, 577.89 317.49, 574.78 318.70 C 571.68 319.91, 569.73 321.39, 566.56 324.20 C 563.39 327.01, 561.53 329.13, 558.94 332.77 C 556.36 336.40, 554.87 338.66, 553.63 342.39 C 552.38 346.13, 551.97 348.37, 552.72 351.45 C 553.46 354.54, 554.78 356.16, 557.33 357.82 C 559.89 359.48, 561.99 359.91, 565.47 359.76 C 568.95 359.61, 571.08 358.74, 574.75 357.06 C 578.42 355.38, 580.49 354.07, 583.83 351.38 C 587.17 348.68, 588.93 346.87, 591.45 343.56 C 593.97 340.26, 595.11 338.32, 596.43 334.87 C 597.75 331.41, 598.16 329.46, 598.05 326.28 C 597.94 323.09, 597.22 321.39, 595.90 318.95 C 594.59 316.51, 593.35 315.35, 591.48 314.07 C 589.60 312.80, 588.14 312.67, 586.53 312.60 C 584.91 312.52, 584.05 313.03, 583.39 313.69 C 582.72 314.36, 582.83 315.17, 583.19 315.93 C 583.55 316.68, 584.25 316.84, 585.19 317.46 C 586.13 318.09, 586.80 318.19, 587.89 319.05 C 588.98 319.92, 589.84 320.31, 590.65 321.80 C 591.47 323.29, 591.87 324.28, 591.97 326.51 C 592.07 328.74, 592.12 330.18, 591.17 332.95 C 590.22 335.72, 589.36 337.52, 587.22 340.36 C 585.09 343.19, 583.44 344.86, 580.48 347.12 C 577.51 349.38, 575.51 350.40, 572.40 351.68 C 569.30 352.96, 567.46 353.17, 564.95 353.52 C 562.44 353.87, 561.27 354.03, 559.86 353.42 C 558.45 352.81, 558.10 352.30, 557.91 350.47 C 557.72 348.64, 557.82 347.16, 558.92 344.28 C 560.03 341.39, 561.13 339.11, 563.44 336.06 C 565.75 333.00, 567.64 331.07, 570.47 328.99 C 573.30 326.90, 575.23 326.62, 577.58 325.63 C 579.93 324.65, 580.71 324.53, 582.21 324.05 C 583.72 323.58, 584.40 323.96, 585.11 323.27 C 585.83 322.57, 586.39 321.62, 585.79 320.60" style="stroke: black; fill: black;"/><path d="M 620.44,325.05 C 619.51 326.02, 619.34 327.53, 618.85 329.73 C 618.36 331.92, 618.22 333.39, 617.99 336.01 C 617.75 338.62, 617.48 340.52, 617.68 342.81 C 617.88 345.09, 618.21 346.18, 618.98 347.44 C 619.76 348.70, 620.41 349.12, 621.57 349.09 C 622.74 349.07, 623.62 348.73, 624.81 347.31 C 626.00 345.88, 626.49 344.62, 627.52 341.98 C 628.55 339.35, 628.52 337.26, 629.96 334.14 C 631.40 331.02, 632.48 329.22, 634.74 326.39 C 636.99 323.57, 638.38 322.10, 641.23 320.02 C 644.08 317.94, 645.68 317.15, 648.98 316.01 C 652.27 314.86, 654.48 314.78, 657.70 314.27 C 660.92 313.77, 662.59 313.95, 665.08 313.50 C 667.56 313.05, 669.10 312.79, 670.11 312.00 C 671.13 311.22, 671.23 310.42, 670.17 309.59 C 669.11 308.76, 667.51 308.08, 664.82 307.86 C 662.13 307.65, 660.26 307.87, 656.73 308.51 C 653.19 309.15, 650.83 309.60, 647.13 311.06 C 643.43 312.52, 641.54 313.48, 638.22 315.82 C 634.90 318.16, 633.33 319.75, 630.54 322.77 C 627.75 325.78, 626.46 327.66, 624.27 330.88 C 622.08 334.09, 620.73 335.95, 619.58 338.86 C 618.43 341.77, 618.33 343.44, 618.51 345.42 C 618.68 347.41, 619.44 348.24, 620.45 348.78 C 621.45 349.32, 622.40 349.18, 623.53 348.13 C 624.66 347.07, 625.49 345.89, 626.08 343.51 C 626.67 341.13, 626.58 339.01, 626.48 336.22 C 626.38 333.43, 626.19 331.84, 625.60 329.57 C 625.00 327.30, 624.54 325.79, 623.51 324.89 C 622.48 323.98, 621.37 324.08, 620.44 325.05" style="stroke: black; fill: black;"/><path d="M 791.10,255.74 C 790.25 256.85, 790.03 258.22, 789.58 261.41 C 789.12 264.61, 789.34 266.81, 788.84 271.70 C 788.33 276.60, 787.98 279.95, 787.05 285.91 C 786.13 291.87, 785.46 295.40, 784.20 301.51 C 782.95 307.62, 782.06 310.85, 780.77 316.46 C 779.48 322.07, 778.65 324.83, 777.76 329.55 C 776.87 334.27, 776.22 336.30, 776.32 340.06 C 776.41 343.82, 776.60 345.60, 778.24 348.35 C 779.87 351.10, 781.31 352.41, 784.49 353.80 C 787.66 355.18, 789.73 355.19, 794.12 355.29 C 798.51 355.39, 801.09 355.03, 806.44 354.28 C 811.80 353.52, 815.00 352.84, 820.88 351.53 C 826.76 350.22, 830.08 349.27, 835.84 347.72 C 841.61 346.17, 844.57 345.26, 849.69 343.79 C 854.81 342.31, 857.28 341.51, 861.45 340.36 C 865.62 339.22, 867.51 338.95, 870.55 338.07 C 873.58 337.20, 874.80 336.81, 876.63 335.98 C 878.47 335.15, 879.20 334.68, 879.72 333.90 C 880.25 333.12, 880.10 332.51, 879.26 332.08 C 878.42 331.64, 877.56 331.55, 875.52 331.74 C 873.48 331.93, 872.12 332.09, 869.05 333.01 C 865.99 333.94, 864.28 334.91, 860.20 336.36 C 856.11 337.81, 853.69 338.67, 848.63 340.26 C 843.58 341.84, 840.63 342.77, 834.92 344.30 C 829.22 345.82, 825.90 346.73, 820.11 347.88 C 814.31 349.04, 811.10 349.58, 805.94 350.08 C 800.79 350.58, 798.20 350.63, 794.33 350.38 C 790.45 350.13, 788.93 349.74, 786.56 348.82 C 784.19 347.90, 783.61 347.55, 782.48 345.76 C 781.35 343.97, 781.08 342.99, 780.90 339.88 C 780.73 336.76, 780.95 334.72, 781.61 330.19 C 782.27 325.66, 782.99 322.81, 784.19 317.22 C 785.39 311.63, 786.28 308.36, 787.62 302.24 C 788.96 296.11, 789.75 292.57, 790.91 286.59 C 792.07 280.60, 792.63 277.26, 793.42 272.31 C 794.21 267.36, 794.79 265.14, 794.87 261.85 C 794.96 258.56, 794.60 257.08, 793.84 255.86 C 793.09 254.64, 791.95 254.63, 791.10 255.74" style="stroke: black; fill: black;"/><path d="M 886.02,308.71 C 885.23 309.32, 885.00 309.78, 884.56 311.50 C 884.13 313.21, 883.74 314.50, 883.86 317.27 C 883.99 320.04, 884.77 322.01, 885.17 325.35 C 885.58 328.70, 885.66 330.82, 885.89 334.01 C 886.13 337.20, 885.99 338.92, 886.36 341.31 C 886.73 343.69, 887.22 344.58, 887.75 345.94 C 888.27 347.30, 888.41 347.67, 888.98 348.11 C 889.55 348.55, 890.00 348.59, 890.59 348.15 C 891.17 347.71, 891.43 347.32, 891.93 345.90 C 892.42 344.48, 892.86 343.50, 893.04 341.05 C 893.23 338.60, 892.94 336.90, 892.84 333.65 C 892.75 330.41, 892.64 328.27, 892.57 324.84 C 892.50 321.40, 892.89 319.26, 892.49 316.46 C 892.08 313.65, 891.35 312.44, 890.55 310.83 C 889.74 309.22, 889.39 308.84, 888.48 308.42 C 887.58 307.99, 886.80 308.09, 886.02 308.71" style="stroke: black; fill: black;"/><path d="M 894.35,281.98 C 895.43 282.08, 896.13 281.75, 896.18 281.76 C 896.23 281.78, 895.10 282.11, 894.61 282.05 C 894.13 281.99, 893.93 282.15, 893.74 281.45 C 893.56 280.74, 894.14 279.24, 893.69 278.55 C 893.24 277.85, 892.38 277.73, 891.50 277.96 C 890.63 278.19, 889.46 279.04, 889.32 279.70 C 889.18 280.36, 889.78 280.81, 890.79 281.27 C 891.80 281.73, 893.28 281.89, 894.35 281.98" style="stroke: black; fill: black;"/><path d="M 915.53,319.25 C 914.70 320.22, 914.66 321.51, 914.38 323.55 C 914.11 325.60, 914.04 327.02, 914.17 329.48 C 914.29 331.94, 914.30 333.67, 914.99 335.86 C 915.68 338.04, 916.29 339.12, 917.60 340.41 C 918.91 341.69, 919.76 342.19, 921.53 342.28 C 923.30 342.37, 924.48 342.19, 926.45 340.85 C 928.41 339.52, 929.30 338.06, 931.35 335.59 C 933.41 333.12, 934.39 331.10, 936.75 328.50 C 939.10 325.91, 940.70 324.43, 943.11 322.62 C 945.53 320.80, 946.90 320.15, 948.82 319.43 C 950.74 318.70, 951.43 318.54, 952.72 319.01 C 954.02 319.48, 954.40 320.18, 955.30 321.77 C 956.19 323.36, 956.39 324.61, 957.18 326.97 C 957.97 329.34, 958.27 330.93, 959.24 333.59 C 960.20 336.24, 960.75 337.90, 962.01 340.24 C 963.27 342.57, 964.09 343.76, 965.54 345.26 C 966.98 346.76, 967.93 347.23, 969.23 347.74 C 970.53 348.26, 971.30 348.15, 972.03 347.82 C 972.75 347.49, 972.87 346.78, 972.86 346.09 C 972.84 345.41, 972.39 345.28, 971.93 344.39 C 971.48 343.49, 971.27 343.05, 970.60 341.61 C 969.93 340.18, 969.37 339.32, 968.56 337.20 C 967.75 335.07, 967.46 333.61, 966.56 331.00 C 965.66 328.38, 965.35 326.72, 964.07 324.11 C 962.80 321.50, 962.11 319.95, 960.18 317.94 C 958.25 315.93, 957.01 314.91, 954.41 314.05 C 951.81 313.20, 950.15 312.97, 947.17 313.65 C 944.18 314.34, 942.50 315.44, 939.48 317.47 C 936.45 319.51, 934.87 321.22, 932.05 323.82 C 929.23 326.42, 927.53 328.03, 925.37 330.45 C 923.22 332.88, 922.24 334.23, 921.29 335.97 C 920.34 337.71, 920.52 338.59, 920.62 339.16 C 920.73 339.73, 921.31 339.67, 921.81 338.82 C 922.31 337.96, 922.94 336.92, 923.11 334.87 C 923.29 332.82, 923.09 331.03, 922.69 328.57 C 922.29 326.12, 921.95 324.58, 921.11 322.61 C 920.28 320.64, 919.62 319.39, 918.50 318.72 C 917.38 318.05, 916.35 318.28, 915.53 319.25" style="stroke: black; fill: black;"/><path d="M 1027.32,325.13 C 1027.35 324.06, 1027.05 323.14, 1025.77 321.99 C 1024.50 320.84, 1023.42 320.00, 1020.95 319.39 C 1018.48 318.78, 1016.64 318.38, 1013.43 318.96 C 1010.22 319.53, 1008.25 320.48, 1004.89 322.25 C 1001.53 324.02, 999.67 325.33, 996.62 327.80 C 993.58 330.26, 991.82 331.72, 989.65 334.58 C 987.48 337.43, 986.33 339.22, 985.78 342.08 C 985.23 344.94, 985.61 346.75, 986.89 348.88 C 988.17 351.00, 989.54 352.07, 992.17 352.70 C 994.80 353.33, 996.71 353.26, 1000.02 352.03 C 1003.33 350.81, 1005.14 349.46, 1008.72 346.57 C 1012.30 343.68, 1014.22 341.81, 1017.92 337.58 C 1021.62 333.35, 1023.60 330.78, 1027.22 325.42 C 1030.85 320.07, 1032.76 316.89, 1036.05 310.82 C 1039.34 304.75, 1040.93 301.15, 1043.65 295.09 C 1046.37 289.04, 1047.65 285.71, 1049.65 280.53 C 1051.66 275.35, 1052.84 272.91, 1053.67 269.21 C 1054.49 265.51, 1054.54 263.67, 1053.80 262.04 C 1053.06 260.42, 1051.49 259.97, 1049.97 261.07 C 1048.44 262.16, 1047.42 263.77, 1046.17 267.51 C 1044.92 271.24, 1044.62 274.19, 1043.71 279.74 C 1042.79 285.29, 1042.27 288.98, 1041.59 295.27 C 1040.92 301.56, 1040.50 305.20, 1040.33 311.19 C 1040.16 317.17, 1040.17 320.18, 1040.75 325.20 C 1041.34 330.23, 1041.80 332.52, 1043.26 336.29 C 1044.72 340.06, 1045.93 341.79, 1048.05 344.04 C 1050.17 346.29, 1051.78 346.82, 1053.84 347.54 C 1055.91 348.26, 1057.35 348.06, 1058.38 347.65 C 1059.41 347.24, 1059.49 346.33, 1059.01 345.48 C 1058.53 344.63, 1057.37 344.48, 1056.00 343.41 C 1054.62 342.34, 1053.88 341.91, 1052.15 340.13 C 1050.42 338.35, 1048.87 337.59, 1047.34 334.51 C 1045.81 331.43, 1045.20 329.35, 1044.51 324.71 C 1043.82 320.07, 1043.72 317.08, 1043.89 311.29 C 1044.06 305.49, 1044.45 301.86, 1045.34 295.74 C 1046.23 289.62, 1047.06 285.99, 1048.33 280.66 C 1049.59 275.34, 1050.77 272.72, 1051.66 269.11 C 1052.55 265.50, 1052.90 264.03, 1052.77 262.63 C 1052.64 261.22, 1051.71 260.97, 1050.99 262.07 C 1050.27 263.16, 1050.11 264.65, 1049.18 268.10 C 1048.24 271.56, 1048.00 274.19, 1046.31 279.34 C 1044.63 284.48, 1043.36 287.82, 1040.76 293.82 C 1038.16 299.81, 1036.56 303.38, 1033.30 309.32 C 1030.03 315.25, 1028.09 318.37, 1024.42 323.47 C 1020.76 328.58, 1018.71 331.05, 1014.97 334.85 C 1011.23 338.64, 1009.17 340.23, 1005.73 342.46 C 1002.29 344.69, 1000.35 345.01, 997.76 345.98 C 995.18 346.95, 994.21 347.16, 992.80 347.32 C 991.40 347.48, 991.01 347.49, 990.74 346.77 C 990.46 346.06, 990.65 345.40, 991.43 343.73 C 992.20 342.07, 992.82 340.69, 994.62 338.45 C 996.42 336.21, 997.80 334.60, 1000.42 332.55 C 1003.03 330.50, 1004.85 329.33, 1007.68 328.19 C 1010.52 327.04, 1012.19 327.06, 1014.58 326.81 C 1016.97 326.56, 1017.93 326.82, 1019.63 326.94 C 1021.33 327.06, 1021.88 327.32, 1023.08 327.40 C 1024.28 327.49, 1024.79 327.82, 1025.63 327.37 C 1026.48 326.91, 1027.30 326.21, 1027.32 325.13" style="stroke: black; fill: black;"/><path d="M 1101.39,321.32 C 1101.13 320.32, 1100.61 319.62, 1099.14 318.92 C 1097.67 318.21, 1096.52 317.70, 1094.04 317.80 C 1091.56 317.89, 1089.69 318.04, 1086.76 319.38 C 1083.83 320.71, 1082.19 322.16, 1079.37 324.48 C 1076.56 326.80, 1074.90 328.21, 1072.69 330.96 C 1070.47 333.70, 1069.19 335.35, 1068.31 338.21 C 1067.43 341.06, 1067.43 342.88, 1068.30 345.23 C 1069.17 347.57, 1070.32 348.79, 1072.67 349.92 C 1075.01 351.05, 1076.87 351.41, 1080.02 350.87 C 1083.17 350.34, 1084.99 349.10, 1088.43 347.25 C 1091.86 345.40, 1093.87 343.96, 1097.19 341.62 C 1100.52 339.28, 1102.50 337.72, 1105.06 335.55 C 1107.62 333.38, 1108.84 332.13, 1109.99 330.77 C 1111.13 329.41, 1110.95 328.74, 1110.78 328.75 C 1110.61 328.76, 1109.76 329.29, 1109.15 330.82 C 1108.53 332.35, 1107.72 333.92, 1107.68 336.40 C 1107.65 338.89, 1107.92 340.80, 1108.97 343.26 C 1110.02 345.72, 1110.94 347.11, 1112.92 348.71 C 1114.90 350.30, 1116.22 351.01, 1118.86 351.25 C 1121.50 351.49, 1123.23 351.41, 1126.14 349.92 C 1129.05 348.43, 1130.44 346.88, 1133.42 343.78 C 1136.40 340.68, 1137.96 338.73, 1141.04 334.42 C 1144.11 330.11, 1145.80 327.48, 1148.77 322.23 C 1151.75 316.98, 1153.31 313.86, 1155.92 308.17 C 1158.53 302.49, 1159.83 299.27, 1161.84 293.79 C 1163.85 288.31, 1164.69 285.42, 1165.97 280.77 C 1167.26 276.11, 1168.04 273.91, 1168.28 270.53 C 1168.51 267.14, 1168.25 265.55, 1167.13 263.83 C 1166.02 262.10, 1164.62 261.43, 1162.71 261.89 C 1160.81 262.35, 1159.23 263.25, 1157.61 266.14 C 1155.99 269.02, 1155.83 271.58, 1154.61 276.33 C 1153.39 281.08, 1152.66 284.23, 1151.52 289.88 C 1150.38 295.53, 1149.76 298.99, 1148.91 304.59 C 1148.06 310.19, 1147.73 313.19, 1147.26 317.88 C 1146.79 322.57, 1146.32 324.67, 1146.57 328.05 C 1146.83 331.43, 1147.27 332.80, 1148.52 334.78 C 1149.78 336.76, 1150.85 337.37, 1152.86 337.96 C 1154.88 338.55, 1156.19 338.45, 1158.59 337.73 C 1160.99 337.01, 1162.39 336.06, 1164.85 334.36 C 1167.31 332.66, 1168.55 331.08, 1170.92 329.21 C 1173.28 327.34, 1174.76 326.31, 1176.69 325.01 C 1178.61 323.71, 1179.35 322.97, 1180.53 322.69 C 1181.71 322.41, 1181.99 322.67, 1182.60 323.60 C 1183.22 324.53, 1183.21 325.45, 1183.60 327.35 C 1183.98 329.24, 1183.96 330.69, 1184.53 333.10 C 1185.11 335.51, 1185.46 337.05, 1186.48 339.41 C 1187.51 341.77, 1188.08 343.07, 1189.67 344.90 C 1191.25 346.73, 1192.19 347.64, 1194.42 348.55 C 1196.64 349.46, 1198.04 349.88, 1200.78 349.47 C 1203.53 349.05, 1205.11 348.43, 1208.14 346.47 C 1211.16 344.51, 1212.63 342.99, 1215.91 339.67 C 1219.19 336.36, 1221.01 334.31, 1224.54 329.90 C 1228.07 325.49, 1230.08 322.84, 1233.55 317.61 C 1237.02 312.39, 1238.84 309.32, 1241.89 303.76 C 1244.95 298.19, 1246.46 295.10, 1248.81 289.78 C 1251.15 284.45, 1252.23 281.74, 1253.62 277.12 C 1255.00 272.51, 1255.64 270.30, 1255.72 266.70 C 1255.80 263.09, 1255.45 261.36, 1254.01 259.10 C 1252.56 256.84, 1251.14 255.82, 1248.48 255.38 C 1245.82 254.95, 1243.73 255.13, 1240.69 256.92 C 1237.65 258.72, 1236.14 260.57, 1233.27 264.34 C 1230.39 268.11, 1228.81 270.64, 1226.31 275.76 C 1223.81 280.89, 1222.41 284.06, 1220.76 289.96 C 1219.12 295.87, 1218.42 299.28, 1218.07 305.29 C 1217.71 311.29, 1217.85 314.52, 1219.00 319.99 C 1220.15 325.46, 1221.11 328.16, 1223.80 332.64 C 1226.50 337.12, 1228.90 339.17, 1232.46 342.38 C 1236.02 345.60, 1238.31 347.00, 1241.62 348.71 C 1244.93 350.42, 1247.32 350.95, 1249.00 350.93 C 1250.69 350.92, 1251.06 349.84, 1250.03 348.63 C 1248.99 347.41, 1246.80 346.72, 1243.83 344.84 C 1240.87 342.95, 1238.59 342.05, 1235.22 339.22 C 1231.84 336.39, 1229.51 334.68, 1226.95 330.69 C 1224.39 326.70, 1223.49 324.31, 1222.40 319.27 C 1221.32 314.23, 1221.15 311.16, 1221.52 305.50 C 1221.89 299.84, 1222.56 296.55, 1224.25 290.98 C 1225.94 285.41, 1227.39 282.35, 1229.97 277.66 C 1232.55 272.97, 1234.37 270.66, 1237.16 267.54 C 1239.95 264.42, 1241.73 263.59, 1243.93 262.07 C 1246.14 260.55, 1246.92 260.13, 1248.17 259.96 C 1249.43 259.78, 1249.66 259.89, 1250.19 261.21 C 1250.73 262.54, 1250.94 263.60, 1250.86 266.58 C 1250.78 269.56, 1250.85 271.73, 1249.80 276.09 C 1248.75 280.46, 1247.78 283.20, 1245.62 288.41 C 1243.45 293.62, 1241.96 296.70, 1238.96 302.15 C 1235.97 307.59, 1234.14 310.61, 1230.64 315.64 C 1227.15 320.67, 1225.09 323.24, 1221.47 327.31 C 1217.85 331.39, 1215.88 333.28, 1212.57 336.04 C 1209.25 338.79, 1207.48 339.62, 1204.87 341.08 C 1202.26 342.53, 1201.20 342.80, 1199.51 343.30 C 1197.82 343.80, 1197.40 343.95, 1196.44 343.57 C 1195.48 343.19, 1195.30 342.72, 1194.71 341.41 C 1194.12 340.10, 1193.98 339.06, 1193.49 337.00 C 1192.99 334.94, 1192.91 333.55, 1192.24 331.12 C 1191.57 328.69, 1191.35 327.11, 1190.15 324.85 C 1188.95 322.58, 1188.16 321.27, 1186.22 319.78 C 1184.28 318.29, 1183.02 317.63, 1180.45 317.41 C 1177.89 317.18, 1176.21 317.52, 1173.40 318.65 C 1170.60 319.79, 1169.12 321.26, 1166.43 323.10 C 1163.75 324.95, 1162.13 326.07, 1159.95 327.86 C 1157.78 329.66, 1156.86 330.81, 1155.56 332.06 C 1154.27 333.32, 1154.12 333.98, 1153.48 334.14 C 1152.85 334.30, 1152.74 334.16, 1152.38 332.87 C 1152.02 331.58, 1151.86 330.63, 1151.67 327.70 C 1151.48 324.76, 1151.23 322.70, 1151.45 318.20 C 1151.68 313.70, 1151.95 310.66, 1152.79 305.19 C 1153.63 299.71, 1154.29 296.28, 1155.66 290.81 C 1157.02 285.35, 1158.06 282.25, 1159.63 277.86 C 1161.19 273.46, 1162.56 271.53, 1163.50 268.84 C 1164.44 266.15, 1164.26 265.20, 1164.32 264.41 C 1164.38 263.61, 1164.03 263.72, 1163.80 264.86 C 1163.57 265.99, 1163.51 267.07, 1163.16 270.07 C 1162.82 273.06, 1163.01 275.32, 1162.08 279.83 C 1161.15 284.33, 1160.37 287.23, 1158.52 292.61 C 1156.66 297.99, 1155.38 301.17, 1152.79 306.72 C 1150.20 312.27, 1148.62 315.34, 1145.58 320.36 C 1142.54 325.37, 1140.76 327.91, 1137.59 331.80 C 1134.41 335.69, 1132.64 337.40, 1129.72 339.82 C 1126.79 342.23, 1125.10 342.70, 1122.95 343.87 C 1120.80 345.05, 1120.16 345.51, 1118.95 345.69 C 1117.74 345.87, 1117.38 345.65, 1116.91 344.77 C 1116.45 343.88, 1116.66 343.05, 1116.61 341.28 C 1116.56 339.50, 1116.96 338.08, 1116.65 335.88 C 1116.34 333.68, 1115.99 332.14, 1115.06 330.28 C 1114.13 328.42, 1113.58 327.37, 1112.00 326.59 C 1110.41 325.80, 1109.31 325.55, 1107.12 326.36 C 1104.93 327.16, 1103.71 328.53, 1101.04 330.61 C 1098.37 332.69, 1096.87 334.59, 1093.78 336.77 C 1090.68 338.95, 1088.63 340.11, 1085.56 341.52 C 1082.48 342.94, 1080.68 343.13, 1078.41 343.83 C 1076.13 344.54, 1075.32 345.02, 1074.19 345.06 C 1073.07 345.10, 1072.77 344.91, 1072.78 344.04 C 1072.80 343.16, 1073.25 342.42, 1074.28 340.68 C 1075.30 338.94, 1076.03 337.46, 1077.90 335.34 C 1079.78 333.21, 1081.21 331.75, 1083.63 330.07 C 1086.06 328.39, 1087.75 327.86, 1090.03 326.94 C 1092.31 326.02, 1093.39 325.91, 1095.04 325.47 C 1096.68 325.02, 1097.16 325.03, 1098.24 324.72 C 1099.32 324.42, 1099.82 324.61, 1100.45 323.93 C 1101.08 323.25, 1101.65 322.33, 1101.39 321.32" style="stroke: black; fill: black;"/></svg>