<svg xmlns="http://www.w3.org/2000/svg" id="canvas" viewBox="221.245 235.660 927.128 147.249"><path d="M 242.92,250.78 C 242.17 251.60, 241.49 252.61, 240.45 255.35 C 239.41 258.09, 238.96 259.99, 237.70 264.49 C 236.44 268.99, 235.58 271.89, 234.16 277.86 C 232.74 283.82, 231.93 287.32, 230.60 294.31 C 229.26 301.29, 228.53 305.30, 227.48 312.79 C 226.44 320.28, 225.88 324.43, 225.36 331.76 C 224.84 339.09, 224.57 343.00, 224.87 349.42 C 225.17 355.84, 225.42 358.93, 226.84 363.85 C 228.26 368.78, 229.26 370.96, 231.96 374.04 C 234.66 377.12, 236.48 378.21, 240.34 379.23 C 244.19 380.26, 246.65 380.02, 251.23 379.16 C 255.82 378.31, 258.51 377.18, 263.27 374.98 C 268.02 372.78, 270.67 371.10, 275.02 368.16 C 279.38 365.23, 281.60 363.36, 285.04 360.31 C 288.48 357.26, 290.21 355.70, 292.22 352.91 C 294.24 350.12, 294.58 348.60, 295.10 346.37 C 295.62 344.15, 295.21 343.20, 294.83 341.79 C 294.44 340.38, 293.70 339.73, 293.18 339.33 C 292.66 338.92, 292.29 339.22, 292.23 339.78 C 292.17 340.34, 292.81 340.95, 292.88 342.13 C 292.96 343.32, 293.18 343.86, 292.62 345.71 C 292.06 347.56, 291.90 348.80, 290.08 351.39 C 288.27 353.98, 286.79 355.65, 283.54 358.66 C 280.30 361.67, 278.08 363.56, 273.85 366.44 C 269.62 369.32, 266.99 370.94, 262.38 373.06 C 257.78 375.18, 255.13 376.21, 250.83 377.03 C 246.53 377.85, 244.35 378.02, 240.87 377.17 C 237.39 376.31, 235.90 375.50, 233.43 372.74 C 230.96 369.98, 229.90 368.05, 228.50 363.37 C 227.09 358.69, 226.73 355.64, 226.39 349.34 C 226.05 343.04, 226.27 339.13, 226.78 331.86 C 227.28 324.59, 227.83 320.44, 228.90 312.99 C 229.98 305.54, 230.72 301.55, 232.15 294.62 C 233.57 287.68, 234.45 284.21, 236.03 278.33 C 237.60 272.44, 238.60 269.60, 240.04 265.20 C 241.48 260.79, 242.40 259.08, 243.23 256.29 C 244.06 253.50, 244.26 252.34, 244.20 251.24 C 244.14 250.14, 243.67 249.96, 242.92 250.78" style="stroke: black; fill: black;"/><path d="M 224.87,318.73 C 225.60 318.97, 226.29 319.12, 228.17 318.69 C 230.05 318.26, 231.28 317.87, 234.29 316.58 C 237.30 315.28, 239.24 314.20, 243.21 312.22 C 247.17 310.24, 249.68 309.06, 254.11 306.70 C 258.55 304.34, 261.01 302.98, 265.37 300.43 C 269.74 297.87, 272.04 296.44, 275.95 293.93 C 279.87 291.42, 281.81 290.16, 284.95 287.87 C 288.09 285.58, 289.63 284.57, 291.66 282.49 C 293.69 280.40, 294.24 279.13, 295.10 277.45 C 295.96 275.77, 295.96 274.86, 295.95 274.11 C 295.94 273.36, 295.61 273.28, 295.07 273.71 C 294.52 274.13, 294.34 274.89, 293.23 276.22 C 292.12 277.55, 291.46 278.42, 289.51 280.36 C 287.55 282.30, 286.42 283.58, 283.47 285.93 C 280.52 288.28, 278.60 289.57, 274.77 292.11 C 270.93 294.64, 268.65 296.08, 264.31 298.59 C 259.97 301.11, 257.52 302.44, 253.06 304.66 C 248.61 306.88, 246.07 307.97, 242.04 309.70 C 238.01 311.43, 235.87 312.06, 232.90 313.30 C 229.93 314.55, 228.85 315.07, 227.18 315.91 C 225.51 316.74, 225.00 316.91, 224.54 317.48 C 224.07 318.04, 224.15 318.48, 224.87 318.73" style="stroke: black; fill: black;"/><path d="M 264.04,260.00 C 264.14 260.47, 264.18 260.60, 265.06 261.31 C 265.94 262.03, 266.43 263.35, 268.43 263.59 C 270.44 263.83, 273.73 263.33, 275.08 262.51 C 276.42 261.68, 276.37 260.33, 275.14 259.45 C 273.92 258.56, 270.82 258.21, 268.95 258.08 C 267.09 257.96, 266.71 258.63, 265.82 258.81 C 264.94 258.99, 264.90 258.74, 264.54 258.98 C 264.19 259.22, 263.93 259.53, 264.04 260.00" style="stroke: black; fill: black;"/><path d="M 316.00,239.21 C 315.45 240.02, 314.96 240.74, 314.54 243.43 C 314.11 246.13, 314.22 247.85, 313.86 252.68 C 313.50 257.51, 313.25 260.63, 312.73 267.57 C 312.20 274.51, 311.81 278.82, 311.25 287.37 C 310.70 295.92, 310.36 301.09, 309.97 310.32 C 309.59 319.55, 309.37 324.87, 309.33 333.52 C 309.28 342.18, 309.28 346.81, 309.73 353.61 C 310.18 360.42, 310.34 363.61, 311.55 367.55 C 312.77 371.49, 313.75 372.85, 315.79 373.31 C 317.82 373.78, 319.32 372.92, 321.74 369.88 C 324.15 366.83, 325.30 364.08, 327.86 358.08 C 330.43 352.09, 331.92 347.94, 334.57 339.89 C 337.22 331.85, 338.68 326.82, 341.13 317.84 C 343.58 308.87, 344.82 303.65, 346.81 295.01 C 348.81 286.37, 349.73 281.75, 351.10 274.65 C 352.47 267.56, 353.14 264.25, 353.67 259.53 C 354.21 254.81, 354.36 252.83, 353.77 251.05 C 353.19 249.26, 351.98 249.03, 350.75 250.61 C 349.51 252.19, 348.75 254.18, 347.59 258.94 C 346.43 263.71, 345.82 267.25, 344.96 274.43 C 344.10 281.61, 343.61 286.35, 343.27 294.85 C 342.92 303.35, 342.88 308.48, 343.23 316.91 C 343.59 325.35, 343.91 329.93, 345.04 337.05 C 346.17 344.17, 346.94 347.59, 348.89 352.52 C 350.83 357.46, 352.01 359.48, 354.77 361.72 C 357.53 363.96, 359.37 364.36, 362.68 363.72 C 365.99 363.09, 367.87 361.70, 371.32 358.55 C 374.76 355.39, 376.58 352.73, 379.90 347.95 C 383.22 343.16, 385.00 339.58, 387.91 334.61 C 390.83 329.64, 392.47 326.55, 394.49 323.10 C 396.52 319.65, 397.22 318.18, 398.04 317.35 C 398.86 316.52, 398.47 316.99, 398.61 318.96 C 398.75 320.93, 398.59 323.15, 398.74 327.19 C 398.90 331.23, 398.90 334.49, 399.38 339.15 C 399.86 343.82, 400.09 346.63, 401.13 350.53 C 402.17 354.42, 402.73 356.31, 404.57 358.62 C 406.41 360.93, 407.79 361.85, 410.35 362.07 C 412.91 362.29, 414.57 361.70, 417.37 359.71 C 420.17 357.71, 421.57 355.81, 424.35 352.09 C 427.12 348.38, 428.56 345.76, 431.23 341.13 C 433.90 336.50, 435.33 333.45, 437.69 328.93 C 440.04 324.41, 441.37 321.72, 443.00 318.52 C 444.62 315.32, 445.16 313.88, 445.81 312.95 C 446.46 312.02, 446.17 312.32, 446.26 313.88 C 446.35 315.44, 446.19 317.26, 446.26 320.78 C 446.33 324.29, 446.39 327.10, 446.62 331.45 C 446.85 335.80, 446.89 338.65, 447.42 342.53 C 447.96 346.42, 448.13 348.48, 449.30 350.89 C 450.46 353.30, 451.39 354.12, 453.25 354.57 C 455.12 355.02, 456.46 354.81, 458.63 353.14 C 460.79 351.48, 461.86 349.60, 464.09 346.23 C 466.33 342.86, 467.54 340.32, 469.79 336.29 C 472.04 332.27, 473.41 329.52, 475.34 326.11 C 477.26 322.70, 478.30 320.94, 479.42 319.24 C 480.55 317.54, 480.63 317.08, 480.96 317.60 C 481.30 318.12, 480.96 319.29, 481.08 321.84 C 481.21 324.40, 481.27 326.67, 481.60 330.38 C 481.94 334.08, 482.03 336.66, 482.75 340.37 C 483.46 344.09, 483.73 346.23, 485.20 348.94 C 486.66 351.65, 487.72 352.84, 490.08 353.91 C 492.43 354.97, 494.07 355.23, 496.97 354.26 C 499.88 353.30, 501.49 351.88, 504.58 349.07 C 507.67 346.27, 509.36 344.13, 512.42 340.25 C 515.49 336.36, 517.18 333.75, 519.89 329.64 C 522.60 325.53, 524.28 322.93, 525.98 319.70 C 527.68 316.48, 528.25 314.82, 528.42 313.53 C 528.58 312.23, 527.78 312.07, 526.79 313.23 C 525.80 314.39, 524.72 315.97, 523.47 319.31 C 522.22 322.65, 521.43 325.50, 520.53 329.93 C 519.64 334.36, 519.16 337.25, 519.00 341.46 C 518.83 345.67, 518.75 347.94, 519.71 350.97 C 520.67 354.00, 521.69 355.37, 523.78 356.63 C 525.86 357.89, 527.54 358.14, 530.14 357.27 C 532.73 356.40, 534.33 355.14, 536.74 352.28 C 539.16 349.41, 540.38 347.17, 542.19 342.95 C 544.00 338.74, 544.94 335.96, 545.81 331.20 C 546.69 326.45, 546.91 323.59, 546.56 319.16 C 546.21 314.73, 545.65 312.36, 544.07 309.07 C 542.49 305.78, 541.12 304.30, 538.66 302.70 C 536.20 301.10, 534.30 300.92, 531.76 301.07 C 529.21 301.21, 527.68 301.92, 525.94 303.43 C 524.20 304.94, 523.34 306.45, 523.05 308.61 C 522.77 310.76, 523.08 312.33, 524.50 314.20 C 525.92 316.08, 527.29 317.16, 530.16 317.99 C 533.03 318.81, 535.05 318.71, 538.86 318.32 C 542.67 317.92, 544.99 317.23, 549.21 316.01 C 553.44 314.78, 555.88 313.63, 559.97 312.18 C 564.06 310.73, 566.31 309.69, 569.67 308.75 C 573.03 307.81, 574.59 307.34, 576.78 307.50 C 578.96 307.65, 579.57 307.88, 580.62 309.54 C 581.67 311.19, 581.77 312.57, 582.01 315.78 C 582.26 318.99, 582.13 321.36, 581.83 325.58 C 581.52 329.81, 581.11 332.61, 580.50 336.90 C 579.90 341.19, 579.06 343.82, 578.78 347.03 C 578.50 350.25, 578.59 351.84, 579.11 352.97 C 579.62 354.10, 580.39 354.00, 581.37 352.67 C 582.34 351.34, 582.89 349.69, 583.98 346.30 C 585.07 342.91, 585.51 340.14, 586.82 335.71 C 588.14 331.27, 588.97 328.35, 590.55 324.11 C 592.12 319.87, 593.07 317.61, 594.70 314.50 C 596.33 311.39, 597.17 310.24, 598.69 308.56 C 600.21 306.88, 600.82 306.54, 602.29 306.08 C 603.76 305.63, 604.33 305.91, 606.04 306.28 C 607.75 306.66, 608.62 307.34, 610.83 307.94 C 613.05 308.54, 614.43 309.14, 617.14 309.31 C 619.85 309.47, 621.71 309.30, 624.38 308.77 C 627.05 308.25, 628.51 307.64, 630.50 306.68 C 632.48 305.72, 633.67 304.75, 634.32 303.96 C 634.98 303.17, 634.74 302.79, 633.77 302.73 C 632.79 302.68, 631.47 303.27, 629.46 303.70 C 627.45 304.13, 626.15 304.55, 623.72 304.88 C 621.30 305.22, 619.75 305.47, 617.33 305.37 C 614.92 305.28, 613.82 304.82, 611.64 304.42 C 609.46 304.02, 608.45 303.50, 606.43 303.38 C 604.41 303.25, 603.48 303.12, 601.54 303.79 C 599.60 304.45, 598.55 304.81, 596.71 306.71 C 594.88 308.61, 594.06 309.98, 592.35 313.28 C 590.64 316.58, 589.83 318.90, 588.16 323.20 C 586.49 327.51, 585.49 330.39, 584.01 334.82 C 582.53 339.25, 581.65 341.93, 580.76 345.37 C 579.88 348.80, 579.64 350.49, 579.57 352.01 C 579.49 353.52, 579.90 353.85, 580.37 352.94 C 580.85 352.03, 581.37 350.59, 581.95 347.46 C 582.52 344.32, 582.71 341.59, 583.24 337.26 C 583.77 332.93, 584.25 330.14, 584.59 325.79 C 584.94 321.44, 585.34 319.04, 584.95 315.51 C 584.56 311.97, 584.24 310.24, 582.66 308.12 C 581.08 306.00, 579.81 305.31, 577.07 304.91 C 574.33 304.51, 572.54 305.15, 568.95 306.12 C 565.36 307.10, 563.20 308.30, 559.11 309.77 C 555.02 311.23, 552.60 312.33, 548.49 313.43 C 544.39 314.53, 542.08 315.04, 538.60 315.27 C 535.11 315.50, 533.44 315.18, 531.08 314.59 C 528.71 314.00, 527.82 313.44, 526.78 312.33 C 525.74 311.22, 525.68 310.35, 525.90 309.02 C 526.12 307.69, 526.67 306.71, 527.87 305.68 C 529.08 304.66, 530.08 304.02, 531.93 303.90 C 533.78 303.78, 535.16 303.82, 537.13 305.08 C 539.09 306.34, 540.33 307.35, 541.75 310.20 C 543.16 313.06, 543.85 315.24, 544.19 319.35 C 544.54 323.47, 544.35 326.25, 543.47 330.76 C 542.60 335.27, 541.60 337.97, 539.80 341.89 C 538.00 345.81, 536.60 347.80, 534.46 350.37 C 532.33 352.93, 531.04 353.83, 529.14 354.70 C 527.25 355.57, 526.31 355.63, 524.98 354.72 C 523.65 353.82, 523.12 352.81, 522.48 350.19 C 521.84 347.56, 521.54 345.51, 521.78 341.60 C 522.01 337.68, 522.66 334.85, 523.65 330.60 C 524.64 326.36, 525.76 323.72, 526.71 320.38 C 527.66 317.03, 528.31 315.39, 528.40 313.88 C 528.49 312.38, 528.15 311.99, 527.16 312.87 C 526.18 313.75, 525.35 315.20, 523.49 318.30 C 521.63 321.39, 520.47 324.25, 517.88 328.34 C 515.29 332.43, 513.55 334.99, 510.52 338.73 C 507.50 342.47, 505.68 344.49, 502.76 347.03 C 499.85 349.58, 498.28 350.51, 495.95 351.44 C 493.62 352.37, 492.70 352.47, 491.11 351.69 C 489.53 350.91, 489.06 349.93, 488.03 347.55 C 486.99 345.17, 486.53 343.29, 485.94 339.80 C 485.36 336.30, 485.42 333.77, 485.11 330.07 C 484.80 326.38, 485.09 324.04, 484.41 321.34 C 483.73 318.63, 483.10 317.32, 481.73 316.57 C 480.36 315.83, 479.33 315.99, 477.56 317.61 C 475.78 319.23, 474.89 321.21, 472.85 324.68 C 470.81 328.14, 469.62 330.95, 467.37 334.93 C 465.11 338.90, 463.70 341.34, 461.56 344.54 C 459.41 347.74, 458.22 349.25, 456.64 350.91 C 455.06 352.58, 454.60 353.09, 453.65 352.88 C 452.69 352.67, 452.53 352.00, 451.87 349.86 C 451.21 347.72, 450.79 345.87, 450.36 342.16 C 449.94 338.45, 449.92 335.62, 449.75 331.31 C 449.58 326.99, 449.84 324.20, 449.52 320.60 C 449.21 317.00, 449.09 315.06, 448.17 313.30 C 447.24 311.54, 446.39 311.02, 444.90 311.81 C 443.40 312.61, 442.54 314.06, 440.70 317.28 C 438.86 320.50, 437.97 323.37, 435.69 327.91 C 433.41 332.45, 431.96 335.47, 429.29 340.00 C 426.62 344.53, 425.06 347.08, 422.34 350.56 C 419.62 354.05, 418.04 355.59, 415.68 357.43 C 413.31 359.27, 412.30 359.87, 410.51 359.78 C 408.72 359.70, 408.08 359.00, 406.72 357.01 C 405.37 355.03, 404.64 353.48, 403.74 349.86 C 402.84 346.23, 402.65 343.45, 402.25 338.88 C 401.84 334.31, 402.01 331.10, 401.70 327.02 C 401.39 322.93, 401.56 320.61, 400.69 318.45 C 399.82 316.28, 398.98 315.52, 397.34 316.20 C 395.70 316.88, 394.73 318.39, 392.48 321.86 C 390.23 325.33, 388.97 328.58, 386.11 333.56 C 383.25 338.54, 381.44 342.08, 378.19 346.76 C 374.93 351.43, 373.02 353.97, 369.83 356.94 C 366.64 359.90, 364.99 360.93, 362.23 361.59 C 359.46 362.24, 358.36 362.14, 356.00 360.21 C 353.63 358.27, 352.31 356.59, 350.40 351.91 C 348.48 347.24, 347.58 343.84, 346.40 336.82 C 345.23 329.81, 344.88 325.24, 344.54 316.86 C 344.19 308.48, 344.24 303.36, 344.68 294.92 C 345.12 286.48, 345.72 281.75, 346.74 274.66 C 347.76 267.57, 348.69 264.12, 349.78 259.47 C 350.87 254.81, 351.65 253.04, 352.18 251.40 C 352.71 249.76, 352.47 249.67, 352.42 251.26 C 352.37 252.85, 352.45 254.70, 351.92 259.33 C 351.39 263.96, 351.02 267.32, 349.77 274.40 C 348.51 281.49, 347.60 286.12, 345.64 294.74 C 343.67 303.36, 342.43 308.58, 339.94 317.51 C 337.46 326.45, 335.95 331.46, 333.20 339.43 C 330.45 347.40, 328.83 351.51, 326.20 357.35 C 323.58 363.19, 322.08 365.69, 320.06 368.63 C 318.03 371.57, 317.43 372.37, 316.07 372.06 C 314.71 371.75, 314.24 370.78, 313.25 367.07 C 312.27 363.36, 311.69 360.22, 311.15 353.51 C 310.61 346.80, 310.55 342.15, 310.56 333.53 C 310.56 324.90, 310.78 319.59, 311.19 310.38 C 311.60 301.16, 311.96 296.00, 312.61 287.47 C 313.26 278.94, 313.73 274.64, 314.44 267.73 C 315.15 260.81, 315.58 257.70, 316.18 252.91 C 316.78 248.12, 317.20 246.48, 317.42 243.78 C 317.63 241.07, 317.54 240.32, 317.26 239.40 C 316.97 238.49, 316.54 238.41, 316.00 239.21" style="stroke: black; fill: black;"/><path d="M 725.04,240.04 C 724.51 240.67, 724.11 241.13, 723.63 243.39 C 723.16 245.66, 723.11 247.12, 722.66 251.35 C 722.21 255.57, 722.03 258.38, 721.38 264.51 C 720.73 270.65, 720.24 274.48, 719.42 282.03 C 718.60 289.58, 718.07 294.15, 717.29 302.27 C 716.51 310.38, 716.04 314.91, 715.54 322.60 C 715.04 330.30, 714.72 334.33, 714.80 340.76 C 714.88 347.19, 714.95 350.17, 715.93 354.76 C 716.91 359.36, 717.55 361.23, 719.71 363.73 C 721.87 366.24, 723.47 366.95, 726.73 367.30 C 729.99 367.64, 732.01 366.98, 736.01 365.46 C 740.02 363.94, 742.33 362.47, 746.75 359.69 C 751.18 356.91, 753.67 354.90, 758.14 351.57 C 762.60 348.24, 765.01 346.11, 769.08 343.05 C 773.14 339.99, 775.20 338.37, 778.46 336.25 C 781.71 334.13, 783.23 333.38, 785.36 332.45 C 787.50 331.53, 788.15 331.12, 789.14 331.63 C 790.14 332.13, 790.04 332.91, 790.34 334.96 C 790.64 337.01, 790.50 338.76, 790.64 341.86 C 790.78 344.97, 790.74 347.20, 791.04 350.48 C 791.35 353.76, 791.32 355.90, 792.16 358.28 C 793.00 360.66, 793.71 361.71, 795.23 362.40 C 796.75 363.09, 797.83 363.05, 799.76 361.72 C 801.69 360.38, 803.05 358.55, 804.87 355.71 C 806.70 352.87, 807.67 350.58, 808.87 347.52 C 810.07 344.45, 810.76 341.94, 810.86 340.39 C 810.96 338.83, 810.43 338.63, 809.38 339.74 C 808.32 340.86, 807.15 343.17, 805.57 345.95 C 804.00 348.74, 803.05 350.94, 801.50 353.67 C 799.95 356.40, 798.91 358.14, 797.81 359.61 C 796.71 361.07, 796.49 361.40, 796.01 360.99 C 795.52 360.57, 795.60 359.69, 795.38 357.53 C 795.15 355.37, 795.06 353.38, 794.87 350.19 C 794.68 347.00, 794.74 344.79, 794.42 341.58 C 794.09 338.38, 794.13 336.49, 793.24 334.17 C 792.35 331.84, 791.71 330.78, 789.95 329.95 C 788.19 329.13, 787.00 329.17, 784.44 330.04 C 781.88 330.91, 780.47 332.02, 777.15 334.29 C 773.83 336.57, 771.87 338.28, 767.82 341.41 C 763.78 344.54, 761.37 346.65, 756.92 349.93 C 752.48 353.21, 749.94 355.16, 745.59 357.81 C 741.24 360.47, 738.89 361.79, 735.16 363.21 C 731.43 364.63, 729.70 365.07, 726.94 364.90 C 724.17 364.72, 723.19 364.43, 721.33 362.32 C 719.48 360.22, 718.69 358.69, 717.68 354.37 C 716.67 350.05, 716.46 347.07, 716.30 340.73 C 716.15 334.40, 716.43 330.36, 716.90 322.69 C 717.37 315.02, 717.84 310.50, 718.65 302.40 C 719.46 294.31, 720.02 289.74, 720.95 282.21 C 721.89 274.68, 722.45 270.86, 723.32 264.75 C 724.20 258.65, 724.69 255.88, 725.32 251.69 C 725.94 247.50, 726.28 246.09, 726.46 243.81 C 726.65 241.52, 726.53 241.00, 726.25 240.25 C 725.96 239.50, 725.56 239.41, 725.04 240.04" style="stroke: black; fill: black;"/><path d="M 795.54,292.35 C 795.76 291.88, 795.62 292.00, 795.49 292.19 C 795.36 292.37, 795.06 293.02, 794.90 293.27 C 794.73 293.51, 794.82 293.16, 794.65 293.42 C 794.49 293.67, 794.14 294.31, 794.08 294.54 C 794.02 294.76, 794.08 294.99, 794.37 294.55 C 794.66 294.11, 795.31 292.82, 795.54 292.35" style="stroke: black; fill: black;"/><path d="M 813.68,329.04 C 813.36 329.77, 813.38 330.60, 813.44 332.42 C 813.49 334.24, 813.57 335.53, 813.97 338.13 C 814.37 340.73, 814.69 342.52, 815.43 345.43 C 816.16 348.33, 816.52 350.20, 817.64 352.65 C 818.75 355.10, 819.41 356.43, 821.00 357.69 C 822.59 358.95, 823.59 359.36, 825.59 358.95 C 827.59 358.55, 828.83 357.81, 830.98 355.67 C 833.13 353.53, 834.14 351.53, 836.32 348.26 C 838.50 345.00, 839.73 342.64, 841.88 339.35 C 844.04 336.06, 845.37 334.14, 847.09 331.83 C 848.80 329.53, 849.44 328.45, 850.47 327.82 C 851.50 327.20, 851.69 327.44, 852.23 328.70 C 852.78 329.96, 852.72 331.39, 853.20 334.14 C 853.68 336.88, 853.99 339.01, 854.63 342.41 C 855.27 345.81, 855.43 348.01, 856.39 351.15 C 857.35 354.30, 857.82 355.97, 859.41 358.13 C 861.00 360.29, 862.04 361.21, 864.34 361.96 C 866.65 362.71, 868.13 362.75, 870.94 361.87 C 873.75 360.99, 875.33 359.87, 878.40 357.56 C 881.47 355.25, 883.17 353.52, 886.29 350.33 C 889.42 347.14, 891.11 344.98, 894.03 341.60 C 896.94 338.22, 898.57 336.29, 900.88 333.42 C 903.18 330.56, 904.39 329.19, 905.54 327.26 C 906.70 325.33, 906.84 324.48, 906.67 323.77 C 906.50 323.05, 905.88 322.97, 904.69 323.70 C 903.50 324.43, 902.33 325.20, 900.72 327.42 C 899.10 329.65, 898.29 331.50, 896.62 334.83 C 894.94 338.15, 893.92 340.34, 892.34 344.06 C 890.75 347.78, 889.76 349.93, 888.71 353.43 C 887.66 356.92, 887.08 358.86, 887.10 361.54 C 887.11 364.22, 887.60 365.57, 888.79 366.83 C 889.98 368.08, 891.08 368.53, 893.04 367.82 C 895.01 367.11, 896.37 366.18, 898.62 363.29 C 900.86 360.39, 902.03 358.19, 904.27 353.34 C 906.52 348.48, 907.74 345.37, 909.85 339.02 C 911.97 332.66, 913.08 328.72, 914.85 321.55 C 916.62 314.38, 917.48 310.16, 918.70 303.17 C 919.93 296.19, 920.39 292.42, 920.98 286.61 C 921.56 280.80, 921.84 277.78, 921.63 274.13 C 921.43 270.48, 920.91 269.02, 919.95 268.37 C 919.00 267.71, 917.84 268.35, 916.86 270.84 C 915.88 273.33, 915.61 275.72, 915.06 280.82 C 914.51 285.92, 914.23 289.57, 914.11 296.32 C 914.00 303.07, 914.03 307.36, 914.48 314.58 C 914.93 321.80, 915.28 325.86, 916.34 332.42 C 917.40 338.98, 918.03 342.36, 919.79 347.39 C 921.56 352.42, 922.63 354.69, 925.16 357.58 C 927.69 360.47, 929.29 361.42, 932.43 361.82 C 935.56 362.22, 937.47 361.51, 940.82 359.58 C 944.17 357.66, 945.97 355.81, 949.19 352.21 C 952.41 348.61, 954.06 345.99, 956.93 341.57 C 959.79 337.15, 961.23 334.34, 963.52 330.12 C 965.81 325.90, 967.01 323.66, 968.38 320.48 C 969.75 317.29, 970.16 315.88, 970.36 314.19 C 970.57 312.50, 970.14 312.03, 969.40 312.03 C 968.66 312.03, 967.75 312.57, 966.65 314.18 C 965.55 315.80, 964.72 317.23, 963.91 320.11 C 963.10 322.98, 962.97 325.05, 962.58 328.55 C 962.19 332.05, 961.91 334.19, 961.95 337.61 C 961.98 341.03, 961.97 343.00, 962.75 345.64 C 963.54 348.29, 964.31 349.53, 965.88 350.83 C 967.44 352.13, 968.56 352.52, 970.58 352.15 C 972.60 351.78, 973.97 351.10, 975.98 348.98 C 977.98 346.86, 978.98 344.97, 980.59 341.55 C 982.21 338.14, 983.03 335.72, 984.05 331.90 C 985.07 328.08, 985.64 325.76, 985.70 322.44 C 985.75 319.13, 985.33 317.22, 984.32 315.33 C 983.31 313.44, 982.31 312.93, 980.65 312.99 C 978.99 313.06, 977.63 313.75, 976.02 315.65 C 974.40 317.55, 973.47 319.33, 972.57 322.50 C 971.67 325.67, 971.46 327.92, 971.50 331.49 C 971.55 335.05, 971.73 337.20, 972.80 340.33 C 973.86 343.45, 974.72 345.09, 976.82 347.09 C 978.93 349.10, 980.47 349.97, 983.33 350.34 C 986.20 350.70, 987.98 350.42, 991.14 348.91 C 994.30 347.41, 995.98 346.02, 999.15 342.82 C 1002.32 339.62, 1004.01 337.48, 1006.97 332.92 C 1009.94 328.36, 1011.48 325.49, 1013.98 320.02 C 1016.48 314.55, 1017.66 311.31, 1019.48 305.57 C 1021.29 299.84, 1022.02 296.62, 1023.06 291.35 C 1024.10 286.08, 1024.44 283.36, 1024.67 279.22 C 1024.90 275.08, 1024.91 273.13, 1024.22 270.67 C 1023.53 268.21, 1022.61 267.19, 1021.23 266.92 C 1019.84 266.64, 1018.58 267.11, 1017.29 269.29 C 1016.00 271.48, 1015.55 273.51, 1014.78 277.84 C 1014.00 282.17, 1013.74 285.12, 1013.41 290.94 C 1013.08 296.75, 1013.01 300.47, 1013.13 306.91 C 1013.25 313.34, 1013.42 317.12, 1014.00 323.11 C 1014.57 329.10, 1014.98 332.17, 1016.01 336.84 C 1017.05 341.50, 1017.53 343.65, 1019.17 346.44 C 1020.81 349.22, 1022.00 350.13, 1024.21 350.77 C 1026.42 351.41, 1027.85 351.08, 1030.22 349.65 C 1032.59 348.22, 1033.81 346.53, 1036.07 343.62 C 1038.32 340.71, 1039.57 338.32, 1041.50 335.10 C 1043.44 331.87, 1044.57 329.82, 1045.75 327.50 C 1046.92 325.18, 1047.03 324.02, 1047.37 323.50 C 1047.71 322.98, 1047.49 323.40, 1047.47 324.88 C 1047.45 326.37, 1047.05 328.03, 1047.26 330.91 C 1047.48 333.79, 1047.72 336.03, 1048.54 339.29 C 1049.36 342.55, 1049.78 344.63, 1051.36 347.21 C 1052.95 349.79, 1054.07 351.10, 1056.46 352.18 C 1058.84 353.27, 1060.45 353.62, 1063.29 352.63 C 1066.12 351.64, 1067.68 350.34, 1070.63 347.22 C 1073.59 344.10, 1075.15 341.97, 1078.07 337.04 C 1080.99 332.11, 1082.62 328.90, 1085.24 322.58 C 1087.86 316.26, 1089.16 312.36, 1091.19 305.42 C 1093.21 298.49, 1094.14 294.47, 1095.36 287.91 C 1096.59 281.34, 1097.01 277.88, 1097.33 272.61 C 1097.64 267.34, 1097.75 264.83, 1096.93 261.56 C 1096.12 258.30, 1095.20 257.07, 1093.27 256.28 C 1091.34 255.50, 1089.69 255.63, 1087.27 257.64 C 1084.85 259.65, 1083.51 261.63, 1081.16 266.32 C 1078.80 271.00, 1077.42 274.31, 1075.50 281.04 C 1073.58 287.77, 1072.58 292.12, 1071.56 299.96 C 1070.53 307.80, 1070.16 312.44, 1070.38 320.24 C 1070.59 328.04, 1071.03 332.25, 1072.65 338.94 C 1074.26 345.64, 1075.37 348.96, 1078.45 353.72 C 1081.52 358.48, 1083.61 360.35, 1088.02 362.72 C 1092.43 365.10, 1095.21 365.68, 1100.49 365.60 C 1105.78 365.51, 1108.91 364.59, 1114.45 362.30 C 1119.99 360.02, 1123.36 357.56, 1128.21 354.15 C 1133.05 350.74, 1135.36 348.38, 1138.68 345.26 C 1142.00 342.15, 1143.76 340.08, 1144.80 338.57 C 1145.85 337.06, 1145.40 336.64, 1143.92 337.70 C 1142.44 338.77, 1140.78 340.90, 1137.42 343.88 C 1134.05 346.86, 1131.84 349.25, 1127.11 352.60 C 1122.38 355.96, 1119.09 358.40, 1113.76 360.65 C 1108.43 362.90, 1105.45 363.74, 1100.46 363.85 C 1095.47 363.97, 1092.95 363.44, 1088.81 361.25 C 1084.66 359.05, 1082.70 357.41, 1079.74 352.88 C 1076.78 348.35, 1075.62 345.14, 1074.03 338.61 C 1072.43 332.07, 1071.95 327.89, 1071.75 320.20 C 1071.55 312.51, 1071.93 307.89, 1073.01 300.15 C 1074.10 292.42, 1075.16 288.10, 1077.18 281.54 C 1079.20 274.97, 1080.75 271.73, 1083.11 267.33 C 1085.48 262.94, 1087.11 261.49, 1089.02 259.57 C 1090.93 257.64, 1091.52 257.22, 1092.67 257.72 C 1093.81 258.22, 1094.17 259.09, 1094.74 262.05 C 1095.31 265.01, 1095.70 267.41, 1095.51 272.52 C 1095.33 277.64, 1094.98 281.13, 1093.82 287.62 C 1092.65 294.12, 1091.73 298.13, 1089.71 304.99 C 1087.68 311.85, 1086.36 315.72, 1083.69 321.92 C 1081.02 328.12, 1079.31 331.28, 1076.34 335.99 C 1073.37 340.69, 1071.65 342.68, 1068.83 345.46 C 1066.02 348.24, 1064.52 349.03, 1062.28 349.90 C 1060.04 350.77, 1059.19 350.70, 1057.63 349.82 C 1056.07 348.95, 1055.52 347.81, 1054.48 345.53 C 1053.44 343.24, 1053.04 341.44, 1052.43 338.40 C 1051.82 335.37, 1051.98 333.19, 1051.44 330.36 C 1050.89 327.52, 1050.65 325.84, 1049.73 324.22 C 1048.80 322.61, 1048.20 322.02, 1046.81 322.30 C 1045.42 322.59, 1044.42 323.43, 1042.78 325.65 C 1041.13 327.86, 1040.46 330.17, 1038.59 333.37 C 1036.73 336.58, 1035.44 338.88, 1033.44 341.66 C 1031.44 344.45, 1030.33 345.87, 1028.59 347.31 C 1026.85 348.75, 1026.22 349.28, 1024.76 348.87 C 1023.30 348.45, 1022.64 347.74, 1021.28 345.24 C 1019.92 342.74, 1019.06 340.84, 1017.96 336.38 C 1016.86 331.92, 1016.38 328.83, 1015.78 322.93 C 1015.18 317.03, 1015.00 313.25, 1014.95 306.88 C 1014.91 300.51, 1015.05 296.80, 1015.55 291.09 C 1016.05 285.39, 1016.61 282.48, 1017.46 278.35 C 1018.31 274.23, 1019.09 272.54, 1019.79 270.47 C 1020.50 268.39, 1020.57 267.85, 1020.97 267.99 C 1021.37 268.13, 1021.51 268.95, 1021.80 271.18 C 1022.08 273.40, 1022.53 275.16, 1022.41 279.12 C 1022.29 283.09, 1022.12 285.82, 1021.20 291.00 C 1020.27 296.18, 1019.56 299.39, 1017.78 305.04 C 1016.00 310.68, 1014.81 313.90, 1012.30 319.25 C 1009.80 324.59, 1008.22 327.41, 1005.24 331.77 C 1002.27 336.13, 1000.49 338.16, 997.43 341.06 C 994.36 343.97, 992.66 345.02, 989.91 346.30 C 987.16 347.58, 985.89 347.73, 983.69 347.46 C 981.50 347.19, 980.50 346.58, 978.95 344.95 C 977.39 343.33, 976.71 342.02, 975.92 339.33 C 975.12 336.64, 974.88 334.66, 974.96 331.51 C 975.04 328.35, 975.58 326.34, 976.33 323.54 C 977.08 320.74, 977.81 319.28, 978.72 317.51 C 979.64 315.74, 980.22 314.93, 980.89 314.67 C 981.56 314.41, 981.77 314.66, 982.07 316.19 C 982.37 317.72, 982.60 319.33, 982.40 322.31 C 982.20 325.29, 982.01 327.53, 981.05 331.09 C 980.08 334.65, 979.14 336.98, 977.58 340.08 C 976.01 343.19, 974.76 344.66, 973.24 346.61 C 971.71 348.57, 971.09 349.35, 969.95 349.86 C 968.80 350.37, 968.31 350.16, 967.51 349.15 C 966.71 348.15, 966.40 347.16, 965.96 344.85 C 965.53 342.54, 965.29 340.77, 965.33 337.61 C 965.37 334.46, 965.59 332.33, 966.16 329.06 C 966.72 325.78, 967.48 323.97, 968.16 321.24 C 968.83 318.50, 969.24 317.15, 969.54 315.39 C 969.85 313.63, 969.91 312.80, 969.68 312.44 C 969.46 312.07, 969.19 312.19, 968.43 313.58 C 967.66 314.97, 967.26 316.28, 965.87 319.38 C 964.49 322.48, 963.67 324.86, 961.51 329.06 C 959.35 333.25, 957.88 336.05, 955.07 340.36 C 952.26 344.68, 950.54 347.22, 947.45 350.64 C 944.35 354.07, 942.54 355.71, 939.59 357.48 C 936.64 359.26, 935.27 359.76, 932.69 359.51 C 930.11 359.25, 928.95 358.76, 926.70 356.22 C 924.45 353.68, 923.20 351.61, 921.44 346.80 C 919.68 341.98, 918.97 338.62, 917.90 332.16 C 916.83 325.70, 916.46 321.64, 916.08 314.48 C 915.70 307.33, 915.75 303.05, 916.02 296.38 C 916.28 289.70, 916.76 286.07, 917.39 281.09 C 918.03 276.12, 918.79 273.94, 919.20 271.49 C 919.60 269.04, 919.35 268.29, 919.40 268.83 C 919.46 269.37, 919.49 270.66, 919.46 274.18 C 919.43 277.71, 919.71 280.71, 919.26 286.46 C 918.81 292.21, 918.39 295.97, 917.21 302.92 C 916.03 309.86, 915.16 314.07, 913.36 321.18 C 911.56 328.28, 910.41 332.21, 908.19 338.44 C 905.97 344.67, 904.63 347.74, 902.24 352.34 C 899.85 356.94, 898.28 358.77, 896.23 361.45 C 894.19 364.13, 893.22 364.88, 892.02 365.74 C 890.81 366.61, 890.56 366.57, 890.19 365.76 C 889.82 364.96, 889.88 364.00, 890.16 361.71 C 890.44 359.41, 890.61 357.57, 891.59 354.29 C 892.57 351.00, 893.43 348.81, 895.06 345.26 C 896.69 341.71, 897.90 339.64, 899.74 336.53 C 901.58 333.42, 902.92 332.02, 904.25 329.72 C 905.58 327.42, 906.04 326.28, 906.39 325.02 C 906.74 323.76, 906.65 323.30, 906.02 323.41 C 905.40 323.52, 904.73 323.93, 903.26 325.59 C 901.79 327.24, 900.91 328.81, 898.67 331.68 C 896.44 334.56, 894.95 336.60, 892.10 339.95 C 889.25 343.31, 887.51 345.42, 884.42 348.46 C 881.33 351.50, 879.54 353.09, 876.64 355.16 C 873.73 357.23, 872.20 357.94, 869.89 358.82 C 867.59 359.69, 866.70 359.99, 865.10 359.52 C 863.51 359.05, 862.98 358.33, 861.90 356.47 C 860.83 354.62, 860.44 353.17, 859.71 350.23 C 858.98 347.29, 858.80 345.17, 858.24 341.77 C 857.67 338.38, 857.74 336.15, 856.91 333.27 C 856.07 330.39, 855.48 328.84, 854.05 327.38 C 852.62 325.93, 851.67 325.50, 849.78 325.98 C 847.88 326.45, 846.66 327.43, 844.57 329.76 C 842.47 332.10, 841.50 334.33, 839.31 337.67 C 837.13 341.00, 835.84 343.31, 833.64 346.42 C 831.44 349.53, 830.06 351.14, 828.32 353.20 C 826.57 355.27, 826.02 356.19, 824.91 356.73 C 823.80 357.28, 823.50 357.01, 822.76 355.93 C 822.01 354.85, 821.83 353.63, 821.19 351.34 C 820.55 349.04, 820.15 347.26, 819.54 344.46 C 818.93 341.66, 818.74 339.86, 818.15 337.33 C 817.56 334.80, 817.21 333.53, 816.59 331.82 C 815.98 330.11, 815.65 329.32, 815.06 328.76 C 814.48 328.20, 814.01 328.30, 813.68 329.04" style="stroke: black; fill: black;"/></svg>