<svg xmlns="http://www.w3.org/2000/svg" id="canvas" viewBox="219.164 236.450 879.660 158.269"><path d="M 239.59,262.94 C 238.45 264.54, 237.92 266.98, 236.60 271.75 C 235.28 276.52, 234.49 279.82, 233.01 286.81 C 231.52 293.80, 230.52 298.41, 229.16 306.70 C 227.81 314.98, 227.13 319.74, 226.22 328.23 C 225.32 336.72, 224.80 341.30, 224.63 349.15 C 224.46 357.00, 224.42 361.04, 225.36 367.48 C 226.30 373.92, 226.97 376.91, 229.34 381.35 C 231.72 385.80, 233.43 387.67, 237.25 389.71 C 241.07 391.75, 243.72 391.95, 248.45 391.55 C 253.18 391.15, 255.94 390.06, 260.90 387.72 C 265.86 385.39, 268.55 383.49, 273.24 379.87 C 277.93 376.25, 280.36 373.80, 284.35 369.63 C 288.34 365.46, 290.37 363.01, 293.20 359.02 C 296.03 355.03, 297.21 352.82, 298.48 349.68 C 299.76 346.54, 299.75 344.73, 299.57 343.32 C 299.39 341.90, 298.56 341.71, 297.57 342.61 C 296.57 343.51, 296.13 345.01, 294.58 347.83 C 293.03 350.65, 292.41 352.84, 289.82 356.69 C 287.24 360.54, 285.42 363.04, 281.65 367.08 C 277.88 371.13, 275.45 373.50, 270.97 376.92 C 266.49 380.34, 263.82 382.05, 259.24 384.19 C 254.66 386.33, 252.13 387.16, 248.08 387.61 C 244.02 388.05, 242.13 387.96, 238.96 386.40 C 235.79 384.83, 234.39 383.64, 232.24 379.77 C 230.08 375.90, 229.19 373.16, 228.18 367.04 C 227.17 360.93, 227.08 356.90, 227.19 349.19 C 227.30 341.49, 227.79 336.91, 228.73 328.51 C 229.67 320.10, 230.42 315.37, 231.90 307.17 C 233.38 298.97, 234.50 294.41, 236.13 287.51 C 237.76 280.61, 238.83 277.43, 240.07 272.68 C 241.30 267.92, 242.41 265.69, 242.31 263.75 C 242.22 261.80, 240.74 261.35, 239.59 262.94" style="stroke: black; fill: black;"/><path d="M 222.49,322.73 C 223.02 323.56, 223.43 324.14, 225.27 324.51 C 227.12 324.89, 228.50 325.18, 231.71 324.62 C 234.93 324.06, 237.10 323.12, 241.35 321.71 C 245.60 320.30, 248.23 319.39, 252.96 317.57 C 257.68 315.74, 260.37 314.67, 264.99 312.59 C 269.61 310.51, 271.99 309.36, 276.05 307.18 C 280.11 305.00, 282.07 303.88, 285.30 301.68 C 288.53 299.49, 290.26 298.33, 292.19 296.20 C 294.13 294.07, 294.40 292.77, 294.97 291.03 C 295.55 289.28, 295.41 288.31, 295.08 287.47 C 294.75 286.63, 294.05 286.54, 293.32 286.83 C 292.58 287.11, 292.48 287.84, 291.39 288.89 C 290.30 289.94, 289.69 290.30, 287.88 292.06 C 286.07 293.82, 285.14 295.44, 282.35 297.71 C 279.56 299.97, 277.76 301.18, 273.94 303.38 C 270.12 305.59, 267.78 306.74, 263.27 308.72 C 258.77 310.69, 256.09 311.73, 251.42 313.25 C 246.75 314.76, 244.11 315.47, 239.92 316.29 C 235.73 317.12, 233.47 316.86, 230.47 317.37 C 227.46 317.88, 226.47 318.24, 224.90 318.84 C 223.33 319.44, 223.09 319.59, 222.61 320.37 C 222.13 321.14, 221.96 321.90, 222.49 322.73" style="stroke: black; fill: black;"/><path d="M 262.66,254.89 C 262.57 255.61, 262.46 256.07, 263.08 256.87 C 263.70 257.67, 264.18 258.33, 265.77 258.89 C 267.37 259.45, 268.48 259.65, 271.04 259.66 C 273.60 259.67, 275.29 259.39, 278.57 258.94 C 281.84 258.48, 283.80 258.17, 287.41 257.39 C 291.03 256.60, 293.07 256.10, 296.65 255.01 C 300.23 253.92, 302.12 253.28, 305.31 251.94 C 308.50 250.60, 310.32 249.96, 312.61 248.31 C 314.90 246.65, 316.01 245.32, 316.77 243.66 C 317.54 242.01, 317.24 240.69, 316.41 240.04 C 315.59 239.38, 314.19 239.01, 312.66 240.39 C 311.12 241.77, 310.29 243.23, 308.73 246.93 C 307.17 250.63, 306.39 253.20, 304.88 258.88 C 303.36 264.56, 302.44 268.02, 301.15 275.32 C 299.85 282.62, 299.13 287.07, 298.41 295.39 C 297.69 303.70, 297.44 308.61, 297.54 316.89 C 297.64 325.18, 297.93 329.71, 298.90 336.81 C 299.87 343.91, 300.52 347.35, 302.38 352.40 C 304.24 357.45, 305.28 359.76, 308.18 362.07 C 311.08 364.38, 313.43 364.89, 316.90 363.94 C 320.36 362.99, 322.20 361.18, 325.50 357.31 C 328.80 353.44, 330.38 350.65, 333.41 344.58 C 336.45 338.51, 337.98 334.58, 340.68 326.95 C 343.38 319.33, 344.74 314.68, 346.92 306.45 C 349.09 298.23, 350.09 293.55, 351.56 285.82 C 353.02 278.09, 353.53 274.03, 354.23 267.79 C 354.92 261.55, 355.31 258.74, 355.02 254.62 C 354.73 250.50, 354.34 248.80, 352.76 247.19 C 351.18 245.57, 349.24 245.26, 347.11 246.54 C 344.97 247.82, 343.84 249.46, 342.08 253.58 C 340.32 257.71, 339.63 260.72, 338.31 267.16 C 337.00 273.59, 336.33 277.82, 335.52 285.74 C 334.70 293.66, 334.34 298.51, 334.23 306.76 C 334.12 315.01, 334.24 319.61, 334.95 326.98 C 335.66 334.35, 336.20 337.99, 337.78 343.60 C 339.37 349.21, 340.26 351.74, 342.88 355.04 C 345.50 358.34, 347.42 359.64, 350.90 360.11 C 354.37 360.58, 356.59 359.61, 360.25 357.39 C 363.91 355.17, 365.74 353.12, 369.18 349.01 C 372.62 344.90, 374.40 341.87, 377.46 336.85 C 380.51 331.83, 382.11 328.30, 384.47 323.90 C 386.83 319.50, 388.37 317.26, 389.27 314.85 C 390.17 312.44, 389.42 311.55, 388.96 311.84 C 388.50 312.12, 387.40 313.35, 386.99 316.27 C 386.57 319.18, 386.72 322.08, 386.87 326.41 C 387.03 330.74, 387.15 333.74, 387.77 337.90 C 388.39 342.07, 388.46 344.35, 389.98 347.22 C 391.50 350.08, 392.92 351.28, 395.39 352.24 C 397.85 353.19, 399.65 353.30, 402.31 351.97 C 404.96 350.64, 406.22 348.91, 408.66 345.58 C 411.10 342.25, 412.19 339.71, 414.50 335.31 C 416.81 330.91, 418.04 327.95, 420.21 323.59 C 422.37 319.23, 423.92 316.59, 425.32 313.52 C 426.73 310.44, 427.00 309.05, 427.25 308.23 C 427.49 307.41, 426.69 307.73, 426.55 309.42 C 426.41 311.10, 426.33 313.01, 426.56 316.64 C 426.79 320.26, 427.09 323.21, 427.70 327.55 C 428.32 331.89, 428.56 334.59, 429.64 338.31 C 430.72 342.04, 431.21 343.96, 433.11 346.16 C 435.00 348.36, 436.48 349.10, 439.10 349.31 C 441.71 349.51, 443.54 349.13, 446.17 347.18 C 448.80 345.22, 449.83 343.04, 452.24 339.54 C 454.65 336.03, 456.02 333.29, 458.23 329.66 C 460.45 326.02, 462.07 323.88, 463.32 321.36 C 464.56 318.84, 464.43 317.56, 464.44 317.07 C 464.45 316.58, 463.69 317.06, 463.37 318.91 C 463.04 320.76, 462.72 322.88, 462.81 326.33 C 462.90 329.78, 462.97 332.48, 463.81 336.14 C 464.65 339.81, 465.15 342.02, 467.01 344.66 C 468.87 347.30, 470.33 348.42, 473.12 349.36 C 475.91 350.30, 477.81 350.46, 480.95 349.36 C 484.10 348.26, 485.73 346.69, 488.86 343.87 C 491.99 341.04, 493.63 338.94, 496.61 335.22 C 499.58 331.50, 501.16 328.99, 503.75 325.26 C 506.34 321.53, 508.10 319.61, 509.55 316.58 C 511.01 313.54, 511.34 311.77, 511.01 310.09 C 510.67 308.41, 509.52 307.77, 507.88 308.17 C 506.25 308.57, 504.47 309.50, 502.85 312.09 C 501.23 314.69, 500.73 317.20, 499.78 321.15 C 498.82 325.10, 498.38 327.74, 498.08 331.85 C 497.77 335.97, 497.43 338.32, 498.24 341.74 C 499.05 345.15, 499.95 346.98, 502.12 348.95 C 504.28 350.91, 506.10 351.62, 509.04 351.57 C 511.99 351.53, 514.01 350.84, 516.86 348.73 C 519.71 346.62, 521.09 344.65, 523.30 341.03 C 525.51 337.41, 526.62 334.97, 527.91 330.62 C 529.19 326.27, 529.69 323.60, 529.74 319.28 C 529.80 314.95, 529.50 312.55, 528.18 309.00 C 526.87 305.45, 525.65 303.60, 523.17 301.54 C 520.70 299.48, 518.71 298.95, 515.82 298.70 C 512.92 298.44, 511.00 298.91, 508.71 300.27 C 506.42 301.63, 505.20 303.13, 504.37 305.48 C 503.54 307.84, 503.57 309.69, 504.54 312.03 C 505.52 314.38, 506.69 315.84, 509.25 317.20 C 511.80 318.56, 513.77 318.88, 517.31 318.85 C 520.86 318.81, 522.99 318.09, 526.98 317.02 C 530.97 315.96, 533.28 314.95, 537.26 313.51 C 541.24 312.07, 543.54 310.96, 546.88 309.82 C 550.22 308.69, 551.83 308.21, 553.95 307.84 C 556.07 307.48, 556.61 307.15, 557.47 308.00 C 558.34 308.85, 558.05 309.70, 558.30 312.10 C 558.54 314.49, 558.75 316.41, 558.70 319.98 C 558.65 323.55, 558.44 326.15, 558.04 329.96 C 557.65 333.77, 556.66 336.07, 556.73 339.04 C 556.80 342.02, 557.35 343.56, 558.39 344.84 C 559.44 346.11, 560.53 346.30, 561.95 345.43 C 563.37 344.56, 564.36 343.36, 565.50 340.48 C 566.64 337.60, 566.60 335.06, 567.66 331.05 C 568.71 327.03, 569.32 324.33, 570.77 320.42 C 572.22 316.51, 573.22 314.40, 574.91 311.49 C 576.60 308.59, 577.60 307.50, 579.22 305.91 C 580.84 304.32, 581.38 303.94, 583.02 303.54 C 584.67 303.13, 585.63 303.60, 587.43 303.86 C 589.23 304.12, 590.33 304.62, 592.01 304.84 C 593.69 305.06, 594.50 305.12, 595.82 304.96 C 597.15 304.79, 597.99 304.64, 598.63 304.01 C 599.28 303.38, 599.39 302.63, 599.06 301.81 C 598.74 300.99, 598.14 300.66, 597.00 299.92 C 595.87 299.18, 595.26 298.61, 593.41 298.10 C 591.56 297.59, 590.17 297.32, 587.77 297.36 C 585.37 297.41, 583.89 297.44, 581.39 298.32 C 578.90 299.21, 577.51 299.69, 575.28 301.78 C 573.05 303.88, 572.14 305.47, 570.23 308.79 C 568.32 312.11, 567.49 314.34, 565.74 318.40 C 563.98 322.46, 562.95 325.08, 561.47 329.10 C 559.99 333.11, 558.85 335.45, 558.34 338.49 C 557.84 341.53, 558.31 343.06, 558.94 344.31 C 559.57 345.56, 560.51 345.68, 561.49 344.75 C 562.48 343.81, 563.31 342.48, 563.85 339.62 C 564.39 336.76, 564.00 334.35, 564.21 330.44 C 564.42 326.54, 564.84 324.01, 564.91 320.08 C 564.98 316.15, 565.46 313.90, 564.56 310.79 C 563.65 307.68, 562.59 306.22, 560.39 304.51 C 558.19 302.80, 556.61 302.24, 553.55 302.24 C 550.49 302.24, 548.70 303.29, 545.08 304.53 C 541.46 305.77, 539.33 307.05, 535.44 308.42 C 531.56 309.78, 529.27 310.63, 525.64 311.36 C 522.01 312.09, 520.04 312.07, 517.29 312.05 C 514.54 312.04, 513.42 311.75, 511.88 311.28 C 510.34 310.82, 510.01 310.48, 509.59 309.74 C 509.17 309.01, 509.35 308.47, 509.78 307.61 C 510.21 306.76, 510.63 306.10, 511.75 305.46 C 512.86 304.83, 513.81 304.34, 515.36 304.44 C 516.91 304.54, 517.94 304.66, 519.48 305.96 C 521.03 307.25, 522.06 308.27, 523.08 310.92 C 524.11 313.58, 524.66 315.59, 524.62 319.22 C 524.59 322.85, 524.16 325.33, 522.93 329.07 C 521.70 332.81, 520.48 335.00, 518.48 337.93 C 516.48 340.86, 514.91 342.05, 512.93 343.73 C 510.95 345.42, 510.03 346.02, 508.59 346.36 C 507.14 346.70, 506.57 346.60, 505.69 345.46 C 504.81 344.31, 504.50 343.22, 504.18 340.62 C 503.85 338.02, 503.59 335.98, 504.07 332.47 C 504.55 328.97, 505.40 326.54, 506.57 323.09 C 507.73 319.64, 509.17 317.88, 509.89 315.24 C 510.61 312.59, 510.54 311.13, 510.15 309.88 C 509.76 308.64, 509.11 308.27, 507.93 309.03 C 506.76 309.78, 505.94 310.99, 504.26 313.68 C 502.58 316.37, 501.86 318.81, 499.55 322.48 C 497.23 326.15, 495.56 328.59, 492.69 332.02 C 489.82 335.46, 488.01 337.32, 485.21 339.65 C 482.40 341.98, 480.77 342.64, 478.66 343.66 C 476.55 344.68, 475.92 345.16, 474.67 344.74 C 473.43 344.32, 473.22 343.56, 472.45 341.57 C 471.68 339.58, 471.30 337.96, 470.83 334.79 C 470.35 331.62, 470.56 329.12, 470.07 325.72 C 469.58 322.31, 469.61 320.00, 468.37 317.79 C 467.13 315.58, 465.92 314.66, 463.87 314.66 C 461.82 314.65, 460.26 315.38, 458.11 317.77 C 455.97 320.16, 455.30 322.94, 453.14 326.61 C 450.99 330.28, 449.56 332.95, 447.33 336.11 C 445.09 339.27, 443.60 340.60, 441.96 342.42 C 440.32 344.24, 440.06 345.05, 439.14 345.22 C 438.22 345.38, 438.13 344.91, 437.37 343.24 C 436.60 341.57, 436.03 340.16, 435.31 336.86 C 434.60 333.57, 434.28 330.96, 433.80 326.76 C 433.31 322.57, 433.51 319.66, 432.88 315.90 C 432.25 312.14, 432.08 310.00, 430.65 307.98 C 429.23 305.97, 427.78 305.25, 425.76 305.84 C 423.74 306.42, 422.55 307.79, 420.57 310.92 C 418.59 314.04, 417.95 317.07, 415.85 321.47 C 413.76 325.87, 412.46 328.76, 410.11 332.91 C 407.75 337.06, 406.23 339.31, 404.08 342.21 C 401.93 345.11, 400.79 346.13, 399.38 347.40 C 397.97 348.67, 397.81 349.07, 397.03 348.57 C 396.26 348.06, 396.17 347.17, 395.50 344.87 C 394.83 342.58, 394.15 340.83, 393.68 337.09 C 393.22 333.36, 393.32 330.41, 393.20 326.20 C 393.07 321.99, 393.69 319.14, 393.05 316.04 C 392.41 312.94, 391.59 311.44, 389.99 310.69 C 388.39 309.95, 386.94 310.07, 385.04 312.30 C 383.14 314.54, 382.71 317.37, 380.49 321.85 C 378.28 326.34, 376.87 329.86, 373.95 334.73 C 371.03 339.61, 369.13 342.48, 365.91 346.25 C 362.69 350.02, 360.77 351.67, 357.86 353.59 C 354.95 355.50, 353.78 356.00, 351.37 355.82 C 348.96 355.64, 347.92 355.32, 345.81 352.70 C 343.69 350.08, 342.41 347.91, 340.79 342.71 C 339.17 337.51, 338.47 333.88, 337.69 326.70 C 336.92 319.52, 336.77 314.93, 336.93 306.81 C 337.09 298.68, 337.47 293.85, 338.49 286.09 C 339.50 278.33, 340.38 274.14, 342.00 268.01 C 343.61 261.89, 345.02 259.18, 346.55 255.45 C 348.08 251.72, 348.88 250.68, 349.64 249.36 C 350.40 248.04, 350.05 247.76, 350.35 248.86 C 350.65 249.95, 350.95 251.12, 351.12 254.85 C 351.30 258.58, 351.65 261.41, 351.22 267.51 C 350.79 273.61, 350.33 277.69, 348.97 285.35 C 347.61 293.00, 346.61 297.66, 344.42 305.79 C 342.23 313.91, 340.82 318.53, 338.01 325.98 C 335.21 333.42, 333.51 337.27, 330.40 343.01 C 327.29 348.76, 325.42 351.31, 322.47 354.69 C 319.51 358.07, 318.00 359.02, 315.63 359.90 C 313.27 360.77, 312.68 360.80, 310.64 359.07 C 308.60 357.33, 307.23 355.77, 305.44 351.24 C 303.64 346.70, 302.71 343.28, 301.65 336.41 C 300.59 329.53, 300.24 325.01, 300.13 316.86 C 300.02 308.70, 300.27 303.83, 301.09 295.64 C 301.90 287.45, 302.67 283.02, 304.21 275.92 C 305.76 268.82, 306.84 265.44, 308.82 260.14 C 310.81 254.84, 312.42 252.80, 314.13 249.43 C 315.85 246.07, 316.95 245.18, 317.41 243.30 C 317.87 241.42, 317.28 240.68, 316.44 240.01 C 315.61 239.34, 314.75 239.41, 313.22 239.94 C 311.69 240.46, 310.88 241.36, 308.80 242.65 C 306.72 243.94, 305.57 245.04, 302.81 246.39 C 300.04 247.74, 298.27 248.42, 294.97 249.39 C 291.68 250.35, 289.73 250.79, 286.35 251.20 C 282.97 251.62, 281.11 251.53, 278.09 251.48 C 275.08 251.43, 273.54 251.06, 271.27 250.94 C 269.00 250.82, 268.13 250.68, 266.74 250.88 C 265.35 251.08, 264.98 251.46, 264.34 251.94 C 263.69 252.42, 263.85 252.68, 263.51 253.26 C 263.18 253.85, 262.74 254.17, 262.66 254.89" style="stroke: black; fill: black;"/><path d="M 691.99,242.36 C 691.10 242.82, 690.58 243.13, 689.90 245.08 C 689.21 247.03, 689.01 248.30, 688.56 252.11 C 688.12 255.91, 688.17 258.44, 687.67 264.11 C 687.18 269.77, 686.76 273.34, 686.08 280.41 C 685.40 287.48, 684.90 291.72, 684.26 299.45 C 683.62 307.18, 683.22 311.62, 682.88 319.07 C 682.54 326.51, 682.32 330.40, 682.56 336.68 C 682.80 342.97, 682.87 345.90, 684.07 350.50 C 685.27 355.10, 685.96 357.19, 688.55 359.70 C 691.14 362.21, 693.21 362.90, 697.02 363.07 C 700.84 363.24, 703.14 362.40, 707.64 360.55 C 712.14 358.71, 714.67 357.01, 719.52 353.82 C 724.38 350.64, 727.12 348.35, 731.92 344.62 C 736.73 340.90, 739.29 338.62, 743.55 335.19 C 747.81 331.76, 749.97 329.88, 753.21 327.49 C 756.44 325.10, 757.97 324.24, 759.74 323.23 C 761.50 322.21, 761.62 321.85, 762.03 322.41 C 762.44 322.98, 761.84 323.83, 761.80 326.05 C 761.76 328.27, 761.74 330.14, 761.82 333.52 C 761.90 336.89, 761.89 339.29, 762.19 342.92 C 762.48 346.56, 762.29 348.80, 763.29 351.71 C 764.29 354.61, 765.28 356.02, 767.18 357.44 C 769.09 358.86, 770.65 359.01, 772.82 358.81 C 774.99 358.61, 776.62 357.83, 778.05 356.43 C 779.47 355.04, 780.11 353.23, 779.92 351.84 C 779.74 350.45, 778.42 349.55, 777.13 349.47 C 775.84 349.38, 774.59 350.48, 773.46 351.41 C 772.34 352.34, 772.13 353.53, 771.50 354.12 C 770.87 354.70, 770.61 355.13, 770.30 354.33 C 769.99 353.53, 770.21 352.49, 769.94 350.11 C 769.68 347.73, 769.18 345.80, 768.95 342.43 C 768.73 339.05, 769.03 336.74, 768.83 333.24 C 768.64 329.73, 768.93 327.63, 767.98 324.90 C 767.02 322.18, 766.07 320.83, 764.05 319.63 C 762.04 318.43, 760.61 318.03, 757.91 318.90 C 755.21 319.78, 753.88 321.33, 750.53 324.01 C 747.18 326.68, 745.32 328.74, 741.15 332.28 C 736.97 335.82, 734.43 338.07, 729.67 341.71 C 724.92 345.35, 722.12 347.52, 717.38 350.48 C 712.64 353.43, 710.04 354.87, 705.99 356.49 C 701.94 358.10, 700.02 358.50, 697.11 358.54 C 694.21 358.58, 693.37 358.46, 691.46 356.66 C 689.54 354.87, 688.71 353.58, 687.54 349.55 C 686.38 345.52, 686.00 342.61, 685.63 336.53 C 685.26 330.46, 685.40 326.55, 685.70 319.19 C 685.99 311.82, 686.39 307.38, 687.12 299.70 C 687.84 292.02, 688.39 287.80, 689.33 280.79 C 690.28 273.78, 690.85 270.22, 691.85 264.66 C 692.85 259.10, 693.63 256.72, 694.34 252.99 C 695.05 249.26, 695.41 248.07, 695.41 246.02 C 695.41 243.98, 695.03 243.50, 694.34 242.77 C 693.66 242.03, 692.88 241.90, 691.99 242.36" style="stroke: black; fill: black;"/><path d="M 771.50,285.86 C 772.58 285.58, 773.44 285.11, 773.37 285.20 C 773.30 285.29, 771.91 286.04, 771.17 286.31 C 770.43 286.59, 769.87 287.00, 769.67 286.56 C 769.47 286.12, 770.49 284.59, 770.17 284.13 C 769.85 283.67, 768.91 283.81, 768.06 284.25 C 767.21 284.68, 765.94 285.82, 765.93 286.30 C 765.92 286.77, 766.90 286.72, 768.02 286.63 C 769.13 286.55, 770.43 286.15, 771.50 285.86" style="stroke: black; fill: black;"/><path d="M 790.69,321.94 C 790.76 322.45, 790.53 321.75, 790.13 321.85 C 789.73 321.95, 789.08 321.61, 788.69 322.43 C 788.29 323.24, 788.16 323.84, 788.15 325.91 C 788.14 327.98, 788.36 329.63, 788.64 332.76 C 788.92 335.89, 789.09 338.10, 789.56 341.55 C 790.03 345.00, 789.85 347.22, 790.99 350.01 C 792.14 352.80, 793.22 354.23, 795.29 355.49 C 797.37 356.76, 798.90 357.09, 801.37 356.35 C 803.83 355.60, 805.17 354.42, 807.60 351.78 C 810.03 349.15, 811.11 346.83, 813.52 343.18 C 815.93 339.53, 817.37 336.93, 819.65 333.52 C 821.93 330.11, 823.50 328.41, 824.91 326.13 C 826.31 323.85, 826.42 322.71, 826.67 322.13 C 826.92 321.55, 826.40 321.81, 826.17 323.24 C 825.94 324.68, 825.46 326.30, 825.51 329.31 C 825.56 332.33, 825.90 334.61, 826.42 338.32 C 826.94 342.02, 827.05 344.31, 828.11 347.83 C 829.17 351.34, 829.66 353.43, 831.71 355.88 C 833.76 358.34, 835.40 359.38, 838.35 360.10 C 841.30 360.83, 843.26 360.77, 846.47 359.52 C 849.69 358.27, 851.30 356.71, 854.45 353.86 C 857.59 351.02, 859.22 348.94, 862.19 345.29 C 865.16 341.64, 866.72 339.24, 869.30 335.61 C 871.88 331.98, 873.77 330.06, 875.10 327.15 C 876.43 324.24, 876.48 322.57, 875.96 321.06 C 875.44 319.56, 874.21 319.00, 872.48 319.64 C 870.76 320.27, 869.17 321.42, 867.35 324.23 C 865.53 327.05, 864.77 329.60, 863.38 333.70 C 861.99 337.79, 861.25 340.47, 860.40 344.73 C 859.54 348.99, 858.78 351.46, 859.10 354.99 C 859.42 358.53, 860.11 360.47, 862.00 362.42 C 863.90 364.37, 865.79 365.14, 868.58 364.73 C 871.37 364.33, 873.17 363.30, 875.96 360.40 C 878.75 357.51, 880.01 355.18, 882.52 350.26 C 885.03 345.34, 886.41 342.14, 888.50 335.81 C 890.60 329.47, 891.62 325.62, 892.98 318.60 C 894.34 311.58, 894.83 307.52, 895.29 300.68 C 895.75 293.85, 895.70 290.21, 895.29 284.43 C 894.87 278.64, 894.48 275.84, 893.22 271.74 C 891.95 267.65, 891.12 265.87, 888.96 263.95 C 886.80 262.03, 884.99 261.69, 882.41 262.16 C 879.83 262.64, 878.01 263.59, 876.07 266.34 C 874.13 269.09, 873.63 271.43, 872.71 275.92 C 871.78 280.42, 871.54 283.21, 871.43 288.82 C 871.33 294.42, 871.47 297.80, 872.20 303.95 C 872.92 310.10, 873.51 313.60, 875.07 319.56 C 876.62 325.52, 877.67 328.67, 879.98 333.75 C 882.28 338.84, 883.62 341.33, 886.58 344.98 C 889.53 348.64, 891.20 350.22, 894.75 352.02 C 898.29 353.82, 900.47 354.20, 904.29 353.98 C 908.11 353.76, 910.18 352.91, 913.86 350.92 C 917.53 348.93, 919.37 347.24, 922.67 344.03 C 925.96 340.83, 927.58 338.61, 930.33 334.90 C 933.07 331.19, 934.31 328.92, 936.40 325.48 C 938.48 322.05, 939.81 320.43, 940.76 317.73 C 941.72 315.03, 941.64 313.65, 941.17 311.98 C 940.70 310.32, 939.85 309.66, 938.41 309.41 C 936.97 309.16, 935.65 309.42, 933.99 310.75 C 932.32 312.08, 931.22 313.33, 930.09 316.07 C 928.96 318.80, 928.92 320.82, 928.33 324.42 C 927.74 328.01, 927.36 330.23, 927.12 334.04 C 926.88 337.85, 926.60 340.04, 927.12 343.47 C 927.63 346.89, 928.11 348.78, 929.69 351.16 C 931.28 353.55, 932.64 354.63, 935.03 355.39 C 937.41 356.15, 939.09 356.02, 941.62 354.97 C 944.15 353.91, 945.66 352.78, 947.68 350.11 C 949.70 347.45, 950.40 345.31, 951.71 341.63 C 953.02 337.96, 953.58 335.58, 954.22 331.73 C 954.87 327.88, 955.26 325.57, 954.94 322.37 C 954.63 319.18, 953.96 317.61, 952.63 315.77 C 951.31 313.93, 950.12 313.32, 948.31 313.17 C 946.49 313.03, 945.06 313.52, 943.57 315.02 C 942.08 316.53, 941.28 318.05, 940.86 320.72 C 940.44 323.39, 940.60 325.29, 941.46 328.38 C 942.32 331.46, 943.32 333.20, 945.16 336.12 C 947.00 339.04, 948.06 340.70, 950.65 342.98 C 953.24 345.26, 954.91 346.57, 958.12 347.53 C 961.33 348.50, 963.32 348.67, 966.71 347.80 C 970.10 346.93, 971.88 345.92, 975.08 343.20 C 978.28 340.48, 979.86 338.61, 982.71 334.19 C 985.56 329.77, 986.90 326.85, 989.32 321.10 C 991.73 315.35, 992.92 311.89, 994.79 305.44 C 996.67 298.99, 997.47 295.23, 998.70 288.87 C 999.94 282.51, 1000.36 279.08, 1000.96 273.64 C 1001.56 268.21, 1001.87 265.61, 1001.72 261.69 C 1001.57 257.77, 1001.38 256.01, 1000.20 254.04 C 999.01 252.07, 997.66 251.49, 995.81 251.85 C 993.95 252.22, 992.29 252.98, 990.94 255.87 C 989.59 258.76, 989.68 261.15, 989.05 266.30 C 988.43 271.45, 988.19 274.86, 987.80 281.61 C 987.42 288.36, 987.24 292.62, 987.12 300.05 C 987.00 307.47, 986.96 311.84, 987.19 318.75 C 987.41 325.65, 987.58 329.19, 988.24 334.57 C 988.89 339.96, 989.05 342.37, 990.45 345.67 C 991.84 348.98, 993.01 350.10, 995.21 351.08 C 997.41 352.05, 999.07 351.73, 1001.45 350.55 C 1003.84 349.37, 1005.17 347.86, 1007.12 345.19 C 1009.08 342.52, 1009.75 340.27, 1011.22 337.19 C 1012.69 334.11, 1013.79 332.19, 1014.48 329.80 C 1015.17 327.40, 1014.86 326.07, 1014.67 325.20 C 1014.47 324.33, 1013.91 324.38, 1013.51 325.46 C 1013.11 326.53, 1012.45 327.95, 1012.66 330.57 C 1012.87 333.18, 1013.45 335.31, 1014.55 338.55 C 1015.66 341.78, 1016.32 343.91, 1018.20 346.74 C 1020.07 349.57, 1021.25 351.09, 1023.93 352.69 C 1026.62 354.29, 1028.47 355.15, 1031.63 354.73 C 1034.79 354.31, 1036.62 353.31, 1039.74 350.60 C 1042.85 347.90, 1044.26 345.88, 1047.20 341.21 C 1050.15 336.54, 1051.77 333.58, 1054.48 327.26 C 1057.18 320.94, 1058.62 316.96, 1060.71 309.60 C 1062.80 302.25, 1063.66 297.94, 1064.93 290.49 C 1066.21 283.05, 1066.62 278.93, 1067.07 272.39 C 1067.51 265.84, 1067.58 262.62, 1067.15 257.77 C 1066.72 252.93, 1066.54 250.72, 1064.91 248.14 C 1063.28 245.57, 1061.52 244.78, 1058.99 244.92 C 1056.47 245.05, 1054.59 245.90, 1052.29 248.80 C 1049.99 251.70, 1049.16 254.21, 1047.49 259.40 C 1045.83 264.59, 1044.97 268.01, 1043.95 274.75 C 1042.92 281.49, 1042.47 285.63, 1042.37 293.12 C 1042.27 300.60, 1042.46 304.90, 1043.46 312.18 C 1044.46 319.45, 1045.22 323.26, 1047.39 329.49 C 1049.57 335.72, 1050.94 338.76, 1054.34 343.34 C 1057.73 347.92, 1059.92 349.84, 1064.37 352.39 C 1068.83 354.95, 1071.97 355.43, 1076.61 356.12 C 1081.26 356.80, 1083.91 356.45, 1087.58 355.83 C 1091.26 355.20, 1093.65 354.06, 1095.00 352.98 C 1096.36 351.90, 1095.96 350.76, 1094.36 350.43 C 1092.75 350.11, 1090.44 351.04, 1087.00 351.35 C 1083.55 351.65, 1081.31 352.38, 1077.13 351.96 C 1072.95 351.55, 1070.14 351.36, 1066.09 349.26 C 1062.04 347.15, 1060.06 345.58, 1056.88 341.43 C 1053.69 337.28, 1052.29 334.44, 1050.17 328.51 C 1048.05 322.58, 1047.25 318.85, 1046.29 311.79 C 1045.33 304.72, 1045.15 300.47, 1045.37 293.18 C 1045.59 285.89, 1046.14 281.80, 1047.39 275.34 C 1048.64 268.88, 1049.80 265.57, 1051.63 260.87 C 1053.47 256.17, 1055.01 254.38, 1056.57 251.85 C 1058.13 249.32, 1058.53 248.55, 1059.44 248.22 C 1060.35 247.88, 1060.32 248.18, 1061.13 250.17 C 1061.93 252.16, 1062.89 253.76, 1063.47 258.17 C 1064.05 262.59, 1064.29 265.85, 1064.02 272.22 C 1063.75 278.59, 1063.37 282.71, 1062.14 290.02 C 1060.92 297.33, 1060.04 301.61, 1057.90 308.78 C 1055.75 315.96, 1054.24 319.86, 1051.41 325.89 C 1048.59 331.91, 1046.78 334.75, 1043.78 338.90 C 1040.78 343.06, 1039.00 344.58, 1036.42 346.66 C 1033.85 348.74, 1032.73 349.04, 1030.89 349.31 C 1029.06 349.57, 1028.55 349.17, 1027.25 347.97 C 1025.96 346.77, 1025.40 345.65, 1024.41 343.30 C 1023.41 340.94, 1023.05 339.14, 1022.29 336.21 C 1021.53 333.27, 1021.67 331.14, 1020.61 328.61 C 1019.55 326.08, 1018.62 324.75, 1016.99 323.56 C 1015.37 322.38, 1014.32 322.11, 1012.47 322.70 C 1010.62 323.29, 1009.37 324.23, 1007.77 326.49 C 1006.16 328.76, 1005.81 331.03, 1004.44 334.01 C 1003.07 337.00, 1002.11 338.89, 1000.91 341.42 C 999.71 343.96, 999.28 345.35, 998.44 346.68 C 997.60 348.02, 997.49 348.61, 996.71 348.09 C 995.94 347.56, 995.55 346.87, 994.54 344.06 C 993.54 341.26, 992.55 339.16, 991.70 334.08 C 990.84 328.99, 990.56 325.42, 990.27 318.63 C 989.98 311.84, 990.00 307.47, 990.23 300.12 C 990.46 292.77, 990.71 288.51, 991.42 281.90 C 992.12 275.30, 992.69 271.88, 993.74 267.09 C 994.79 262.29, 996.05 260.54, 996.67 257.92 C 997.29 255.31, 996.89 254.53, 996.86 254.02 C 996.82 253.50, 996.43 253.78, 996.50 255.35 C 996.57 256.92, 997.03 258.29, 997.20 261.89 C 997.38 265.48, 997.71 268.05, 997.37 273.33 C 997.03 278.60, 996.65 282.03, 995.50 288.27 C 994.36 294.50, 993.55 298.23, 991.65 304.50 C 989.74 310.78, 988.49 314.19, 986.00 319.65 C 983.51 325.11, 982.01 327.88, 979.19 331.81 C 976.38 335.73, 974.68 337.20, 971.92 339.26 C 969.16 341.32, 967.75 341.64, 965.40 342.10 C 963.04 342.56, 962.17 342.36, 960.14 341.55 C 958.11 340.75, 957.00 339.87, 955.25 338.08 C 953.49 336.29, 952.54 334.94, 951.38 332.58 C 950.21 330.23, 949.97 328.60, 949.43 326.29 C 948.88 323.99, 948.88 322.78, 948.64 321.05 C 948.41 319.31, 948.37 318.56, 948.24 317.60 C 948.11 316.64, 948.03 316.22, 948.00 316.25 C 947.98 316.28, 948.06 316.43, 948.10 317.73 C 948.13 319.03, 948.17 320.14, 948.16 322.74 C 948.16 325.35, 948.59 327.44, 948.09 330.75 C 947.60 334.07, 946.94 336.30, 945.69 339.34 C 944.44 342.38, 943.22 343.84, 941.84 345.97 C 940.45 348.10, 939.82 348.98, 938.75 349.99 C 937.69 351.00, 937.30 351.35, 936.51 351.03 C 935.72 350.71, 935.42 350.08, 934.81 348.41 C 934.21 346.73, 933.77 345.42, 933.48 342.64 C 933.19 339.87, 933.03 337.87, 933.37 334.55 C 933.70 331.22, 934.20 329.08, 935.16 326.02 C 936.13 322.95, 937.33 321.59, 938.19 319.22 C 939.04 316.84, 939.29 315.72, 939.44 314.14 C 939.58 312.55, 939.31 311.84, 938.91 311.31 C 938.52 310.79, 938.25 310.72, 937.47 311.52 C 936.69 312.32, 936.13 313.05, 935.01 315.33 C 933.89 317.61, 933.56 319.58, 931.85 322.93 C 930.13 326.28, 928.95 328.55, 926.44 332.08 C 923.93 335.61, 922.31 337.68, 919.32 340.59 C 916.33 343.50, 914.57 344.91, 911.50 346.62 C 908.42 348.34, 906.89 348.90, 903.93 349.19 C 900.97 349.47, 899.56 349.39, 896.70 348.04 C 893.84 346.69, 892.32 345.62, 889.62 342.46 C 886.93 339.30, 885.47 337.00, 883.23 332.25 C 880.99 327.49, 879.90 324.43, 878.41 318.69 C 876.93 312.95, 876.36 309.50, 875.80 303.56 C 875.24 297.63, 875.23 294.29, 875.61 289.00 C 875.99 283.72, 876.59 281.04, 877.71 277.14 C 878.83 273.25, 880.05 271.76, 881.21 269.52 C 882.36 267.29, 882.53 266.46, 883.47 265.96 C 884.40 265.46, 884.72 265.62, 885.88 267.03 C 887.05 268.44, 888.09 269.47, 889.30 273.01 C 890.51 276.55, 891.33 279.23, 891.92 284.72 C 892.51 290.22, 892.63 293.84, 892.23 300.49 C 891.84 307.14, 891.34 311.16, 889.94 317.99 C 888.53 324.82, 887.44 328.61, 885.20 334.65 C 882.96 340.68, 881.36 343.77, 878.73 348.17 C 876.10 352.58, 874.30 354.27, 872.05 356.67 C 869.79 359.08, 868.79 359.56, 867.46 360.17 C 866.12 360.79, 865.89 360.82, 865.39 359.74 C 864.89 358.66, 864.85 357.55, 864.95 354.79 C 865.06 352.03, 865.01 349.69, 865.90 345.93 C 866.80 342.18, 867.86 339.67, 869.43 336.01 C 871.01 332.36, 872.62 330.48, 873.79 327.65 C 874.96 324.82, 875.36 323.33, 875.30 321.86 C 875.24 320.39, 874.61 319.86, 873.49 320.31 C 872.37 320.76, 871.39 321.64, 869.70 324.12 C 868.01 326.61, 867.32 329.15, 865.04 332.74 C 862.76 336.33, 861.15 338.69, 858.30 342.08 C 855.46 345.48, 853.67 347.35, 850.83 349.72 C 847.99 352.09, 846.38 352.87, 844.12 353.93 C 841.86 354.99, 841.06 355.32, 839.54 355.01 C 838.01 354.69, 837.55 354.11, 836.49 352.36 C 835.43 350.60, 834.87 349.17, 834.22 346.22 C 833.58 343.26, 833.54 341.10, 833.27 337.57 C 833.01 334.05, 833.45 331.78, 832.90 328.60 C 832.36 325.42, 831.95 323.56, 830.54 321.68 C 829.12 319.81, 827.93 319.12, 825.82 319.23 C 823.72 319.34, 822.20 320.00, 820.01 322.23 C 817.83 324.47, 817.16 326.88, 814.89 330.40 C 812.62 333.92, 811.10 336.41, 808.65 339.84 C 806.20 343.26, 804.52 345.10, 802.62 347.53 C 800.73 349.96, 800.10 351.03, 799.18 351.99 C 798.26 352.95, 798.30 353.08, 798.02 352.32 C 797.73 351.56, 797.97 350.48, 797.74 348.19 C 797.52 345.90, 797.05 344.03, 796.89 340.86 C 796.73 337.69, 796.98 335.48, 796.95 332.34 C 796.92 329.21, 797.12 327.48, 796.73 325.17 C 796.35 322.86, 795.96 322.07, 795.02 320.79 C 794.08 319.51, 793.10 319.07, 792.05 318.76 C 791.00 318.46, 790.05 318.62, 789.77 319.26 C 789.50 319.89, 790.61 321.42, 790.69 321.94" style="stroke: black; fill: black;"/></svg>