<svg xmlns="http://www.w3.org/2000/svg" id="canvas" viewBox="222.560 220.689 870.993 200.993"><path d="M 251.60,282.68 C 250.65 284.30, 249.87 286.66, 248.18 291.29 C 246.49 295.93, 245.33 299.14, 243.16 305.84 C 240.98 312.53, 239.51 316.96, 237.32 324.78 C 235.13 332.60, 234.01 337.07, 232.21 344.94 C 230.40 352.80, 229.52 356.88, 228.29 364.11 C 227.06 371.35, 226.57 374.94, 226.06 381.10 C 225.54 387.26, 225.43 390.08, 225.71 394.92 C 225.99 399.77, 226.23 401.79, 227.46 405.32 C 228.68 408.84, 229.64 410.22, 231.85 412.55 C 234.06 414.89, 235.54 415.77, 238.51 416.99 C 241.47 418.20, 243.19 418.42, 246.67 418.62 C 250.14 418.82, 252.02 418.52, 255.89 417.97 C 259.76 417.43, 261.87 416.96, 266.02 415.92 C 270.16 414.87, 272.43 414.20, 276.62 412.76 C 280.81 411.31, 283.03 410.45, 286.97 408.69 C 290.92 406.93, 292.94 405.91, 296.36 403.96 C 299.77 402.00, 301.48 401.01, 304.05 398.93 C 306.62 396.84, 307.74 395.60, 309.22 393.54 C 310.70 391.48, 310.98 390.30, 311.45 388.63 C 311.92 386.96, 311.76 385.93, 311.57 385.19 C 311.38 384.46, 310.96 384.45, 310.50 384.96 C 310.04 385.47, 310.01 386.40, 309.26 387.75 C 308.52 389.10, 308.19 389.92, 306.78 391.71 C 305.37 393.50, 304.54 394.69, 302.20 396.70 C 299.86 398.71, 298.31 399.81, 295.07 401.77 C 291.83 403.73, 289.84 404.77, 285.99 406.52 C 282.15 408.26, 279.96 409.11, 275.85 410.50 C 271.73 411.89, 269.48 412.52, 265.42 413.48 C 261.36 414.44, 259.26 414.84, 255.54 415.29 C 251.83 415.74, 250.03 415.93, 246.84 415.73 C 243.64 415.53, 242.20 415.30, 239.57 414.30 C 236.95 413.30, 235.72 412.67, 233.70 410.72 C 231.69 408.78, 230.74 407.75, 229.50 404.56 C 228.26 401.38, 227.89 399.47, 227.50 394.80 C 227.11 390.13, 227.14 387.31, 227.56 381.22 C 227.99 375.13, 228.44 371.54, 229.62 364.34 C 230.81 357.14, 231.68 353.07, 233.50 345.24 C 235.32 337.40, 236.47 332.95, 238.71 325.18 C 240.96 317.40, 242.49 313.01, 244.72 306.35 C 246.96 299.70, 248.26 296.55, 249.90 291.91 C 251.55 287.28, 252.61 285.03, 252.95 283.18 C 253.29 281.34, 252.56 281.06, 251.60 282.68" style="stroke: black; fill: black;"/><path d="M 233.33,324.07 C 233.95 324.34, 234.41 324.43, 236.08 324.21 C 237.75 324.00, 238.95 323.94, 241.67 322.98 C 244.40 322.02, 246.10 321.08, 249.71 319.40 C 253.32 317.73, 255.66 316.62, 259.71 314.61 C 263.76 312.61, 265.97 311.46, 269.94 309.38 C 273.91 307.30, 276.04 306.21, 279.55 304.21 C 283.06 302.21, 284.75 301.26, 287.50 299.37 C 290.25 297.48, 291.51 296.43, 293.29 294.77 C 295.06 293.11, 295.55 292.32, 296.38 291.08 C 297.20 289.84, 297.36 289.17, 297.41 288.56 C 297.47 287.95, 297.18 287.81, 296.65 288.03 C 296.13 288.25, 295.86 288.77, 294.79 289.67 C 293.72 290.56, 293.08 291.02, 291.29 292.50 C 289.50 293.98, 288.46 295.15, 285.86 297.06 C 283.26 298.98, 281.71 300.04, 278.31 302.08 C 274.90 304.11, 272.77 305.21, 268.83 307.25 C 264.89 309.30, 262.67 310.43, 258.60 312.28 C 254.53 314.14, 252.16 315.14, 248.50 316.53 C 244.84 317.91, 242.96 318.21, 240.31 319.19 C 237.65 320.16, 236.68 320.65, 235.22 321.39 C 233.76 322.12, 233.38 322.32, 233.01 322.86 C 232.63 323.40, 232.72 323.80, 233.33 324.07" style="stroke: black; fill: black;"/><path d="M 268.27,257.31 C 268.63 257.32, 268.35 257.41, 269.22 256.98 C 270.09 256.56, 270.79 256.38, 272.61 255.19 C 274.43 254.00, 275.55 252.95, 278.32 251.04 C 281.08 249.12, 282.97 247.85, 286.43 245.62 C 289.89 243.38, 292.07 242.10, 295.63 239.88 C 299.19 237.66, 301.05 236.40, 304.24 234.50 C 307.43 232.61, 309.04 231.84, 311.58 230.41 C 314.11 228.99, 315.30 228.34, 316.93 227.39 C 318.55 226.44, 318.98 226.16, 319.71 225.66 C 320.43 225.15, 320.37 225.03, 320.54 224.86 C 320.72 224.69, 320.51 224.86, 320.58 224.81 C 320.65 224.76, 320.90 224.78, 320.89 224.61 C 320.89 224.44, 320.94 224.15, 320.55 223.97 C 320.16 223.80, 319.93 223.58, 318.95 223.75 C 317.96 223.92, 317.42 224.06, 315.63 224.84 C 313.85 225.63, 312.58 226.20, 310.02 227.67 C 307.46 229.14, 305.98 230.20, 302.83 232.20 C 299.67 234.19, 297.83 235.44, 294.24 237.63 C 290.66 239.81, 288.50 241.06, 284.91 243.11 C 281.32 245.17, 279.27 246.16, 276.31 247.89 C 273.36 249.63, 271.92 250.34, 270.13 251.79 C 268.33 253.24, 267.88 254.11, 267.33 255.14 C 266.78 256.17, 267.20 256.50, 267.38 256.94 C 267.57 257.37, 267.90 257.30, 268.27 257.31" style="stroke: black; fill: black;"/><path d="M 320.30,230.46 C 319.78 231.64, 319.50 233.08, 319.06 236.52 C 318.63 239.96, 318.56 242.16, 318.12 247.67 C 317.69 253.19, 317.44 256.88, 316.87 264.11 C 316.31 271.34, 315.95 275.45, 315.30 283.82 C 314.66 292.19, 314.29 297.00, 313.65 305.96 C 313.01 314.92, 312.67 319.86, 312.11 328.62 C 311.55 337.37, 311.22 341.92, 310.86 349.74 C 310.49 357.55, 310.43 361.38, 310.29 367.70 C 310.14 374.02, 310.10 376.91, 310.13 381.33 C 310.16 385.74, 309.94 387.40, 310.45 389.78 C 310.95 392.16, 311.51 393.24, 312.64 393.24 C 313.77 393.25, 314.94 392.05, 316.09 389.80 C 317.23 387.56, 317.82 385.13, 318.38 382.02 C 318.94 378.90, 319.20 375.87, 318.90 374.23 C 318.61 372.59, 317.82 372.43, 316.89 373.80 C 315.96 375.18, 315.03 378.11, 314.23 381.10 C 313.44 384.09, 313.26 386.48, 312.93 388.77 C 312.59 391.06, 312.62 392.39, 312.56 392.54 C 312.49 392.69, 312.70 391.75, 312.59 389.50 C 312.49 387.25, 312.20 385.64, 312.04 381.28 C 311.87 376.93, 311.74 374.02, 311.75 367.72 C 311.77 361.42, 311.81 357.60, 312.11 349.79 C 312.42 341.99, 312.74 337.44, 313.29 328.69 C 313.84 319.94, 314.18 315.00, 314.85 306.05 C 315.51 297.10, 315.90 292.29, 316.63 283.93 C 317.36 275.57, 317.78 271.46, 318.49 264.25 C 319.20 257.04, 319.57 253.36, 320.17 247.87 C 320.78 242.37, 321.21 240.23, 321.51 236.78 C 321.81 233.33, 321.91 231.88, 321.67 230.62 C 321.43 229.36, 320.82 229.28, 320.30 230.46" style="stroke: black; fill: black;"/><path d="M 343.52,240.52 C 343.08 240.82, 342.67 240.62, 342.26 242.25 C 341.85 243.87, 341.70 244.81, 341.46 248.64 C 341.22 252.48, 341.37 255.14, 341.06 261.44 C 340.76 267.74, 340.45 272.03, 339.95 280.14 C 339.45 288.25, 339.12 293.21, 338.55 302.00 C 337.98 310.80, 337.60 315.63, 337.11 324.13 C 336.63 332.62, 336.37 337.04, 336.12 344.48 C 335.87 351.91, 335.82 355.44, 335.86 361.30 C 335.90 367.15, 335.96 369.67, 336.31 373.74 C 336.66 377.82, 336.78 379.41, 337.62 381.67 C 338.47 383.93, 339.23 384.57, 340.54 385.03 C 341.85 385.49, 342.76 385.39, 344.18 383.98 C 345.61 382.57, 346.25 381.37, 347.67 377.99 C 349.08 374.60, 349.57 372.30, 351.25 367.06 C 352.93 361.82, 353.88 358.39, 356.06 351.79 C 358.23 345.19, 359.58 340.97, 362.12 334.07 C 364.66 327.17, 366.19 323.23, 368.75 317.29 C 371.31 311.34, 372.76 308.43, 374.91 304.36 C 377.06 300.30, 378.27 298.64, 379.50 296.96 C 380.72 295.27, 380.67 294.98, 381.04 295.93 C 381.40 296.87, 381.19 298.20, 381.32 301.68 C 381.45 305.16, 381.65 307.85, 381.70 313.32 C 381.75 318.79, 381.65 322.56, 381.58 329.04 C 381.50 335.53, 381.38 339.47, 381.33 345.74 C 381.28 352.01, 381.26 355.21, 381.34 360.39 C 381.42 365.58, 381.43 367.99, 381.73 371.66 C 382.02 375.34, 382.28 376.67, 382.80 378.76 C 383.32 380.85, 383.76 381.25, 384.32 382.10 C 384.89 382.96, 385.27 382.92, 385.62 383.03 C 385.97 383.14, 386.07 382.94, 386.08 382.64 C 386.08 382.35, 385.82 382.41, 385.64 381.54 C 385.46 380.66, 385.52 380.29, 385.20 378.27 C 384.87 376.25, 384.43 375.03, 384.03 371.45 C 383.64 367.86, 383.41 365.48, 383.22 360.34 C 383.03 355.21, 383.03 352.01, 383.08 345.76 C 383.13 339.50, 383.29 335.56, 383.47 329.08 C 383.66 322.59, 383.90 318.85, 384.01 313.33 C 384.12 307.81, 384.40 305.12, 384.01 301.48 C 383.63 297.85, 383.28 296.32, 382.08 295.15 C 380.89 293.99, 379.82 293.99, 378.04 295.65 C 376.26 297.31, 375.33 299.26, 373.18 303.46 C 371.02 307.66, 369.77 310.64, 367.26 316.66 C 364.76 322.67, 363.23 326.61, 360.65 333.53 C 358.08 340.44, 356.71 344.67, 354.41 351.23 C 352.11 357.79, 351.07 361.22, 349.16 366.34 C 347.25 371.45, 346.24 373.57, 344.87 376.80 C 343.49 380.03, 343.03 381.08, 342.27 382.49 C 341.50 383.89, 341.54 384.15, 341.04 383.84 C 340.55 383.54, 340.35 383.03, 339.80 380.97 C 339.26 378.91, 338.79 377.47, 338.31 373.53 C 337.83 369.59, 337.58 367.07, 337.40 361.27 C 337.23 355.46, 337.24 351.93, 337.43 344.52 C 337.62 337.10, 337.86 332.68, 338.34 324.20 C 338.82 315.71, 339.21 310.88, 339.83 302.09 C 340.45 293.30, 340.80 288.35, 341.44 280.25 C 342.09 272.14, 342.46 267.85, 343.05 261.58 C 343.64 255.30, 344.07 252.67, 344.41 248.87 C 344.76 245.07, 344.76 244.19, 344.76 242.57 C 344.77 240.95, 344.69 241.18, 344.44 240.77 C 344.19 240.36, 343.95 240.22, 343.52 240.52" style="stroke: black; fill: black;"/><path d="M 390.96,253.93 C 390.53 254.32, 390.32 254.91, 390.46 255.40 C 390.60 255.90, 391.08 256.31, 391.66 256.42 C 392.24 256.52, 392.93 256.32, 393.37 255.93 C 393.80 255.53, 393.99 254.93, 393.85 254.44 C 393.70 253.94, 393.22 253.55, 392.64 253.45 C 392.07 253.35, 391.40 253.54, 390.96 253.93" style="stroke: black; fill: black;"/><path d="M 417.61,299.62 C 417.20 300.37, 417.01 301.04, 416.84 303.32 C 416.67 305.61, 416.76 307.15, 416.76 311.06 C 416.76 314.98, 416.88 317.66, 416.83 322.92 C 416.77 328.17, 416.65 331.45, 416.48 337.34 C 416.32 343.24, 416.23 346.68, 415.99 352.38 C 415.74 358.08, 415.54 361.04, 415.27 365.85 C 415.00 370.65, 414.72 372.94, 414.64 376.42 C 414.56 379.90, 414.54 381.44, 414.87 383.23 C 415.19 385.03, 415.62 385.56, 416.27 385.40 C 416.91 385.23, 417.55 384.77, 418.08 382.40 C 418.62 380.03, 418.40 378.12, 418.93 373.56 C 419.45 369.00, 419.60 365.75, 420.70 359.61 C 421.80 353.46, 422.57 349.50, 424.43 342.82 C 426.29 336.15, 427.49 332.25, 429.99 326.24 C 432.50 320.23, 434.12 317.19, 436.97 312.78 C 439.82 308.36, 441.55 306.61, 444.25 304.15 C 446.94 301.68, 448.28 301.07, 450.44 300.45 C 452.61 299.82, 453.46 299.90, 455.06 301.02 C 456.66 302.15, 457.31 303.13, 458.44 306.08 C 459.58 309.03, 460.13 311.09, 460.73 315.77 C 461.34 320.44, 461.41 323.59, 461.47 329.44 C 461.52 335.28, 461.30 338.92, 461.00 344.99 C 460.70 351.06, 460.33 354.38, 459.96 359.78 C 459.59 365.18, 459.31 367.76, 459.16 371.98 C 459.02 376.20, 458.80 378.07, 459.22 380.87 C 459.64 383.67, 460.36 384.58, 461.28 385.97 C 462.20 387.36, 462.93 387.48, 463.81 387.82 C 464.70 388.17, 465.32 387.91, 465.72 387.71 C 466.11 387.50, 466.03 387.05, 465.79 386.80 C 465.55 386.55, 465.05 386.81, 464.52 386.44 C 464.00 386.06, 463.68 386.12, 463.16 384.93 C 462.65 383.73, 462.31 383.05, 461.95 380.47 C 461.58 377.89, 461.36 376.13, 461.34 372.01 C 461.32 367.90, 461.55 365.28, 461.85 359.90 C 462.14 354.51, 462.51 351.17, 462.84 345.08 C 463.16 338.99, 463.42 335.35, 463.47 329.44 C 463.51 323.52, 463.56 320.37, 463.07 315.50 C 462.58 310.62, 462.36 308.35, 461.02 305.06 C 459.68 301.76, 458.61 300.40, 456.37 299.02 C 454.13 297.64, 452.53 297.46, 449.82 298.17 C 447.11 298.89, 445.67 299.86, 442.80 302.59 C 439.93 305.32, 438.33 307.23, 435.47 311.83 C 432.61 316.44, 431.03 319.51, 428.50 325.62 C 425.96 331.72, 424.77 335.64, 422.81 342.36 C 420.86 349.08, 420.03 353.05, 418.72 359.22 C 417.41 365.39, 416.98 368.63, 416.25 373.20 C 415.53 377.76, 415.15 379.63, 415.09 382.03 C 415.04 384.44, 415.60 384.99, 415.99 385.22 C 416.37 385.45, 416.79 384.93, 417.03 383.18 C 417.27 381.43, 417.14 379.92, 417.20 376.47 C 417.25 373.02, 417.17 370.73, 417.30 365.93 C 417.44 361.13, 417.64 358.16, 417.86 352.46 C 418.09 346.76, 418.19 343.31, 418.45 337.41 C 418.70 331.52, 418.90 328.25, 419.15 322.99 C 419.41 317.73, 419.59 315.05, 419.72 311.12 C 419.85 307.18, 419.98 305.63, 419.82 303.33 C 419.65 301.02, 419.34 300.34, 418.89 299.60 C 418.45 298.86, 418.02 298.88, 417.61 299.62" style="stroke: black; fill: black;"/><path d="M 515.64,304.11 C 515.44 303.36, 514.90 302.43, 513.69 301.55 C 512.48 300.67, 511.56 300.05, 509.58 299.70 C 507.60 299.35, 506.21 298.98, 503.80 299.79 C 501.40 300.60, 500.04 301.27, 497.55 303.73 C 495.07 306.19, 493.84 307.81, 491.37 312.09 C 488.89 316.37, 487.40 319.21, 485.18 325.12 C 482.96 331.04, 481.78 334.91, 480.26 341.66 C 478.73 348.41, 478.14 352.51, 477.57 358.87 C 477.00 365.23, 476.90 368.48, 477.42 373.45 C 477.95 378.41, 478.60 380.53, 480.21 383.69 C 481.82 386.85, 483.04 387.91, 485.47 389.26 C 487.91 390.62, 489.52 390.85, 492.38 390.48 C 495.24 390.11, 496.94 389.43, 499.76 387.41 C 502.58 385.38, 503.96 384.01, 506.49 380.36 C 509.03 376.70, 510.28 374.36, 512.44 369.15 C 514.61 363.93, 515.71 360.52, 517.32 354.30 C 518.93 348.07, 519.60 344.28, 520.49 338.02 C 521.39 331.75, 521.62 328.32, 521.81 322.97 C 521.99 317.62, 521.85 315.17, 521.42 311.26 C 520.99 307.36, 520.55 305.84, 519.65 303.44 C 518.76 301.05, 517.95 300.45, 516.95 299.29 C 515.95 298.12, 515.44 297.95, 514.66 297.61 C 513.88 297.27, 513.49 297.45, 513.06 297.59 C 512.62 297.74, 512.49 298.09, 512.49 298.34 C 512.48 298.59, 512.88 298.75, 513.02 298.83 C 513.17 298.91, 513.08 298.68, 513.21 298.75 C 513.35 298.82, 513.30 298.80, 513.70 299.18 C 514.09 299.56, 514.48 299.62, 515.19 300.65 C 515.89 301.68, 516.42 302.17, 517.23 304.34 C 518.03 306.52, 518.67 307.83, 519.22 311.54 C 519.76 315.26, 520.04 317.68, 519.95 322.92 C 519.86 328.17, 519.65 331.59, 518.78 337.77 C 517.91 343.96, 517.23 347.72, 515.59 353.84 C 513.95 359.96, 512.80 363.33, 510.59 368.36 C 508.38 373.38, 507.03 375.60, 504.53 378.94 C 502.03 382.28, 500.60 383.29, 498.08 385.03 C 495.57 386.77, 494.24 387.23, 491.95 387.65 C 489.65 388.07, 488.57 388.13, 486.62 387.13 C 484.66 386.13, 483.65 385.44, 482.19 382.66 C 480.72 379.88, 479.86 377.97, 479.27 373.24 C 478.68 368.50, 478.71 365.25, 479.24 359.01 C 479.76 352.77, 480.36 348.68, 481.89 342.03 C 483.43 335.39, 484.64 331.55, 486.93 325.80 C 489.22 320.05, 490.80 317.26, 493.35 313.29 C 495.89 309.33, 497.37 308.03, 499.67 305.98 C 501.97 303.94, 502.99 303.63, 504.85 303.08 C 506.70 302.53, 507.49 302.99, 508.95 303.25 C 510.41 303.51, 510.98 303.97, 512.13 304.39 C 513.27 304.81, 513.98 305.40, 514.68 305.34 C 515.38 305.29, 515.84 304.87, 515.64 304.11" style="stroke: black; fill: black;"/><path d="M 545.70,303.32 C 545.22 304.19, 544.88 305.07, 544.59 307.77 C 544.30 310.47, 544.44 312.32, 544.26 316.80 C 544.08 321.29, 543.99 324.39, 543.66 330.19 C 543.34 335.99, 543.05 339.60, 542.62 345.81 C 542.19 352.02, 541.96 355.50, 541.51 361.23 C 541.06 366.96, 540.78 370.01, 540.37 374.48 C 539.97 378.95, 539.55 380.78, 539.48 383.60 C 539.41 386.42, 539.65 387.47, 540.03 388.59 C 540.42 389.71, 540.86 389.97, 541.39 389.19 C 541.93 388.42, 542.42 387.55, 542.71 384.73 C 543.00 381.90, 542.50 379.79, 542.83 375.07 C 543.16 370.35, 543.40 367.10, 544.38 361.12 C 545.36 355.13, 546.02 351.35, 547.73 345.15 C 549.44 338.96, 550.59 335.54, 552.92 330.15 C 555.24 324.75, 556.71 322.22, 559.36 318.19 C 562.00 314.16, 563.45 312.65, 566.15 310.00 C 568.85 307.34, 570.21 306.43, 572.87 304.90 C 575.53 303.37, 576.86 303.02, 579.44 302.33 C 582.02 301.64, 583.44 301.61, 585.78 301.43 C 588.12 301.25, 589.30 301.47, 591.14 301.44 C 592.98 301.41, 594.16 301.57, 594.97 301.29 C 595.78 301.02, 595.89 300.59, 595.18 300.06 C 594.47 299.53, 593.33 299.03, 591.41 298.64 C 589.48 298.25, 588.13 297.97, 585.56 298.10 C 582.99 298.24, 581.36 298.42, 578.55 299.34 C 575.74 300.26, 574.30 300.87, 571.51 302.70 C 568.72 304.52, 567.35 305.58, 564.60 308.48 C 561.86 311.37, 560.44 312.98, 557.79 317.18 C 555.13 321.37, 553.68 323.96, 551.33 329.47 C 548.98 334.97, 547.83 338.42, 546.04 344.68 C 544.25 350.94, 543.57 354.74, 542.39 360.76 C 541.21 366.78, 540.80 370.03, 540.14 374.79 C 539.48 379.54, 539.08 381.68, 539.09 384.55 C 539.10 387.43, 539.70 388.34, 540.19 389.16 C 540.68 389.97, 541.10 389.71, 541.52 388.62 C 541.95 387.53, 542.12 386.53, 542.31 383.73 C 542.50 380.93, 542.26 379.10, 542.47 374.62 C 542.68 370.15, 542.95 367.10, 543.34 361.36 C 543.74 355.63, 543.97 352.15, 544.46 345.95 C 544.94 339.74, 545.29 336.14, 545.77 330.34 C 546.26 324.54, 546.50 321.44, 546.86 316.96 C 547.23 312.48, 547.57 310.66, 547.61 307.95 C 547.64 305.23, 547.40 304.32, 547.02 303.40 C 546.64 302.47, 546.19 302.45, 545.70 303.32" style="stroke: black; fill: black;"/><path d="M 706.63,233.83 C 706.11 234.43, 705.76 234.82, 705.25 237.05 C 704.74 239.27, 704.68 240.75, 704.10 244.95 C 703.51 249.15, 703.27 251.78, 702.33 258.05 C 701.39 264.33, 700.80 268.34, 699.40 276.33 C 698.01 284.32, 697.11 289.12, 695.34 298.00 C 693.58 306.89, 692.45 311.86, 690.60 320.75 C 688.75 329.65, 687.74 334.37, 686.11 342.49 C 684.49 350.60, 683.70 354.59, 682.48 361.33 C 681.26 368.07, 680.68 371.09, 680.02 376.19 C 679.36 381.29, 679.04 383.27, 679.19 386.83 C 679.35 390.38, 679.61 391.77, 680.79 393.98 C 681.96 396.18, 682.91 396.93, 685.07 397.84 C 687.24 398.75, 688.69 398.91, 691.61 398.53 C 694.54 398.15, 696.13 397.43, 699.71 395.94 C 703.29 394.45, 705.35 393.39, 709.53 391.08 C 713.70 388.78, 716.11 387.34, 720.57 384.41 C 725.02 381.48, 727.42 379.77, 731.80 376.42 C 736.18 373.08, 738.52 371.13, 742.47 367.69 C 746.42 364.26, 748.32 362.41, 751.54 359.25 C 754.75 356.08, 756.13 354.56, 758.56 351.86 C 761.00 349.15, 762.07 347.94, 763.70 345.72 C 765.33 343.51, 765.91 342.47, 766.70 340.77 C 767.48 339.07, 767.70 338.11, 767.62 337.22 C 767.54 336.34, 766.97 335.83, 766.31 336.34 C 765.64 336.86, 764.90 337.57, 764.30 339.79 C 763.70 342.02, 763.62 343.83, 763.30 347.46 C 762.99 351.10, 762.86 353.58, 762.72 357.95 C 762.58 362.33, 762.56 365.04, 762.60 369.33 C 762.65 373.63, 762.74 375.85, 762.95 379.43 C 763.17 383.00, 763.29 384.66, 763.69 387.21 C 764.08 389.76, 764.46 390.71, 764.93 392.16 C 765.39 393.62, 765.67 393.89, 766.02 394.48 C 766.37 395.08, 766.46 395.05, 766.69 395.16 C 766.93 395.26, 767.04 395.22, 767.19 395.02 C 767.33 394.81, 767.37 394.82, 767.42 394.14 C 767.46 393.47, 767.54 393.13, 767.40 391.65 C 767.26 390.18, 767.05 389.26, 766.71 386.77 C 766.38 384.29, 766.01 382.72, 765.71 379.23 C 765.41 375.73, 765.24 373.53, 765.21 369.31 C 765.19 365.09, 765.23 362.40, 765.57 358.12 C 765.92 353.83, 766.44 351.42, 766.95 347.88 C 767.46 344.35, 767.99 342.68, 768.13 340.43 C 768.27 338.17, 768.05 337.39, 767.65 336.62 C 767.25 335.85, 766.83 336.03, 766.13 336.58 C 765.43 337.13, 765.14 337.88, 764.16 339.37 C 763.18 340.85, 762.75 341.81, 761.25 343.98 C 759.76 346.16, 758.93 347.49, 756.69 350.25 C 754.44 353.00, 753.13 354.55, 750.03 357.74 C 746.92 360.94, 745.06 362.79, 741.18 366.22 C 737.30 369.65, 734.98 371.59, 730.63 374.88 C 726.28 378.17, 723.89 379.85, 719.44 382.66 C 715.00 385.48, 712.56 386.85, 708.40 388.97 C 704.25 391.09, 702.12 391.99, 698.66 393.25 C 695.20 394.50, 693.66 394.79, 691.11 395.25 C 688.56 395.70, 687.57 395.99, 685.91 395.53 C 684.25 395.06, 683.71 394.68, 682.80 392.92 C 681.90 391.15, 681.59 390.02, 681.37 386.71 C 681.14 383.40, 681.19 381.40, 681.68 376.38 C 682.17 371.35, 682.70 368.29, 683.83 361.56 C 684.95 354.83, 685.72 350.83, 687.30 342.72 C 688.88 334.60, 689.89 329.88, 691.74 320.99 C 693.59 312.10, 694.74 307.13, 696.56 298.25 C 698.37 289.37, 699.30 284.57, 700.82 276.59 C 702.35 268.62, 703.01 264.61, 704.19 258.37 C 705.36 252.12, 705.93 249.54, 706.70 245.37 C 707.48 241.20, 707.84 239.77, 708.07 237.51 C 708.29 235.24, 708.11 234.77, 707.82 234.03 C 707.53 233.30, 707.14 233.23, 706.63 233.83" style="stroke: black; fill: black;"/><path d="M 771.55,277.04 C 771.90 276.58, 771.93 276.02, 771.72 275.59 C 771.51 275.15, 771.04 274.89, 770.48 274.87 C 769.93 274.85, 769.31 275.05, 768.92 275.48 C 768.54 275.91, 768.36 276.55, 768.57 277.04 C 768.78 277.52, 769.37 277.88, 769.97 277.88 C 770.56 277.89, 771.20 277.50, 771.55 277.04" style="stroke: black; fill: black;"/><path d="M 798.21,320.96 C 797.82 321.83, 797.74 322.76, 797.61 325.24 C 797.48 327.72, 797.62 329.32, 797.57 333.37 C 797.52 337.41, 797.56 340.30, 797.37 345.48 C 797.18 350.65, 797.03 353.82, 796.62 359.24 C 796.22 364.65, 795.89 367.67, 795.35 372.57 C 794.80 377.47, 794.32 380.03, 793.89 383.74 C 793.46 387.45, 793.10 389.09, 793.18 391.11 C 793.27 393.13, 793.68 393.78, 794.32 393.84 C 794.97 393.90, 795.68 393.59, 796.42 391.39 C 797.15 389.20, 797.17 387.22, 797.99 382.87 C 798.82 378.51, 799.20 375.40, 800.56 369.62 C 801.91 363.83, 802.71 360.06, 804.78 353.94 C 806.85 347.82, 808.21 344.28, 810.90 339.02 C 813.60 333.76, 815.34 331.21, 818.26 327.62 C 821.18 324.03, 822.90 322.74, 825.49 321.07 C 828.08 319.41, 829.21 319.08, 831.19 319.31 C 833.17 319.54, 833.88 320.12, 835.39 322.22 C 836.90 324.32, 837.72 325.90, 838.74 329.82 C 839.76 333.73, 840.09 336.52, 840.49 341.81 C 840.89 347.11, 840.85 350.54, 840.74 356.29 C 840.64 362.03, 840.27 365.29, 839.96 370.54 C 839.66 375.79, 839.36 378.42, 839.22 382.54 C 839.09 386.67, 838.88 388.51, 839.27 391.17 C 839.66 393.83, 840.38 394.58, 841.18 395.84 C 841.97 397.10, 842.51 397.19, 843.24 397.44 C 843.97 397.70, 844.52 397.36, 844.82 397.14 C 845.12 396.91, 844.93 396.48, 844.73 396.31 C 844.52 396.14, 844.16 396.57, 843.81 396.29 C 843.47 396.02, 843.36 396.04, 843.00 394.95 C 842.63 393.85, 842.29 393.27, 841.99 390.80 C 841.69 388.33, 841.51 386.61, 841.50 382.58 C 841.50 378.55, 841.71 375.89, 841.96 370.64 C 842.20 365.39, 842.58 362.12, 842.72 356.33 C 842.87 350.53, 842.98 347.09, 842.67 341.67 C 842.37 336.24, 842.21 333.43, 841.20 329.20 C 840.18 324.98, 839.56 322.96, 837.61 320.53 C 835.65 318.11, 834.12 317.35, 831.44 317.07 C 828.77 316.79, 827.18 317.25, 824.24 319.12 C 821.30 320.98, 819.72 322.59, 816.74 326.41 C 813.76 330.23, 812.07 332.83, 809.34 338.22 C 806.61 343.61, 805.26 347.18, 803.09 353.36 C 800.92 359.53, 800.05 363.31, 798.49 369.09 C 796.92 374.88, 796.22 377.95, 795.25 382.30 C 794.27 386.64, 793.80 388.54, 793.60 390.81 C 793.41 393.08, 793.91 393.56, 794.29 393.66 C 794.67 393.76, 795.08 393.24, 795.50 391.31 C 795.93 389.38, 796.02 387.72, 796.41 384.02 C 796.80 380.32, 796.99 377.71, 797.45 372.78 C 797.91 367.86, 798.25 364.84, 798.71 359.40 C 799.16 353.96, 799.39 350.79, 799.73 345.60 C 800.08 340.41, 800.26 337.52, 800.44 333.45 C 800.62 329.37, 800.81 327.73, 800.64 325.22 C 800.46 322.70, 800.05 321.74, 799.56 320.89 C 799.08 320.04, 798.60 320.09, 798.21 320.96" style="stroke: black; fill: black;"/><path d="M 905.90,328.43 C 905.87 327.62, 905.58 326.61, 904.58 325.31 C 903.59 324.02, 902.81 322.98, 900.92 321.95 C 899.03 320.91, 897.69 320.09, 895.14 320.14 C 892.59 320.18, 891.14 320.41, 888.16 322.17 C 885.19 323.93, 883.51 325.27, 880.28 328.93 C 877.05 332.60, 875.21 335.08, 872.01 340.49 C 868.82 345.90, 866.98 349.58, 864.32 355.99 C 861.67 362.40, 860.40 366.40, 858.73 372.54 C 857.06 378.68, 856.46 381.82, 855.97 386.69 C 855.48 391.56, 855.50 393.69, 856.30 396.88 C 857.10 400.06, 858.07 401.21, 859.98 402.62 C 861.88 404.03, 863.31 404.33, 865.80 403.92 C 868.29 403.50, 869.74 402.87, 872.41 400.55 C 875.08 398.23, 876.40 396.58, 879.15 392.30 C 881.91 388.03, 883.29 385.33, 886.17 379.17 C 889.05 373.00, 890.59 369.23, 893.55 361.47 C 896.52 353.71, 898.13 349.03, 900.99 340.35 C 903.85 331.68, 905.30 326.70, 907.84 318.10 C 910.38 309.49, 911.64 304.95, 913.70 297.33 C 915.76 289.71, 916.70 286.01, 918.13 279.99 C 919.57 273.98, 920.16 271.35, 920.88 267.26 C 921.60 263.17, 921.89 261.62, 921.74 259.56 C 921.60 257.49, 921.02 256.69, 920.15 256.93 C 919.29 257.17, 918.36 257.79, 917.43 260.76 C 916.49 263.74, 916.39 266.15, 915.49 271.80 C 914.58 277.46, 914.01 281.16, 912.91 289.05 C 911.81 296.94, 911.11 302.05, 909.98 311.25 C 908.84 320.45, 908.18 325.82, 907.23 335.06 C 906.28 344.30, 905.78 349.24, 905.22 357.46 C 904.66 365.68, 904.44 369.68, 904.42 376.18 C 904.40 382.67, 904.54 385.47, 905.12 389.95 C 905.70 394.43, 906.09 396.10, 907.30 398.57 C 908.50 401.05, 909.81 401.49, 911.16 402.31 C 912.51 403.14, 913.43 402.79, 914.05 402.70 C 914.67 402.62, 914.64 402.23, 914.27 401.88 C 913.89 401.53, 913.12 401.81, 912.16 400.94 C 911.19 400.08, 910.49 399.80, 909.44 397.55 C 908.39 395.30, 907.62 393.96, 906.90 389.69 C 906.18 385.41, 905.92 382.60, 905.82 376.17 C 905.73 369.74, 905.92 365.74, 906.43 357.54 C 906.95 349.34, 907.43 344.41, 908.39 335.18 C 909.35 325.96, 910.02 320.59, 911.23 311.41 C 912.44 302.23, 913.18 297.13, 914.45 289.28 C 915.72 281.44, 916.43 277.75, 917.59 272.19 C 918.74 266.63, 919.62 264.44, 920.21 261.48 C 920.80 258.51, 920.60 257.78, 920.52 257.38 C 920.44 256.98, 920.13 257.56, 919.81 259.47 C 919.49 261.39, 919.56 262.90, 918.94 266.94 C 918.32 270.98, 917.99 273.65, 916.70 279.67 C 915.41 285.68, 914.49 289.39, 912.49 297.01 C 910.49 304.63, 909.24 309.17, 906.71 317.76 C 904.18 326.36, 902.72 331.33, 899.83 339.97 C 896.95 348.61, 895.31 353.28, 892.28 360.98 C 889.24 368.67, 887.65 372.42, 884.66 378.44 C 881.67 384.46, 880.16 387.09, 877.33 391.07 C 874.51 395.06, 872.95 396.32, 870.53 398.38 C 868.12 400.45, 867.12 400.90, 865.27 401.41 C 863.41 401.92, 862.59 401.94, 861.25 400.93 C 859.91 399.91, 859.24 399.13, 858.57 396.32 C 857.89 393.50, 857.50 391.52, 857.86 386.86 C 858.22 382.19, 858.76 379.02, 860.36 372.98 C 861.97 366.94, 863.23 362.94, 865.88 356.64 C 868.54 350.34, 870.41 346.69, 873.64 341.47 C 876.86 336.24, 878.78 333.84, 881.99 330.51 C 885.20 327.19, 887.05 326.24, 889.68 324.84 C 892.30 323.43, 893.23 323.40, 895.11 323.47 C 896.99 323.55, 897.65 324.38, 899.07 325.21 C 900.49 326.05, 901.09 326.84, 902.22 327.67 C 903.35 328.50, 903.97 329.22, 904.70 329.37 C 905.44 329.52, 905.92 329.24, 905.90 328.43" style="stroke: black; fill: black;"/><path d="M 963.89,328.52 C 963.84 327.81, 963.49 327.07, 962.57 326.11 C 961.66 325.14, 961.02 324.34, 959.32 323.69 C 957.62 323.03, 956.36 322.51, 954.08 322.84 C 951.80 323.18, 950.41 323.40, 947.92 325.36 C 945.44 327.33, 944.22 328.80, 941.66 332.69 C 939.10 336.57, 937.57 339.17, 935.13 344.79 C 932.68 350.41, 931.35 354.28, 929.45 360.80 C 927.55 367.33, 926.64 371.34, 925.63 377.42 C 924.62 383.50, 924.32 386.62, 924.40 391.19 C 924.47 395.77, 924.77 397.68, 926.02 400.30 C 927.28 402.92, 928.48 403.67, 930.68 404.29 C 932.87 404.91, 934.44 404.78, 937.00 403.39 C 939.56 402.00, 940.83 400.66, 943.48 397.33 C 946.14 394.00, 947.50 391.81, 950.28 386.75 C 953.05 381.69, 954.56 378.30, 957.35 372.02 C 960.14 365.74, 961.71 361.72, 964.23 355.34 C 966.75 348.96, 968.06 345.23, 969.96 340.12 C 971.86 335.01, 972.89 332.65, 973.74 329.78 C 974.60 326.92, 974.44 326.00, 974.22 325.79 C 974.00 325.58, 973.21 326.27, 972.64 328.73 C 972.08 331.19, 971.93 333.33, 971.38 338.09 C 970.84 342.85, 970.48 346.28, 969.92 352.54 C 969.36 358.81, 969.00 362.83, 968.57 369.41 C 968.15 376.00, 967.89 379.73, 967.80 385.46 C 967.72 391.19, 967.72 393.98, 968.15 398.07 C 968.59 402.17, 968.88 403.68, 969.99 405.96 C 971.11 408.23, 971.95 408.93, 973.72 409.47 C 975.49 410.00, 976.91 409.54, 978.84 408.62 C 980.78 407.70, 982.05 406.56, 983.40 404.89 C 984.75 403.22, 985.42 401.40, 985.58 400.26 C 985.74 399.13, 985.18 398.80, 984.18 399.21 C 983.18 399.62, 981.97 400.97, 980.57 402.32 C 979.17 403.67, 978.48 404.89, 977.20 405.96 C 975.92 407.03, 975.21 407.86, 974.18 407.67 C 973.16 407.48, 972.86 407.00, 972.07 405.03 C 971.29 403.06, 970.77 401.74, 970.28 397.83 C 969.79 393.92, 969.61 391.13, 969.62 385.48 C 969.63 379.82, 969.87 376.08, 970.34 369.53 C 970.81 362.99, 971.24 358.97, 971.96 352.75 C 972.67 346.53, 973.25 343.15, 973.92 338.41 C 974.58 333.67, 975.22 331.63, 975.26 329.05 C 975.30 326.47, 974.86 325.54, 974.12 325.53 C 973.37 325.52, 972.73 326.20, 971.54 328.99 C 970.36 331.78, 969.97 334.34, 968.19 339.48 C 966.42 344.63, 965.17 348.37, 962.68 354.73 C 960.20 361.10, 958.61 365.11, 955.78 371.31 C 952.94 377.52, 951.37 380.87, 948.51 385.75 C 945.65 390.62, 944.09 392.67, 941.50 395.69 C 938.90 398.71, 937.58 399.54, 935.52 400.87 C 933.45 402.20, 932.64 402.66, 931.17 402.35 C 929.69 402.04, 929.11 401.57, 928.15 399.33 C 927.20 397.09, 926.55 395.46, 926.39 391.14 C 926.24 386.81, 926.42 383.67, 927.36 377.70 C 928.31 371.73, 929.22 367.72, 931.13 361.30 C 933.04 354.87, 934.41 351.03, 936.93 345.59 C 939.44 340.16, 941.08 337.61, 943.69 334.10 C 946.29 330.59, 947.80 329.62, 949.97 328.04 C 952.14 326.46, 952.93 326.39, 954.54 326.20 C 956.14 326.01, 956.77 326.60, 957.97 327.10 C 959.18 327.59, 959.59 328.17, 960.56 328.68 C 961.54 329.18, 962.18 329.67, 962.84 329.64 C 963.51 329.61, 963.95 329.23, 963.89 328.52" style="stroke: black; fill: black;"/><path d="M 1010.06,272.72 C 1009.65 273.40, 1009.44 273.78, 1009.23 276.14 C 1009.02 278.50, 1009.14 280.01, 1009.02 284.52 C 1008.91 289.03, 1009.00 292.11, 1008.66 298.68 C 1008.31 305.25, 1007.92 309.42, 1007.29 317.36 C 1006.66 325.31, 1006.27 330.14, 1005.50 338.42 C 1004.73 346.69, 1004.20 351.13, 1003.44 358.74 C 1002.68 366.36, 1002.27 370.24, 1001.67 376.50 C 1001.08 382.76, 1000.78 385.57, 1000.48 390.04 C 1000.18 394.50, 999.92 396.32, 1000.18 398.82 C 1000.45 401.33, 1000.89 402.13, 1001.80 402.56 C 1002.72 403.00, 1003.63 402.86, 1004.74 400.99 C 1005.86 399.12, 1006.15 397.43, 1007.37 393.21 C 1008.59 389.00, 1009.08 385.90, 1010.85 379.92 C 1012.63 373.94, 1013.73 370.00, 1016.24 363.30 C 1018.74 356.61, 1020.32 352.61, 1023.36 346.45 C 1026.40 340.29, 1028.30 337.08, 1031.43 332.51 C 1034.57 327.94, 1036.37 326.13, 1039.04 323.62 C 1041.71 321.10, 1042.92 320.48, 1044.78 319.93 C 1046.64 319.39, 1047.16 319.53, 1048.33 320.90 C 1049.50 322.27, 1049.90 323.46, 1050.64 326.78 C 1051.38 330.11, 1051.76 332.53, 1052.04 337.52 C 1052.32 342.50, 1052.25 345.78, 1052.05 351.70 C 1051.85 357.61, 1051.47 361.19, 1051.04 367.09 C 1050.60 372.98, 1050.24 376.12, 1049.89 381.17 C 1049.54 386.22, 1049.32 388.56, 1049.27 392.34 C 1049.21 396.11, 1049.14 397.67, 1049.60 400.03 C 1050.06 402.39, 1050.65 403.23, 1051.57 404.14 C 1052.48 405.05, 1053.62 404.65, 1054.18 404.58 C 1054.74 404.51, 1054.66 404.06, 1054.38 403.78 C 1054.11 403.49, 1053.24 404.00, 1052.80 403.17 C 1052.35 402.35, 1052.39 401.80, 1052.15 399.63 C 1051.92 397.47, 1051.68 396.00, 1051.62 392.34 C 1051.56 388.67, 1051.60 386.31, 1051.85 381.29 C 1052.11 376.26, 1052.46 373.12, 1052.89 367.22 C 1053.33 361.32, 1053.74 357.74, 1054.03 351.78 C 1054.33 345.82, 1054.52 342.55, 1054.38 337.42 C 1054.24 332.29, 1054.23 329.77, 1053.33 326.15 C 1052.44 322.53, 1051.72 320.98, 1049.91 319.34 C 1048.09 317.69, 1046.73 317.37, 1044.27 317.93 C 1041.81 318.48, 1040.45 319.37, 1037.59 322.09 C 1034.74 324.82, 1033.13 326.82, 1030.00 331.55 C 1026.87 336.28, 1025.01 339.52, 1021.94 345.75 C 1018.88 351.99, 1017.29 356.00, 1014.68 362.71 C 1012.07 369.42, 1010.88 373.36, 1008.90 379.31 C 1006.92 385.25, 1006.06 388.29, 1004.77 392.43 C 1003.48 396.57, 1002.97 398.10, 1002.46 400.01 C 1001.96 401.93, 1002.21 402.28, 1002.22 402.02 C 1002.23 401.76, 1002.47 401.09, 1002.51 398.71 C 1002.54 396.34, 1002.26 394.55, 1002.39 390.13 C 1002.53 385.71, 1002.70 382.88, 1003.17 376.62 C 1003.65 370.37, 1004.04 366.49, 1004.77 358.87 C 1005.50 351.26, 1006.02 346.82, 1006.82 338.54 C 1007.62 330.27, 1008.03 325.44, 1008.77 317.49 C 1009.50 309.54, 1009.95 305.38, 1010.51 298.81 C 1011.07 292.24, 1011.26 289.15, 1011.57 284.64 C 1011.87 280.12, 1012.12 278.61, 1012.05 276.23 C 1011.99 273.84, 1011.64 273.42, 1011.25 272.72 C 1010.85 272.02, 1010.46 272.04, 1010.06 272.72" style="stroke: black; fill: black;"/><path d="M 1088.63,272.15 C 1088.19 273.02, 1087.89 273.72, 1087.65 276.53 C 1087.41 279.34, 1087.63 281.22, 1087.42 286.21 C 1087.21 291.20, 1087.09 294.46, 1086.59 301.47 C 1086.09 308.48, 1085.70 313.02, 1084.93 321.26 C 1084.16 329.51, 1083.61 334.28, 1082.75 342.71 C 1081.89 351.15, 1081.34 355.67, 1080.65 363.44 C 1079.96 371.21, 1079.64 375.12, 1079.31 381.58 C 1078.97 388.05, 1078.89 390.93, 1078.98 395.77 C 1079.07 400.62, 1079.23 402.70, 1079.76 405.82 C 1080.29 408.95, 1080.89 409.82, 1081.63 411.41 C 1082.37 413.01, 1082.84 413.25, 1083.47 413.78 C 1084.10 414.31, 1084.48 414.10, 1084.79 414.05 C 1085.10 414.00, 1085.08 413.75, 1085.02 413.53 C 1084.96 413.31, 1084.75 413.54, 1084.47 412.96 C 1084.20 412.38, 1084.13 412.14, 1083.67 410.62 C 1083.20 409.11, 1082.73 408.37, 1082.15 405.39 C 1081.57 402.41, 1081.05 400.45, 1080.77 395.71 C 1080.49 390.96, 1080.52 388.08, 1080.76 381.65 C 1080.99 375.22, 1081.29 371.31, 1081.94 363.55 C 1082.60 355.79, 1083.15 351.28, 1084.03 342.85 C 1084.90 334.42, 1085.47 329.65, 1086.33 321.40 C 1087.19 313.16, 1087.65 308.63, 1088.32 301.62 C 1088.99 294.61, 1089.26 291.35, 1089.70 286.36 C 1090.15 281.37, 1090.51 279.50, 1090.55 276.67 C 1090.59 273.84, 1090.27 273.10, 1089.89 272.20 C 1089.51 271.29, 1089.08 271.28, 1088.63 272.15" style="stroke: black; fill: black;"/></svg>